G75*
%MOIN*%
%OFA0B0*%
%FSLAX25Y25*%
%IPPOS*%
%LPD*%
%AMOC8*
5,1,8,0,0,1.08239X$1,22.5*
%
%ADD10C,0.00500*%
%ADD11C,0.00600*%
D10*
X0259875Y0080250D02*
X0259875Y0085500D01*
X0259875Y0088000D02*
X0259875Y0093250D01*
X0266125Y0093250D01*
X0266125Y0088000D01*
X0266125Y0085500D02*
X0266125Y0080250D01*
X0259875Y0080250D01*
X0268625Y0080500D02*
X0268625Y0084875D01*
X0272375Y0085500D02*
X0276125Y0085500D01*
X0279875Y0084875D02*
X0279875Y0080500D01*
X0276125Y0080500D01*
X0272375Y0080500D02*
X0268625Y0080500D01*
X0333625Y0115250D02*
X0339875Y0115250D01*
X0339875Y0120500D01*
X0341625Y0120500D02*
X0341625Y0115250D01*
X0347875Y0115250D01*
X0347875Y0120500D01*
X0347875Y0123000D02*
X0347875Y0128250D01*
X0341625Y0128250D01*
X0341625Y0123000D01*
X0339875Y0123000D02*
X0339875Y0128250D01*
X0333625Y0128250D01*
X0333625Y0123000D01*
X0333625Y0120500D02*
X0333625Y0115250D01*
X0302000Y0122375D02*
X0296750Y0122375D01*
X0294250Y0122375D02*
X0289000Y0122375D01*
X0289000Y0128625D01*
X0294250Y0128625D01*
X0296750Y0128625D02*
X0302000Y0128625D01*
X0302000Y0122375D01*
X0331125Y0135250D02*
X0331125Y0140500D01*
X0331125Y0143000D02*
X0331125Y0148250D01*
X0337375Y0148250D01*
X0337375Y0143000D01*
X0337375Y0140500D02*
X0337375Y0135250D01*
X0331125Y0135250D01*
X0341125Y0135250D02*
X0347375Y0135250D01*
X0347375Y0140500D01*
X0347375Y0143000D02*
X0347375Y0148250D01*
X0341125Y0148250D01*
X0341125Y0143000D01*
X0341125Y0140500D02*
X0341125Y0135250D01*
X0341125Y0155250D02*
X0341125Y0160500D01*
X0341125Y0163000D02*
X0341125Y0168250D01*
X0347375Y0168250D01*
X0347375Y0163000D01*
X0347375Y0160500D02*
X0347375Y0155250D01*
X0341125Y0155250D01*
X0337375Y0155250D02*
X0337375Y0160500D01*
X0337375Y0163000D02*
X0337375Y0168250D01*
X0331125Y0168250D01*
X0331125Y0163000D01*
X0331125Y0160500D02*
X0331125Y0155250D01*
X0337375Y0155250D01*
X0361125Y0155250D02*
X0361125Y0160500D01*
X0361125Y0163000D02*
X0361125Y0168250D01*
X0367375Y0168250D01*
X0367375Y0163000D01*
X0367375Y0160500D02*
X0367375Y0155250D01*
X0361125Y0155250D01*
X0347375Y0172750D02*
X0341125Y0172750D01*
X0341125Y0178000D01*
X0341125Y0180500D02*
X0341125Y0185750D01*
X0347375Y0185750D01*
X0347375Y0180500D01*
X0347375Y0178000D02*
X0347375Y0172750D01*
X0337375Y0172750D02*
X0331125Y0172750D01*
X0331125Y0178000D01*
X0331125Y0180500D02*
X0331125Y0185750D01*
X0337375Y0185750D01*
X0337375Y0180500D01*
X0337375Y0178000D02*
X0337375Y0172750D01*
X0402375Y0172750D02*
X0402375Y0178000D01*
X0402375Y0180500D02*
X0402375Y0185750D01*
X0408625Y0185750D01*
X0408625Y0180500D01*
X0408625Y0178000D02*
X0408625Y0172750D01*
X0402375Y0172750D01*
X0402375Y0168250D02*
X0408625Y0168250D01*
X0408625Y0163000D01*
X0408625Y0160500D02*
X0408625Y0155250D01*
X0402375Y0155250D01*
X0402375Y0160500D01*
X0402375Y0163000D02*
X0402375Y0168250D01*
X0412375Y0168250D02*
X0412375Y0163000D01*
X0412375Y0160500D02*
X0412375Y0155250D01*
X0418625Y0155250D01*
X0418625Y0160500D01*
X0418625Y0163000D02*
X0418625Y0168250D01*
X0412375Y0168250D01*
X0412375Y0172750D02*
X0412375Y0178000D01*
X0412375Y0180500D02*
X0412375Y0185750D01*
X0418625Y0185750D01*
X0418625Y0180500D01*
X0418625Y0178000D02*
X0418625Y0172750D01*
X0412375Y0172750D01*
X0432375Y0168250D02*
X0432375Y0163000D01*
X0432375Y0160500D02*
X0432375Y0155250D01*
X0438625Y0155250D01*
X0438625Y0160500D01*
X0438625Y0163000D02*
X0438625Y0168250D01*
X0432375Y0168250D01*
X0473625Y0168250D02*
X0473625Y0163000D01*
X0473625Y0160500D02*
X0473625Y0155250D01*
X0479875Y0155250D01*
X0479875Y0160500D01*
X0479875Y0163000D02*
X0479875Y0168250D01*
X0473625Y0168250D01*
X0473625Y0172750D02*
X0473625Y0178000D01*
X0473625Y0180500D02*
X0473625Y0185750D01*
X0479875Y0185750D01*
X0479875Y0180500D01*
X0479875Y0178000D02*
X0479875Y0172750D01*
X0473625Y0172750D01*
X0483625Y0172750D02*
X0483625Y0178000D01*
X0483625Y0180500D02*
X0483625Y0185750D01*
X0489875Y0185750D01*
X0489875Y0180500D01*
X0489875Y0178000D02*
X0489875Y0172750D01*
X0483625Y0172750D01*
X0483625Y0168250D02*
X0483625Y0163000D01*
X0483625Y0160500D02*
X0483625Y0155250D01*
X0489875Y0155250D01*
X0489875Y0160500D01*
X0489875Y0163000D02*
X0489875Y0168250D01*
X0483625Y0168250D01*
X0503625Y0168250D02*
X0503625Y0163000D01*
X0503625Y0160500D02*
X0503625Y0155250D01*
X0509875Y0155250D01*
X0509875Y0160500D01*
X0509875Y0163000D02*
X0509875Y0168250D01*
X0503625Y0168250D01*
X0489875Y0148250D02*
X0483625Y0148250D01*
X0483625Y0143000D01*
X0483625Y0140500D02*
X0483625Y0135250D01*
X0489875Y0135250D01*
X0489875Y0140500D01*
X0489875Y0143000D02*
X0489875Y0148250D01*
X0479875Y0148250D02*
X0473625Y0148250D01*
X0473625Y0143000D01*
X0473625Y0140500D02*
X0473625Y0135250D01*
X0479875Y0135250D01*
X0479875Y0140500D01*
X0479875Y0143000D02*
X0479875Y0148250D01*
X0482375Y0128250D02*
X0476125Y0128250D01*
X0476125Y0123000D01*
X0476125Y0120500D02*
X0476125Y0115250D01*
X0482375Y0115250D01*
X0482375Y0120500D01*
X0484125Y0120500D02*
X0484125Y0115250D01*
X0490375Y0115250D01*
X0490375Y0120500D01*
X0490375Y0123000D02*
X0490375Y0128250D01*
X0484125Y0128250D01*
X0484125Y0123000D01*
X0482375Y0123000D02*
X0482375Y0128250D01*
X0419125Y0128250D02*
X0419125Y0123000D01*
X0419125Y0120500D02*
X0419125Y0115250D01*
X0412875Y0115250D01*
X0412875Y0120500D01*
X0411125Y0120500D02*
X0411125Y0115250D01*
X0404875Y0115250D01*
X0404875Y0120500D01*
X0404875Y0123000D02*
X0404875Y0128250D01*
X0411125Y0128250D01*
X0411125Y0123000D01*
X0412875Y0123000D02*
X0412875Y0128250D01*
X0419125Y0128250D01*
X0418625Y0135250D02*
X0418625Y0140500D01*
X0418625Y0143000D02*
X0418625Y0148250D01*
X0412375Y0148250D01*
X0412375Y0143000D01*
X0412375Y0140500D02*
X0412375Y0135250D01*
X0418625Y0135250D01*
X0408625Y0135250D02*
X0402375Y0135250D01*
X0402375Y0140500D01*
X0402375Y0143000D02*
X0402375Y0148250D01*
X0408625Y0148250D01*
X0408625Y0143000D01*
X0408625Y0140500D02*
X0408625Y0135250D01*
X0466515Y0087375D02*
X0471765Y0087375D01*
X0474265Y0087375D02*
X0479515Y0087375D01*
X0479515Y0081125D01*
X0474265Y0081125D01*
X0471765Y0081125D02*
X0466515Y0081125D01*
X0466515Y0087375D01*
X0486485Y0087375D02*
X0486485Y0081125D01*
X0491735Y0081125D01*
X0494235Y0081125D02*
X0499485Y0081125D01*
X0499485Y0087375D01*
X0494235Y0087375D01*
X0491735Y0087375D02*
X0486485Y0087375D01*
X0506515Y0087375D02*
X0506515Y0081125D01*
X0511765Y0081125D01*
X0514265Y0081125D02*
X0519515Y0081125D01*
X0519515Y0087375D01*
X0514265Y0087375D01*
X0511765Y0087375D02*
X0506515Y0087375D01*
X0526485Y0087375D02*
X0526485Y0081125D01*
X0531735Y0081125D01*
X0534235Y0081125D02*
X0539485Y0081125D01*
X0539485Y0087375D01*
X0534235Y0087375D01*
X0531735Y0087375D02*
X0526485Y0087375D01*
X0526515Y0074875D02*
X0531765Y0074875D01*
X0534265Y0074875D02*
X0539515Y0074875D01*
X0539515Y0068625D01*
X0534265Y0068625D01*
X0531765Y0068625D02*
X0526515Y0068625D01*
X0526515Y0074875D01*
X0519485Y0074875D02*
X0514235Y0074875D01*
X0511735Y0074875D02*
X0506485Y0074875D01*
X0506485Y0068625D01*
X0511735Y0068625D01*
X0514235Y0068625D02*
X0519485Y0068625D01*
X0519485Y0074875D01*
X0499515Y0074875D02*
X0499515Y0068625D01*
X0494265Y0068625D01*
X0491765Y0068625D02*
X0486515Y0068625D01*
X0486515Y0074875D01*
X0491765Y0074875D01*
X0494265Y0074875D02*
X0499515Y0074875D01*
X0479485Y0074875D02*
X0479485Y0068625D01*
X0474235Y0068625D01*
X0471735Y0068625D02*
X0466485Y0068625D01*
X0466485Y0074875D01*
X0471735Y0074875D01*
X0474235Y0074875D02*
X0479485Y0074875D01*
X0635235Y0124875D02*
X0635235Y0131125D01*
X0640485Y0131125D01*
X0642985Y0131125D02*
X0648235Y0131125D01*
X0648235Y0124875D01*
X0642985Y0124875D01*
X0640485Y0124875D02*
X0635235Y0124875D01*
X0653610Y0125500D02*
X0653610Y0130750D01*
X0659860Y0130750D01*
X0659860Y0125500D01*
X0659860Y0123000D02*
X0659860Y0117750D01*
X0653610Y0117750D01*
X0653610Y0123000D01*
X0681485Y0124875D02*
X0686735Y0124875D01*
X0689235Y0124875D02*
X0694485Y0124875D01*
X0694485Y0131125D01*
X0689235Y0131125D01*
X0686735Y0131125D02*
X0681485Y0131125D01*
X0681485Y0124875D01*
X0699860Y0125500D02*
X0699860Y0130750D01*
X0706110Y0130750D01*
X0706110Y0125500D01*
X0706110Y0123000D02*
X0706110Y0117750D01*
X0699860Y0117750D01*
X0699860Y0123000D01*
X0727735Y0124875D02*
X0732985Y0124875D01*
X0735485Y0124875D02*
X0740735Y0124875D01*
X0740735Y0131125D01*
X0735485Y0131125D01*
X0732985Y0131125D02*
X0727735Y0131125D01*
X0727735Y0124875D01*
X0746110Y0125500D02*
X0746110Y0130750D01*
X0752360Y0130750D01*
X0752360Y0125500D01*
X0752360Y0123000D02*
X0752360Y0117750D01*
X0746110Y0117750D01*
X0746110Y0123000D01*
X0747735Y0099875D02*
X0752985Y0099875D01*
X0755485Y0099875D02*
X0760735Y0099875D01*
X0760735Y0093625D01*
X0755485Y0093625D01*
X0752985Y0093625D02*
X0747735Y0093625D01*
X0747735Y0099875D01*
X0741985Y0099875D02*
X0736735Y0099875D01*
X0734235Y0099875D02*
X0728985Y0099875D01*
X0728985Y0093625D01*
X0734235Y0093625D01*
X0736735Y0093625D02*
X0741985Y0093625D01*
X0741985Y0099875D01*
X0714485Y0099875D02*
X0714485Y0093625D01*
X0709235Y0093625D01*
X0706735Y0093625D02*
X0701485Y0093625D01*
X0701485Y0099875D01*
X0706735Y0099875D01*
X0709235Y0099875D02*
X0714485Y0099875D01*
X0695735Y0099875D02*
X0695735Y0093625D01*
X0690485Y0093625D01*
X0687985Y0093625D02*
X0682735Y0093625D01*
X0682735Y0099875D01*
X0687985Y0099875D01*
X0690485Y0099875D02*
X0695735Y0099875D01*
X0668235Y0099875D02*
X0668235Y0093625D01*
X0662985Y0093625D01*
X0660485Y0093625D02*
X0655235Y0093625D01*
X0655235Y0099875D01*
X0660485Y0099875D01*
X0662985Y0099875D02*
X0668235Y0099875D01*
X0649485Y0099875D02*
X0649485Y0093625D01*
X0644235Y0093625D01*
X0641735Y0093625D02*
X0636485Y0093625D01*
X0636485Y0099875D01*
X0641735Y0099875D01*
X0644235Y0099875D02*
X0649485Y0099875D01*
X0651735Y0061125D02*
X0646485Y0061125D01*
X0646485Y0054875D01*
X0651735Y0054875D01*
X0654235Y0054875D02*
X0659485Y0054875D01*
X0659485Y0061125D01*
X0654235Y0061125D01*
X0663162Y0054578D02*
X0667581Y0050159D01*
X0671293Y0053871D01*
X0673061Y0055639D02*
X0676773Y0059351D01*
X0672354Y0063770D01*
X0668642Y0060058D01*
X0666874Y0058290D02*
X0663162Y0054578D01*
X0674929Y0053631D02*
X0679349Y0049212D01*
X0683061Y0052924D01*
X0684829Y0054692D02*
X0688541Y0058404D01*
X0684122Y0062824D01*
X0680409Y0059111D01*
X0678642Y0057344D02*
X0674929Y0053631D01*
X0687063Y0053480D02*
X0691483Y0049060D01*
X0695195Y0052773D01*
X0696963Y0054540D02*
X0700675Y0058253D01*
X0696256Y0062672D01*
X0692543Y0058960D01*
X0690776Y0057192D02*
X0687063Y0053480D01*
X0630735Y0159875D02*
X0625485Y0159875D01*
X0622985Y0159875D02*
X0617735Y0159875D01*
X0617735Y0166125D01*
X0622985Y0166125D01*
X0622985Y0168625D02*
X0617735Y0168625D01*
X0617735Y0174875D01*
X0622985Y0174875D01*
X0622985Y0177375D02*
X0617735Y0177375D01*
X0617735Y0183625D01*
X0622985Y0183625D01*
X0625485Y0183625D02*
X0630735Y0183625D01*
X0630735Y0177375D01*
X0625485Y0177375D01*
X0625485Y0174875D02*
X0630735Y0174875D01*
X0630735Y0168625D01*
X0625485Y0168625D01*
X0625485Y0166125D02*
X0630735Y0166125D01*
X0630735Y0159875D01*
X0717750Y0184875D02*
X0723000Y0184875D01*
X0725500Y0184875D02*
X0730750Y0184875D01*
X0730750Y0191125D01*
X0725500Y0191125D01*
X0723000Y0191125D02*
X0717750Y0191125D01*
X0717750Y0184875D01*
X0727735Y0209875D02*
X0732985Y0209875D01*
X0735485Y0209875D02*
X0740735Y0209875D01*
X0740735Y0216125D01*
X0735485Y0216125D01*
X0732985Y0216125D02*
X0727735Y0216125D01*
X0727735Y0209875D01*
X0727735Y0218625D02*
X0727735Y0224875D01*
X0732985Y0224875D01*
X0735485Y0224875D02*
X0740735Y0224875D01*
X0740735Y0218625D01*
X0735485Y0218625D01*
X0732985Y0218625D02*
X0727735Y0218625D01*
X0725500Y0239875D02*
X0730750Y0239875D01*
X0730750Y0246125D01*
X0725500Y0246125D01*
X0723000Y0246125D02*
X0717750Y0246125D01*
X0717750Y0239875D01*
X0723000Y0239875D01*
X0630735Y0238625D02*
X0630735Y0232375D01*
X0625485Y0232375D01*
X0622985Y0232375D02*
X0617735Y0232375D01*
X0617735Y0238625D01*
X0622985Y0238625D01*
X0625485Y0238625D02*
X0630735Y0238625D01*
X0630735Y0229875D02*
X0625485Y0229875D01*
X0622985Y0229875D02*
X0617735Y0229875D01*
X0617735Y0223625D01*
X0622985Y0223625D01*
X0622985Y0221125D02*
X0617735Y0221125D01*
X0617735Y0214875D01*
X0622985Y0214875D01*
X0625485Y0214875D02*
X0630735Y0214875D01*
X0630735Y0221125D01*
X0625485Y0221125D01*
X0625485Y0223625D02*
X0630735Y0223625D01*
X0630735Y0229875D01*
X0630735Y0269875D02*
X0625485Y0269875D01*
X0622985Y0269875D02*
X0617735Y0269875D01*
X0617735Y0276125D01*
X0622985Y0276125D01*
X0622985Y0278625D02*
X0617735Y0278625D01*
X0617735Y0284875D01*
X0622985Y0284875D01*
X0622985Y0287375D02*
X0617735Y0287375D01*
X0617735Y0293625D01*
X0622985Y0293625D01*
X0625485Y0293625D02*
X0630735Y0293625D01*
X0630735Y0287375D01*
X0625485Y0287375D01*
X0625485Y0284875D02*
X0630735Y0284875D01*
X0630735Y0278625D01*
X0625485Y0278625D01*
X0625485Y0276125D02*
X0630735Y0276125D01*
X0630735Y0269875D01*
X0717750Y0294875D02*
X0723000Y0294875D01*
X0725500Y0294875D02*
X0730750Y0294875D01*
X0730750Y0301125D01*
X0725500Y0301125D01*
X0723000Y0301125D02*
X0717750Y0301125D01*
X0717750Y0294875D01*
X0488250Y0274875D02*
X0488250Y0268625D01*
X0483000Y0268625D01*
X0480500Y0268625D02*
X0475250Y0268625D01*
X0475250Y0274875D01*
X0480500Y0274875D01*
X0483000Y0274875D02*
X0488250Y0274875D01*
X0488250Y0264875D02*
X0483000Y0264875D01*
X0480500Y0264875D02*
X0475250Y0264875D01*
X0475250Y0258625D01*
X0480500Y0258625D01*
X0483000Y0258625D02*
X0488250Y0258625D01*
X0488250Y0264875D01*
X0472000Y0264875D02*
X0472000Y0258625D01*
X0466750Y0258625D01*
X0464250Y0258625D02*
X0459000Y0258625D01*
X0459000Y0264875D01*
X0464250Y0264875D01*
X0466750Y0264875D02*
X0472000Y0264875D01*
X0448250Y0243250D02*
X0448250Y0237000D01*
X0443000Y0237000D01*
X0440500Y0237000D02*
X0435250Y0237000D01*
X0435250Y0243250D01*
X0440500Y0243250D01*
X0443000Y0243250D02*
X0448250Y0243250D01*
X0448250Y0230750D02*
X0448250Y0224500D01*
X0443000Y0224500D01*
X0440500Y0224500D02*
X0435250Y0224500D01*
X0435250Y0230750D01*
X0440500Y0230750D01*
X0443000Y0230750D02*
X0448250Y0230750D01*
X0448250Y0218250D02*
X0448250Y0212000D01*
X0443000Y0212000D01*
X0440500Y0212000D02*
X0435250Y0212000D01*
X0435250Y0218250D01*
X0440500Y0218250D01*
X0443000Y0218250D02*
X0448250Y0218250D01*
X0409875Y0225250D02*
X0409875Y0230500D01*
X0409875Y0233000D02*
X0409875Y0238250D01*
X0403625Y0238250D01*
X0403625Y0233000D01*
X0403625Y0230500D02*
X0403625Y0225250D01*
X0409875Y0225250D01*
X0389621Y0225281D02*
X0383371Y0225281D01*
X0383371Y0230531D01*
X0383371Y0233031D02*
X0383371Y0238281D01*
X0389621Y0238281D01*
X0389621Y0233031D01*
X0389621Y0230531D02*
X0389621Y0225281D01*
X0335750Y0248625D02*
X0330500Y0248625D01*
X0328000Y0248625D02*
X0322750Y0248625D01*
X0322750Y0254875D01*
X0328000Y0254875D01*
X0330500Y0254875D02*
X0335750Y0254875D01*
X0335750Y0248625D01*
X0294875Y0249250D02*
X0294875Y0254500D01*
X0288625Y0254500D01*
X0288625Y0249250D01*
X0288625Y0246750D02*
X0288625Y0241500D01*
X0294875Y0241500D01*
X0294875Y0246750D01*
X0280750Y0243625D02*
X0280750Y0249875D01*
X0275500Y0249875D01*
X0273000Y0249875D02*
X0267750Y0249875D01*
X0267750Y0243625D01*
X0273000Y0243625D01*
X0275500Y0243625D02*
X0280750Y0243625D01*
X0284875Y0215750D02*
X0291125Y0215750D01*
X0291125Y0210500D01*
X0291125Y0208000D02*
X0291125Y0202750D01*
X0284875Y0202750D01*
X0284875Y0208000D01*
X0284875Y0210500D02*
X0284875Y0215750D01*
X0187000Y0206125D02*
X0187000Y0199875D01*
X0181750Y0199875D01*
X0179250Y0199875D02*
X0174000Y0199875D01*
X0174000Y0206125D01*
X0179250Y0206125D01*
X0181750Y0206125D02*
X0187000Y0206125D01*
X0187000Y0193625D02*
X0181750Y0193625D01*
X0179250Y0193625D02*
X0174000Y0193625D01*
X0174000Y0187375D01*
X0179250Y0187375D01*
X0181750Y0187375D02*
X0187000Y0187375D01*
X0187000Y0193625D01*
X0187000Y0181125D02*
X0181750Y0181125D01*
X0179250Y0181125D02*
X0174000Y0181125D01*
X0174000Y0174875D01*
X0179250Y0174875D01*
X0181750Y0174875D02*
X0187000Y0174875D01*
X0187000Y0181125D01*
X0187000Y0168625D02*
X0181750Y0168625D01*
X0179250Y0168625D02*
X0174000Y0168625D01*
X0174000Y0162375D01*
X0179250Y0162375D01*
X0181750Y0162375D02*
X0187000Y0162375D01*
X0187000Y0168625D01*
X0189500Y0156750D02*
X0183000Y0156750D01*
X0178000Y0156750D02*
X0171500Y0156750D01*
X0171500Y0149250D01*
X0178000Y0149250D01*
X0183000Y0149250D02*
X0189500Y0149250D01*
X0189500Y0156750D01*
X0267750Y0283625D02*
X0273000Y0283625D01*
X0275500Y0283625D02*
X0280750Y0283625D01*
X0280750Y0289875D01*
X0275500Y0289875D01*
X0273000Y0289875D02*
X0267750Y0289875D01*
X0267750Y0283625D01*
X0289000Y0293625D02*
X0294250Y0293625D01*
X0296750Y0293625D02*
X0302000Y0293625D01*
X0302000Y0299875D01*
X0296750Y0299875D01*
X0294250Y0299875D02*
X0289000Y0299875D01*
X0289000Y0293625D01*
D11*
X0254800Y0082135D02*
X0254800Y0080434D01*
X0258203Y0080434D01*
X0258203Y0082135D01*
X0257636Y0082702D01*
X0255367Y0082702D01*
X0254800Y0082135D01*
X0254800Y0084117D02*
X0254800Y0086385D01*
X0254800Y0085251D02*
X0258203Y0085251D01*
X0257069Y0084117D01*
X0268432Y0075203D02*
X0270133Y0073501D01*
X0267865Y0073501D01*
X0268432Y0071800D02*
X0268432Y0075203D01*
X0271548Y0074636D02*
X0271548Y0072367D01*
X0272115Y0071800D01*
X0273249Y0071800D01*
X0273816Y0072367D01*
X0273816Y0074636D01*
X0273249Y0075203D01*
X0272115Y0075203D01*
X0271548Y0074636D01*
X0272682Y0072934D02*
X0271548Y0071800D01*
X0334300Y0103501D02*
X0337703Y0103501D01*
X0337703Y0105202D01*
X0337136Y0105769D01*
X0336001Y0105769D01*
X0335434Y0105202D01*
X0335434Y0103501D01*
X0335434Y0104635D02*
X0334300Y0105769D01*
X0334867Y0107184D02*
X0334300Y0107751D01*
X0334300Y0108885D01*
X0334867Y0109452D01*
X0336001Y0109452D01*
X0336569Y0108885D01*
X0336569Y0108318D01*
X0336001Y0107184D01*
X0337703Y0107184D01*
X0337703Y0109452D01*
X0337703Y0110867D02*
X0336001Y0110867D01*
X0336569Y0112001D01*
X0336569Y0112568D01*
X0336001Y0113135D01*
X0334867Y0113135D01*
X0334300Y0112568D01*
X0334300Y0111434D01*
X0334867Y0110867D01*
X0337703Y0110867D02*
X0337703Y0113135D01*
X0342550Y0112568D02*
X0343117Y0113135D01*
X0343684Y0113135D01*
X0344251Y0112568D01*
X0344251Y0110867D01*
X0343117Y0110867D01*
X0342550Y0111434D01*
X0342550Y0112568D01*
X0344251Y0110867D02*
X0345386Y0112001D01*
X0345953Y0113135D01*
X0345953Y0109452D02*
X0345953Y0107184D01*
X0344251Y0107184D01*
X0344819Y0108318D01*
X0344819Y0108885D01*
X0344251Y0109452D01*
X0343117Y0109452D01*
X0342550Y0108885D01*
X0342550Y0107751D01*
X0343117Y0107184D01*
X0342550Y0105769D02*
X0343684Y0104635D01*
X0343684Y0105202D02*
X0343684Y0103501D01*
X0342550Y0103501D02*
X0345953Y0103501D01*
X0345953Y0105202D01*
X0345386Y0105769D01*
X0344251Y0105769D01*
X0343684Y0105202D01*
X0306703Y0120800D02*
X0306703Y0122501D01*
X0306136Y0123069D01*
X0305001Y0123069D01*
X0304434Y0122501D01*
X0304434Y0120800D01*
X0303300Y0120800D02*
X0306703Y0120800D01*
X0304434Y0121934D02*
X0303300Y0123069D01*
X0303867Y0124483D02*
X0303300Y0125050D01*
X0303300Y0126185D01*
X0303867Y0126752D01*
X0304434Y0126752D01*
X0305001Y0126185D01*
X0305001Y0125050D01*
X0305569Y0124483D01*
X0306136Y0124483D01*
X0306703Y0125050D01*
X0306703Y0126185D01*
X0306136Y0126752D01*
X0305569Y0126752D01*
X0305001Y0126185D01*
X0305001Y0125050D02*
X0304434Y0124483D01*
X0303867Y0124483D01*
X0303300Y0128166D02*
X0303300Y0130435D01*
X0303300Y0129301D02*
X0306703Y0129301D01*
X0305569Y0128166D01*
X0315117Y0138300D02*
X0314550Y0138867D01*
X0314550Y0140001D01*
X0315117Y0140569D01*
X0314550Y0141983D02*
X0316819Y0144252D01*
X0317386Y0144252D01*
X0317953Y0143685D01*
X0317953Y0142550D01*
X0317386Y0141983D01*
X0317386Y0140569D02*
X0317953Y0140001D01*
X0317953Y0138867D01*
X0317386Y0138300D01*
X0315117Y0138300D01*
X0314550Y0141983D02*
X0314550Y0144252D01*
X0316251Y0145666D02*
X0316251Y0147935D01*
X0314550Y0147368D02*
X0317953Y0147368D01*
X0316251Y0145666D01*
X0339315Y0151367D02*
X0339315Y0151934D01*
X0339882Y0152501D01*
X0341017Y0152501D01*
X0341584Y0153069D01*
X0341584Y0153636D01*
X0341017Y0154203D01*
X0339882Y0154203D01*
X0339315Y0153636D01*
X0339315Y0153069D01*
X0339882Y0152501D01*
X0341017Y0152501D02*
X0341584Y0151934D01*
X0341584Y0151367D01*
X0341017Y0150800D01*
X0339882Y0150800D01*
X0339315Y0151367D01*
X0342998Y0150800D02*
X0345267Y0150800D01*
X0342998Y0153069D01*
X0342998Y0153636D01*
X0343565Y0154203D01*
X0344700Y0154203D01*
X0345267Y0153636D01*
X0346681Y0153636D02*
X0347249Y0154203D01*
X0348383Y0154203D01*
X0348950Y0153636D01*
X0348950Y0151367D01*
X0348383Y0150800D01*
X0347249Y0150800D01*
X0346681Y0151367D01*
X0360800Y0146118D02*
X0361367Y0146685D01*
X0361934Y0146685D01*
X0362501Y0146118D01*
X0362501Y0144416D01*
X0361367Y0144416D01*
X0360800Y0144983D01*
X0360800Y0146118D01*
X0362501Y0144416D02*
X0363636Y0145551D01*
X0364203Y0146685D01*
X0363636Y0143002D02*
X0364203Y0142435D01*
X0364203Y0141300D01*
X0363636Y0140733D01*
X0363636Y0139319D02*
X0364203Y0138751D01*
X0364203Y0137617D01*
X0363636Y0137050D01*
X0361367Y0137050D01*
X0360800Y0137617D01*
X0360800Y0138751D01*
X0361367Y0139319D01*
X0360800Y0140733D02*
X0363069Y0143002D01*
X0363636Y0143002D01*
X0360800Y0143002D02*
X0360800Y0140733D01*
X0385550Y0140818D02*
X0388953Y0140818D01*
X0387819Y0139684D01*
X0388386Y0138269D02*
X0388953Y0137702D01*
X0388953Y0136568D01*
X0388386Y0136001D01*
X0386117Y0136001D01*
X0385550Y0136568D01*
X0385550Y0137702D01*
X0386117Y0138269D01*
X0385550Y0139684D02*
X0385550Y0141952D01*
X0386117Y0143367D02*
X0385550Y0143934D01*
X0385550Y0145068D01*
X0386117Y0145635D01*
X0388386Y0145635D01*
X0388953Y0145068D01*
X0388953Y0143934D01*
X0388386Y0143367D01*
X0387819Y0143367D01*
X0387251Y0143934D01*
X0387251Y0145635D01*
X0410565Y0151367D02*
X0410565Y0151934D01*
X0411132Y0152501D01*
X0411699Y0152501D01*
X0411132Y0152501D02*
X0410565Y0153069D01*
X0410565Y0153636D01*
X0411132Y0154203D01*
X0412267Y0154203D01*
X0412834Y0153636D01*
X0414248Y0153636D02*
X0414815Y0154203D01*
X0415950Y0154203D01*
X0416517Y0153636D01*
X0417931Y0153636D02*
X0418499Y0154203D01*
X0419633Y0154203D01*
X0420200Y0153636D01*
X0420200Y0151367D01*
X0419633Y0150800D01*
X0418499Y0150800D01*
X0417931Y0151367D01*
X0416517Y0150800D02*
X0414248Y0153069D01*
X0414248Y0153636D01*
X0412834Y0151367D02*
X0412267Y0150800D01*
X0411132Y0150800D01*
X0410565Y0151367D01*
X0414248Y0150800D02*
X0416517Y0150800D01*
X0432050Y0147935D02*
X0432050Y0145666D01*
X0432050Y0146801D02*
X0435453Y0146801D01*
X0434319Y0145666D01*
X0434319Y0144252D02*
X0434886Y0144252D01*
X0435453Y0143685D01*
X0435453Y0142550D01*
X0434886Y0141983D01*
X0434886Y0140569D02*
X0435453Y0140001D01*
X0435453Y0138867D01*
X0434886Y0138300D01*
X0432617Y0138300D01*
X0432050Y0138867D01*
X0432050Y0140001D01*
X0432617Y0140569D01*
X0432050Y0141983D02*
X0434319Y0144252D01*
X0432050Y0144252D02*
X0432050Y0141983D01*
X0457050Y0141867D02*
X0460453Y0141867D01*
X0459319Y0140733D01*
X0459886Y0139319D02*
X0460453Y0138751D01*
X0460453Y0137617D01*
X0459886Y0137050D01*
X0457617Y0137050D01*
X0457050Y0137617D01*
X0457050Y0138751D01*
X0457617Y0139319D01*
X0457050Y0140733D02*
X0457050Y0143002D01*
X0457617Y0144416D02*
X0457050Y0144983D01*
X0457050Y0146118D01*
X0457617Y0146685D01*
X0458184Y0146685D01*
X0458751Y0146118D01*
X0458751Y0144416D01*
X0457617Y0144416D01*
X0458751Y0144416D02*
X0459886Y0145551D01*
X0460453Y0146685D01*
X0481815Y0151367D02*
X0481815Y0151934D01*
X0482382Y0152501D01*
X0483517Y0152501D01*
X0484084Y0153069D01*
X0484084Y0153636D01*
X0483517Y0154203D01*
X0482382Y0154203D01*
X0481815Y0153636D01*
X0481815Y0153069D01*
X0482382Y0152501D01*
X0483517Y0152501D02*
X0484084Y0151934D01*
X0484084Y0151367D01*
X0483517Y0150800D01*
X0482382Y0150800D01*
X0481815Y0151367D01*
X0485498Y0150800D02*
X0487767Y0150800D01*
X0486633Y0150800D02*
X0486633Y0154203D01*
X0487767Y0153069D01*
X0489181Y0153636D02*
X0489749Y0154203D01*
X0490883Y0154203D01*
X0491450Y0153636D01*
X0491450Y0151367D01*
X0490883Y0150800D01*
X0489749Y0150800D01*
X0489181Y0151367D01*
X0503050Y0145068D02*
X0506453Y0145068D01*
X0504751Y0143367D01*
X0504751Y0145635D01*
X0503050Y0141952D02*
X0503050Y0139684D01*
X0503050Y0140818D02*
X0506453Y0140818D01*
X0505319Y0139684D01*
X0505886Y0138269D02*
X0506453Y0137702D01*
X0506453Y0136568D01*
X0505886Y0136001D01*
X0503617Y0136001D01*
X0503050Y0136568D01*
X0503050Y0137702D01*
X0503617Y0138269D01*
X0517750Y0129750D02*
X0517750Y0123750D01*
X0517752Y0123690D01*
X0517757Y0123629D01*
X0517766Y0123570D01*
X0517779Y0123511D01*
X0517795Y0123452D01*
X0517815Y0123395D01*
X0517838Y0123340D01*
X0517865Y0123285D01*
X0517894Y0123233D01*
X0517927Y0123182D01*
X0517963Y0123133D01*
X0518001Y0123087D01*
X0518043Y0123043D01*
X0518087Y0123001D01*
X0518133Y0122963D01*
X0518182Y0122927D01*
X0518233Y0122894D01*
X0518285Y0122865D01*
X0518340Y0122838D01*
X0518395Y0122815D01*
X0518452Y0122795D01*
X0518511Y0122779D01*
X0518570Y0122766D01*
X0518629Y0122757D01*
X0518690Y0122752D01*
X0518750Y0122750D01*
X0529750Y0122750D01*
X0529810Y0122752D01*
X0529871Y0122757D01*
X0529930Y0122766D01*
X0529989Y0122779D01*
X0530048Y0122795D01*
X0530105Y0122815D01*
X0530160Y0122838D01*
X0530215Y0122865D01*
X0530267Y0122894D01*
X0530318Y0122927D01*
X0530367Y0122963D01*
X0530413Y0123001D01*
X0530457Y0123043D01*
X0530499Y0123087D01*
X0530537Y0123133D01*
X0530573Y0123182D01*
X0530606Y0123233D01*
X0530635Y0123285D01*
X0530662Y0123340D01*
X0530685Y0123395D01*
X0530705Y0123452D01*
X0530721Y0123511D01*
X0530734Y0123570D01*
X0530743Y0123629D01*
X0530748Y0123690D01*
X0530750Y0123750D01*
X0530750Y0129750D01*
X0530748Y0129810D01*
X0530743Y0129871D01*
X0530734Y0129930D01*
X0530721Y0129989D01*
X0530705Y0130048D01*
X0530685Y0130105D01*
X0530662Y0130160D01*
X0530635Y0130215D01*
X0530606Y0130267D01*
X0530573Y0130318D01*
X0530537Y0130367D01*
X0530499Y0130413D01*
X0530457Y0130457D01*
X0530413Y0130499D01*
X0530367Y0130537D01*
X0530318Y0130573D01*
X0530267Y0130606D01*
X0530215Y0130635D01*
X0530160Y0130662D01*
X0530105Y0130685D01*
X0530048Y0130705D01*
X0529989Y0130721D01*
X0529930Y0130734D01*
X0529871Y0130743D01*
X0529810Y0130748D01*
X0529750Y0130750D01*
X0518750Y0130750D01*
X0518690Y0130748D01*
X0518629Y0130743D01*
X0518570Y0130734D01*
X0518511Y0130721D01*
X0518452Y0130705D01*
X0518395Y0130685D01*
X0518340Y0130662D01*
X0518285Y0130635D01*
X0518233Y0130606D01*
X0518182Y0130573D01*
X0518133Y0130537D01*
X0518087Y0130499D01*
X0518043Y0130457D01*
X0518001Y0130413D01*
X0517963Y0130367D01*
X0517927Y0130318D01*
X0517894Y0130267D01*
X0517865Y0130215D01*
X0517838Y0130160D01*
X0517815Y0130105D01*
X0517795Y0130048D01*
X0517779Y0129989D01*
X0517766Y0129930D01*
X0517757Y0129871D01*
X0517752Y0129810D01*
X0517750Y0129750D01*
X0519432Y0121953D02*
X0518865Y0121386D01*
X0521133Y0119117D01*
X0520566Y0118550D01*
X0519432Y0118550D01*
X0518865Y0119117D01*
X0518865Y0121386D01*
X0519432Y0121953D02*
X0520566Y0121953D01*
X0521133Y0121386D01*
X0521133Y0119117D01*
X0522548Y0118550D02*
X0524816Y0118550D01*
X0523682Y0118550D02*
X0523682Y0121953D01*
X0524816Y0120819D01*
X0526231Y0121953D02*
X0527365Y0121953D01*
X0526798Y0121953D02*
X0526798Y0119117D01*
X0527365Y0118550D01*
X0527932Y0118550D01*
X0528499Y0119117D01*
X0529914Y0119117D02*
X0530481Y0118550D01*
X0531615Y0118550D01*
X0532183Y0119117D01*
X0531615Y0120251D02*
X0530481Y0120251D01*
X0529914Y0119684D01*
X0529914Y0119117D01*
X0531615Y0120251D02*
X0532183Y0120819D01*
X0532183Y0121386D01*
X0531615Y0121953D01*
X0530481Y0121953D01*
X0529914Y0121386D01*
X0488453Y0112568D02*
X0487886Y0113135D01*
X0485617Y0110867D01*
X0485050Y0111434D01*
X0485050Y0112568D01*
X0485617Y0113135D01*
X0487886Y0113135D01*
X0488453Y0112568D02*
X0488453Y0111434D01*
X0487886Y0110867D01*
X0485617Y0110867D01*
X0485617Y0109452D02*
X0485050Y0108885D01*
X0485050Y0107751D01*
X0485617Y0107184D01*
X0485050Y0105769D02*
X0486184Y0104635D01*
X0486184Y0105202D02*
X0486184Y0103501D01*
X0485050Y0103501D02*
X0488453Y0103501D01*
X0488453Y0105202D01*
X0487886Y0105769D01*
X0486751Y0105769D01*
X0486184Y0105202D01*
X0487886Y0107184D02*
X0488453Y0107751D01*
X0488453Y0108885D01*
X0487886Y0109452D01*
X0487319Y0109452D01*
X0486751Y0108885D01*
X0486184Y0109452D01*
X0485617Y0109452D01*
X0486751Y0108885D02*
X0486751Y0108318D01*
X0480203Y0107751D02*
X0479636Y0107184D01*
X0480203Y0107751D02*
X0480203Y0108885D01*
X0479636Y0109452D01*
X0479069Y0109452D01*
X0476800Y0107184D01*
X0476800Y0109452D01*
X0477367Y0110867D02*
X0476800Y0111434D01*
X0476800Y0112568D01*
X0477367Y0113135D01*
X0479636Y0113135D01*
X0480203Y0112568D01*
X0480203Y0111434D01*
X0479636Y0110867D01*
X0479069Y0110867D01*
X0478501Y0111434D01*
X0478501Y0113135D01*
X0478501Y0105769D02*
X0477934Y0105202D01*
X0477934Y0103501D01*
X0477934Y0104635D02*
X0476800Y0105769D01*
X0478501Y0105769D02*
X0479636Y0105769D01*
X0480203Y0105202D01*
X0480203Y0103501D01*
X0476800Y0103501D01*
X0484636Y0086900D02*
X0482367Y0084632D01*
X0481800Y0084632D01*
X0484636Y0083217D02*
X0482367Y0080948D01*
X0481800Y0080948D01*
X0481800Y0079534D02*
X0482934Y0078400D01*
X0482934Y0078967D02*
X0482934Y0077265D01*
X0481800Y0077265D02*
X0485203Y0077265D01*
X0485203Y0078967D01*
X0484636Y0079534D01*
X0483501Y0079534D01*
X0482934Y0078967D01*
X0485203Y0080948D02*
X0485203Y0083217D01*
X0484636Y0083217D01*
X0485203Y0084632D02*
X0485203Y0086900D01*
X0484636Y0086900D01*
X0489867Y0079203D02*
X0489300Y0078636D01*
X0489300Y0078069D01*
X0489867Y0077501D01*
X0489300Y0076934D01*
X0489300Y0076367D01*
X0489867Y0075800D01*
X0491002Y0075800D01*
X0491569Y0076367D01*
X0490435Y0077501D02*
X0489867Y0077501D01*
X0489867Y0079203D02*
X0491002Y0079203D01*
X0491569Y0078636D01*
X0492983Y0077501D02*
X0495252Y0077501D01*
X0493551Y0079203D01*
X0493551Y0075800D01*
X0496667Y0076367D02*
X0497234Y0075800D01*
X0498368Y0075800D01*
X0498935Y0076367D01*
X0498935Y0078636D01*
X0498368Y0079203D01*
X0497234Y0079203D01*
X0496667Y0078636D01*
X0501800Y0079504D02*
X0502934Y0078370D01*
X0502934Y0078937D02*
X0502934Y0077236D01*
X0501800Y0077236D02*
X0505203Y0077236D01*
X0505203Y0078937D01*
X0504636Y0079504D01*
X0503501Y0079504D01*
X0502934Y0078937D01*
X0502934Y0080919D02*
X0503501Y0081486D01*
X0503501Y0082620D01*
X0502934Y0083188D01*
X0502367Y0083188D01*
X0501800Y0082620D01*
X0501800Y0081486D01*
X0502367Y0080919D01*
X0502934Y0080919D01*
X0503501Y0081486D02*
X0504069Y0080919D01*
X0504636Y0080919D01*
X0505203Y0081486D01*
X0505203Y0082620D01*
X0504636Y0083188D01*
X0504069Y0083188D01*
X0503501Y0082620D01*
X0504636Y0084602D02*
X0505203Y0085169D01*
X0505203Y0086304D01*
X0504636Y0086871D01*
X0504069Y0086871D01*
X0501800Y0084602D01*
X0501800Y0086871D01*
X0509897Y0079203D02*
X0511598Y0077501D01*
X0509330Y0077501D01*
X0509897Y0075800D02*
X0509897Y0079203D01*
X0513013Y0077501D02*
X0515282Y0077501D01*
X0513580Y0079203D01*
X0513580Y0075800D01*
X0516696Y0076367D02*
X0517263Y0075800D01*
X0518398Y0075800D01*
X0518965Y0076367D01*
X0518965Y0078636D01*
X0518398Y0079203D01*
X0517263Y0079203D01*
X0516696Y0078636D01*
X0521800Y0079534D02*
X0522934Y0078400D01*
X0522934Y0078967D02*
X0522934Y0077265D01*
X0521800Y0077265D02*
X0525203Y0077265D01*
X0525203Y0078967D01*
X0524636Y0079534D01*
X0523501Y0079534D01*
X0522934Y0078967D01*
X0522934Y0080948D02*
X0523501Y0081516D01*
X0523501Y0082650D01*
X0522934Y0083217D01*
X0522367Y0083217D01*
X0521800Y0082650D01*
X0521800Y0081516D01*
X0522367Y0080948D01*
X0522934Y0080948D01*
X0523501Y0081516D02*
X0524069Y0080948D01*
X0524636Y0080948D01*
X0525203Y0081516D01*
X0525203Y0082650D01*
X0524636Y0083217D01*
X0524069Y0083217D01*
X0523501Y0082650D01*
X0522934Y0084632D02*
X0523501Y0085199D01*
X0523501Y0086333D01*
X0522934Y0086900D01*
X0522367Y0086900D01*
X0521800Y0086333D01*
X0521800Y0085199D01*
X0522367Y0084632D01*
X0522934Y0084632D01*
X0523501Y0085199D02*
X0524069Y0084632D01*
X0524636Y0084632D01*
X0525203Y0085199D01*
X0525203Y0086333D01*
X0524636Y0086900D01*
X0524069Y0086900D01*
X0523501Y0086333D01*
X0529300Y0079203D02*
X0531569Y0079203D01*
X0531569Y0077501D01*
X0530435Y0078069D01*
X0529867Y0078069D01*
X0529300Y0077501D01*
X0529300Y0076367D01*
X0529867Y0075800D01*
X0531002Y0075800D01*
X0531569Y0076367D01*
X0532983Y0077501D02*
X0535252Y0077501D01*
X0533551Y0079203D01*
X0533551Y0075800D01*
X0536667Y0076367D02*
X0537234Y0075800D01*
X0538368Y0075800D01*
X0538935Y0076367D01*
X0538935Y0078636D01*
X0538368Y0079203D01*
X0537234Y0079203D01*
X0536667Y0078636D01*
X0478965Y0078636D02*
X0478965Y0076367D01*
X0478398Y0075800D01*
X0477263Y0075800D01*
X0476696Y0076367D01*
X0475282Y0077501D02*
X0473013Y0077501D01*
X0473580Y0075800D02*
X0473580Y0079203D01*
X0475282Y0077501D01*
X0476696Y0078636D02*
X0477263Y0079203D01*
X0478398Y0079203D01*
X0478965Y0078636D01*
X0471598Y0078636D02*
X0471031Y0079203D01*
X0469897Y0079203D01*
X0469330Y0078636D01*
X0469330Y0078069D01*
X0471598Y0075800D01*
X0469330Y0075800D01*
X0465203Y0077236D02*
X0465203Y0078937D01*
X0464636Y0079504D01*
X0463501Y0079504D01*
X0462934Y0078937D01*
X0462934Y0077236D01*
X0461800Y0077236D02*
X0465203Y0077236D01*
X0462934Y0078370D02*
X0461800Y0079504D01*
X0461800Y0080919D02*
X0462367Y0080919D01*
X0464636Y0083188D01*
X0465203Y0083188D01*
X0465203Y0080919D01*
X0464636Y0084602D02*
X0465203Y0085169D01*
X0465203Y0086304D01*
X0464636Y0086871D01*
X0464069Y0086871D01*
X0463501Y0086304D01*
X0462934Y0086871D01*
X0462367Y0086871D01*
X0461800Y0086304D01*
X0461800Y0085169D01*
X0462367Y0084602D01*
X0463501Y0085736D02*
X0463501Y0086304D01*
X0417203Y0103501D02*
X0417203Y0105202D01*
X0416636Y0105769D01*
X0415501Y0105769D01*
X0414934Y0105202D01*
X0414934Y0103501D01*
X0414934Y0104635D02*
X0413800Y0105769D01*
X0415501Y0107184D02*
X0415501Y0109452D01*
X0413800Y0108885D02*
X0417203Y0108885D01*
X0415501Y0107184D01*
X0414367Y0110867D02*
X0413800Y0111434D01*
X0413800Y0112568D01*
X0414367Y0113135D01*
X0414934Y0113135D01*
X0415501Y0112568D01*
X0415501Y0112001D01*
X0415501Y0112568D02*
X0416069Y0113135D01*
X0416636Y0113135D01*
X0417203Y0112568D01*
X0417203Y0111434D01*
X0416636Y0110867D01*
X0408953Y0111434D02*
X0408386Y0110867D01*
X0408953Y0111434D02*
X0408953Y0112568D01*
X0408386Y0113135D01*
X0407819Y0113135D01*
X0405550Y0110867D01*
X0405550Y0113135D01*
X0407251Y0109452D02*
X0407251Y0107184D01*
X0408953Y0108885D01*
X0405550Y0108885D01*
X0405550Y0105769D02*
X0406684Y0104635D01*
X0406684Y0105202D02*
X0406684Y0103501D01*
X0405550Y0103501D02*
X0408953Y0103501D01*
X0408953Y0105202D01*
X0408386Y0105769D01*
X0407251Y0105769D01*
X0406684Y0105202D01*
X0413800Y0103501D02*
X0417203Y0103501D01*
X0388953Y0156001D02*
X0388953Y0157702D01*
X0388386Y0158269D01*
X0387251Y0158269D01*
X0386684Y0157702D01*
X0386684Y0156001D01*
X0386684Y0157135D02*
X0385550Y0158269D01*
X0387251Y0159684D02*
X0387251Y0161952D01*
X0387251Y0163367D02*
X0387251Y0165068D01*
X0386684Y0165635D01*
X0386117Y0165635D01*
X0385550Y0165068D01*
X0385550Y0163934D01*
X0386117Y0163367D01*
X0387251Y0163367D01*
X0388386Y0164501D01*
X0388953Y0165635D01*
X0388953Y0161385D02*
X0387251Y0159684D01*
X0385550Y0161385D02*
X0388953Y0161385D01*
X0388953Y0156001D02*
X0385550Y0156001D01*
X0372953Y0159550D02*
X0372953Y0161251D01*
X0372386Y0161819D01*
X0371251Y0161819D01*
X0370684Y0161251D01*
X0370684Y0159550D01*
X0369550Y0159550D02*
X0372953Y0159550D01*
X0370684Y0160684D02*
X0369550Y0161819D01*
X0370117Y0163233D02*
X0369550Y0163800D01*
X0369550Y0164935D01*
X0370117Y0165502D01*
X0370684Y0165502D01*
X0371251Y0164935D01*
X0371251Y0163233D01*
X0370117Y0163233D01*
X0371251Y0163233D02*
X0372386Y0164367D01*
X0372953Y0165502D01*
X0372953Y0166916D02*
X0372953Y0169185D01*
X0372386Y0169185D01*
X0370117Y0166916D01*
X0369550Y0166916D01*
X0346703Y0187050D02*
X0346703Y0188751D01*
X0346136Y0189319D01*
X0345001Y0189319D01*
X0344434Y0188751D01*
X0344434Y0187050D01*
X0343300Y0187050D02*
X0346703Y0187050D01*
X0344434Y0188184D02*
X0343300Y0189319D01*
X0343867Y0190733D02*
X0343300Y0191300D01*
X0343300Y0192435D01*
X0343867Y0193002D01*
X0344434Y0193002D01*
X0345001Y0192435D01*
X0345001Y0190733D01*
X0343867Y0190733D01*
X0345001Y0190733D02*
X0346136Y0191867D01*
X0346703Y0193002D01*
X0345001Y0194416D02*
X0345001Y0196118D01*
X0344434Y0196685D01*
X0343867Y0196685D01*
X0343300Y0196118D01*
X0343300Y0194983D01*
X0343867Y0194416D01*
X0345001Y0194416D01*
X0346136Y0195551D01*
X0346703Y0196685D01*
X0336703Y0196118D02*
X0336703Y0194983D01*
X0336136Y0194416D01*
X0336703Y0193002D02*
X0336136Y0191867D01*
X0335001Y0190733D01*
X0335001Y0192435D01*
X0334434Y0193002D01*
X0333867Y0193002D01*
X0333300Y0192435D01*
X0333300Y0191300D01*
X0333867Y0190733D01*
X0335001Y0190733D01*
X0335001Y0189319D02*
X0334434Y0188751D01*
X0334434Y0187050D01*
X0333300Y0187050D02*
X0336703Y0187050D01*
X0336703Y0188751D01*
X0336136Y0189319D01*
X0335001Y0189319D01*
X0334434Y0188184D02*
X0333300Y0189319D01*
X0333300Y0194416D02*
X0335569Y0196685D01*
X0336136Y0196685D01*
X0336703Y0196118D01*
X0333300Y0196685D02*
X0333300Y0194416D01*
X0284258Y0206688D02*
X0283691Y0206121D01*
X0281422Y0206121D01*
X0280855Y0206688D01*
X0280855Y0207822D01*
X0281422Y0208389D01*
X0281422Y0209804D02*
X0280855Y0210371D01*
X0280855Y0211505D01*
X0281422Y0212072D01*
X0281989Y0212072D01*
X0282557Y0211505D01*
X0282557Y0210938D01*
X0282557Y0211505D02*
X0283124Y0212072D01*
X0283691Y0212072D01*
X0284258Y0211505D01*
X0284258Y0210371D01*
X0283691Y0209804D01*
X0283691Y0208389D02*
X0284258Y0207822D01*
X0284258Y0206688D01*
X0276812Y0239605D02*
X0275678Y0239605D01*
X0275111Y0240172D01*
X0273696Y0240172D02*
X0271428Y0242441D01*
X0271428Y0243008D01*
X0273696Y0243008D01*
X0275111Y0242441D02*
X0275678Y0243008D01*
X0276812Y0243008D01*
X0277379Y0242441D01*
X0277379Y0240172D01*
X0276812Y0239605D01*
X0273696Y0239605D02*
X0273696Y0240172D01*
X0295495Y0244930D02*
X0295495Y0246064D01*
X0296062Y0246632D01*
X0296062Y0248046D02*
X0296629Y0248046D01*
X0297196Y0248613D01*
X0297196Y0249748D01*
X0296629Y0250315D01*
X0296062Y0250315D01*
X0295495Y0249748D01*
X0295495Y0248613D01*
X0296062Y0248046D01*
X0297196Y0248613D02*
X0297763Y0248046D01*
X0298331Y0248046D01*
X0298898Y0248613D01*
X0298898Y0249748D01*
X0298331Y0250315D01*
X0297763Y0250315D01*
X0297196Y0249748D01*
X0298331Y0246632D02*
X0298898Y0246064D01*
X0298898Y0244930D01*
X0298331Y0244363D01*
X0296062Y0244363D01*
X0295495Y0244930D01*
X0323252Y0256062D02*
X0323819Y0255495D01*
X0324954Y0255495D01*
X0325521Y0256062D01*
X0323252Y0258331D01*
X0323252Y0256062D01*
X0323252Y0258331D02*
X0323819Y0258898D01*
X0324954Y0258898D01*
X0325521Y0258331D01*
X0325521Y0256062D01*
X0326935Y0255495D02*
X0329204Y0255495D01*
X0328070Y0255495D02*
X0328070Y0258898D01*
X0329204Y0257763D01*
X0330618Y0258331D02*
X0331186Y0258898D01*
X0332320Y0258898D01*
X0332887Y0258331D01*
X0332887Y0256062D01*
X0332320Y0255495D01*
X0331186Y0255495D01*
X0330618Y0256062D01*
X0378304Y0235038D02*
X0378304Y0233903D01*
X0378871Y0233336D01*
X0381139Y0235605D01*
X0378871Y0235605D01*
X0378304Y0235038D01*
X0378871Y0233336D02*
X0381139Y0233336D01*
X0381707Y0233903D01*
X0381707Y0235038D01*
X0381139Y0235605D01*
X0381139Y0231922D02*
X0380572Y0231922D01*
X0380005Y0231354D01*
X0379438Y0231922D01*
X0378871Y0231922D01*
X0378304Y0231354D01*
X0378304Y0230220D01*
X0378871Y0229653D01*
X0378871Y0228238D02*
X0378304Y0227671D01*
X0378304Y0226537D01*
X0378871Y0225970D01*
X0381139Y0225970D01*
X0381707Y0226537D01*
X0381707Y0227671D01*
X0381139Y0228238D01*
X0381139Y0229653D02*
X0381707Y0230220D01*
X0381707Y0231354D01*
X0381139Y0231922D01*
X0380005Y0231354D02*
X0380005Y0230787D01*
X0412050Y0230733D02*
X0414319Y0233002D01*
X0414886Y0233002D01*
X0415453Y0232435D01*
X0415453Y0231300D01*
X0414886Y0230733D01*
X0414886Y0229319D02*
X0415453Y0228751D01*
X0415453Y0227617D01*
X0414886Y0227050D01*
X0412617Y0227050D01*
X0412050Y0227617D01*
X0412050Y0228751D01*
X0412617Y0229319D01*
X0412050Y0230733D02*
X0412050Y0233002D01*
X0412617Y0234416D02*
X0412050Y0234983D01*
X0412050Y0236118D01*
X0412617Y0236685D01*
X0414886Y0236685D01*
X0415453Y0236118D01*
X0415453Y0234983D01*
X0414886Y0234416D01*
X0414319Y0234416D01*
X0413751Y0234983D01*
X0413751Y0236685D01*
X0436815Y0234511D02*
X0437382Y0235078D01*
X0438517Y0235078D01*
X0439084Y0234511D01*
X0439084Y0233944D01*
X0438517Y0233376D01*
X0436815Y0233376D01*
X0436815Y0232242D02*
X0436815Y0234511D01*
X0436815Y0232242D02*
X0437382Y0231675D01*
X0438517Y0231675D01*
X0439084Y0232242D01*
X0440498Y0232242D02*
X0440498Y0232809D01*
X0441065Y0233376D01*
X0442767Y0233376D01*
X0442767Y0232242D01*
X0442200Y0231675D01*
X0441065Y0231675D01*
X0440498Y0232242D01*
X0442767Y0233376D02*
X0441633Y0234511D01*
X0440498Y0235078D01*
X0444181Y0234511D02*
X0444749Y0235078D01*
X0446450Y0235078D01*
X0446450Y0231675D01*
X0446450Y0232809D02*
X0444749Y0232809D01*
X0444181Y0233376D01*
X0444181Y0234511D01*
X0445316Y0232809D02*
X0444181Y0231675D01*
X0444749Y0222578D02*
X0444181Y0222011D01*
X0444181Y0220876D01*
X0444749Y0220309D01*
X0446450Y0220309D01*
X0446450Y0219175D02*
X0446450Y0222578D01*
X0444749Y0222578D01*
X0442767Y0222578D02*
X0440498Y0222578D01*
X0440498Y0222011D01*
X0442767Y0219742D01*
X0442767Y0219175D01*
X0444181Y0219175D02*
X0445316Y0220309D01*
X0439084Y0219742D02*
X0438517Y0219175D01*
X0437382Y0219175D01*
X0436815Y0219742D01*
X0436815Y0222011D01*
X0439084Y0219742D01*
X0439084Y0222011D01*
X0438517Y0222578D01*
X0437382Y0222578D01*
X0436815Y0222011D01*
X0437382Y0244175D02*
X0438517Y0244175D01*
X0439084Y0244742D01*
X0439084Y0245309D01*
X0438517Y0245876D01*
X0437382Y0245876D01*
X0436815Y0245309D01*
X0436815Y0244742D01*
X0437382Y0244175D01*
X0437382Y0245876D02*
X0436815Y0246444D01*
X0436815Y0247011D01*
X0437382Y0247578D01*
X0438517Y0247578D01*
X0439084Y0247011D01*
X0439084Y0246444D01*
X0438517Y0245876D01*
X0440498Y0245309D02*
X0441065Y0245876D01*
X0442767Y0245876D01*
X0442767Y0244742D01*
X0442200Y0244175D01*
X0441065Y0244175D01*
X0440498Y0244742D01*
X0440498Y0245309D01*
X0441633Y0247011D02*
X0442767Y0245876D01*
X0444181Y0245876D02*
X0444749Y0245309D01*
X0446450Y0245309D01*
X0446450Y0244175D02*
X0446450Y0247578D01*
X0444749Y0247578D01*
X0444181Y0247011D01*
X0444181Y0245876D01*
X0445316Y0245309D02*
X0444181Y0244175D01*
X0441633Y0247011D02*
X0440498Y0247578D01*
X0460365Y0254751D02*
X0462633Y0254751D01*
X0460932Y0256453D01*
X0460932Y0253050D01*
X0464048Y0253617D02*
X0464615Y0253050D01*
X0465749Y0253050D01*
X0466316Y0253617D01*
X0467731Y0253617D02*
X0468298Y0253050D01*
X0469432Y0253050D01*
X0469999Y0253617D01*
X0469999Y0255886D01*
X0469432Y0256453D01*
X0468298Y0256453D01*
X0467731Y0255886D01*
X0466316Y0255886D02*
X0465749Y0256453D01*
X0464615Y0256453D01*
X0464048Y0255886D01*
X0464048Y0255319D01*
X0464615Y0254751D01*
X0464048Y0254184D01*
X0464048Y0253617D01*
X0464615Y0254751D02*
X0465182Y0254751D01*
X0477865Y0255319D02*
X0477865Y0255886D01*
X0478432Y0256453D01*
X0479566Y0256453D01*
X0480133Y0255886D01*
X0481548Y0255886D02*
X0483816Y0253617D01*
X0483816Y0253050D01*
X0485231Y0253050D02*
X0486365Y0254184D01*
X0485798Y0254184D02*
X0487499Y0254184D01*
X0487499Y0253050D02*
X0487499Y0256453D01*
X0485798Y0256453D01*
X0485231Y0255886D01*
X0485231Y0254751D01*
X0485798Y0254184D01*
X0483816Y0256453D02*
X0481548Y0256453D01*
X0481548Y0255886D01*
X0480133Y0253050D02*
X0477865Y0253050D01*
X0480133Y0253050D02*
X0477865Y0255319D01*
X0477865Y0276800D02*
X0480133Y0276800D01*
X0478999Y0276800D02*
X0478999Y0280203D01*
X0480133Y0279069D01*
X0481548Y0279636D02*
X0483816Y0277367D01*
X0483816Y0276800D01*
X0485231Y0276800D02*
X0486365Y0277934D01*
X0485798Y0277934D02*
X0487499Y0277934D01*
X0487499Y0276800D02*
X0487499Y0280203D01*
X0485798Y0280203D01*
X0485231Y0279636D01*
X0485231Y0278501D01*
X0485798Y0277934D01*
X0483816Y0280203D02*
X0481548Y0280203D01*
X0481548Y0279636D01*
X0632850Y0280550D02*
X0635118Y0280550D01*
X0633984Y0280550D02*
X0633984Y0283953D01*
X0635118Y0282819D01*
X0636533Y0282819D02*
X0636533Y0283386D01*
X0637100Y0283953D01*
X0638234Y0283953D01*
X0638802Y0283386D01*
X0640216Y0283386D02*
X0640216Y0282251D01*
X0640783Y0281684D01*
X0642485Y0281684D01*
X0642485Y0280550D02*
X0642485Y0283953D01*
X0640783Y0283953D01*
X0640216Y0283386D01*
X0641350Y0281684D02*
X0640216Y0280550D01*
X0638802Y0280550D02*
X0636533Y0282819D01*
X0636533Y0280550D02*
X0638802Y0280550D01*
X0637667Y0275203D02*
X0637667Y0271800D01*
X0636533Y0271800D02*
X0638802Y0271800D01*
X0640216Y0271800D02*
X0641350Y0272934D01*
X0640783Y0272934D02*
X0642485Y0272934D01*
X0642485Y0271800D02*
X0642485Y0275203D01*
X0640783Y0275203D01*
X0640216Y0274636D01*
X0640216Y0273501D01*
X0640783Y0272934D01*
X0638802Y0274069D02*
X0637667Y0275203D01*
X0635118Y0274636D02*
X0635118Y0274069D01*
X0634551Y0273501D01*
X0633417Y0273501D01*
X0632850Y0272934D01*
X0632850Y0272367D01*
X0633417Y0271800D01*
X0634551Y0271800D01*
X0635118Y0272367D01*
X0635118Y0272934D01*
X0634551Y0273501D01*
X0633417Y0273501D02*
X0632850Y0274069D01*
X0632850Y0274636D01*
X0633417Y0275203D01*
X0634551Y0275203D01*
X0635118Y0274636D01*
X0636533Y0289300D02*
X0638802Y0289300D01*
X0636533Y0291569D01*
X0636533Y0292136D01*
X0637100Y0292703D01*
X0638234Y0292703D01*
X0638802Y0292136D01*
X0640216Y0292136D02*
X0640216Y0291001D01*
X0640783Y0290434D01*
X0642485Y0290434D01*
X0642485Y0289300D02*
X0642485Y0292703D01*
X0640783Y0292703D01*
X0640216Y0292136D01*
X0641350Y0290434D02*
X0640216Y0289300D01*
X0635118Y0291001D02*
X0633417Y0292703D01*
X0633417Y0289300D01*
X0632850Y0291001D02*
X0635118Y0291001D01*
X0667735Y0287250D02*
X0667735Y0276250D01*
X0667737Y0276190D01*
X0667742Y0276129D01*
X0667751Y0276070D01*
X0667764Y0276011D01*
X0667780Y0275952D01*
X0667800Y0275895D01*
X0667823Y0275840D01*
X0667850Y0275785D01*
X0667879Y0275733D01*
X0667912Y0275682D01*
X0667948Y0275633D01*
X0667986Y0275587D01*
X0668028Y0275543D01*
X0668072Y0275501D01*
X0668118Y0275463D01*
X0668167Y0275427D01*
X0668218Y0275394D01*
X0668270Y0275365D01*
X0668325Y0275338D01*
X0668380Y0275315D01*
X0668437Y0275295D01*
X0668496Y0275279D01*
X0668555Y0275266D01*
X0668614Y0275257D01*
X0668675Y0275252D01*
X0668735Y0275250D01*
X0674735Y0275250D01*
X0674795Y0275252D01*
X0674856Y0275257D01*
X0674915Y0275266D01*
X0674974Y0275279D01*
X0675033Y0275295D01*
X0675090Y0275315D01*
X0675145Y0275338D01*
X0675200Y0275365D01*
X0675252Y0275394D01*
X0675303Y0275427D01*
X0675352Y0275463D01*
X0675398Y0275501D01*
X0675442Y0275543D01*
X0675484Y0275587D01*
X0675522Y0275633D01*
X0675558Y0275682D01*
X0675591Y0275733D01*
X0675620Y0275785D01*
X0675647Y0275840D01*
X0675670Y0275895D01*
X0675690Y0275952D01*
X0675706Y0276011D01*
X0675719Y0276070D01*
X0675728Y0276129D01*
X0675733Y0276190D01*
X0675735Y0276250D01*
X0675735Y0287250D01*
X0675733Y0287310D01*
X0675728Y0287371D01*
X0675719Y0287430D01*
X0675706Y0287489D01*
X0675690Y0287548D01*
X0675670Y0287605D01*
X0675647Y0287660D01*
X0675620Y0287715D01*
X0675591Y0287767D01*
X0675558Y0287818D01*
X0675522Y0287867D01*
X0675484Y0287913D01*
X0675442Y0287957D01*
X0675398Y0287999D01*
X0675352Y0288037D01*
X0675303Y0288073D01*
X0675252Y0288106D01*
X0675200Y0288135D01*
X0675145Y0288162D01*
X0675090Y0288185D01*
X0675033Y0288205D01*
X0674974Y0288221D01*
X0674915Y0288234D01*
X0674856Y0288243D01*
X0674795Y0288248D01*
X0674735Y0288250D01*
X0668735Y0288250D01*
X0668675Y0288248D01*
X0668614Y0288243D01*
X0668555Y0288234D01*
X0668496Y0288221D01*
X0668437Y0288205D01*
X0668380Y0288185D01*
X0668325Y0288162D01*
X0668270Y0288135D01*
X0668218Y0288106D01*
X0668167Y0288073D01*
X0668118Y0288037D01*
X0668072Y0287999D01*
X0668028Y0287957D01*
X0667986Y0287913D01*
X0667948Y0287867D01*
X0667912Y0287818D01*
X0667879Y0287767D01*
X0667850Y0287715D01*
X0667823Y0287660D01*
X0667800Y0287605D01*
X0667780Y0287548D01*
X0667764Y0287489D01*
X0667751Y0287430D01*
X0667742Y0287371D01*
X0667737Y0287310D01*
X0667735Y0287250D01*
X0670315Y0289867D02*
X0670882Y0289300D01*
X0670315Y0289867D02*
X0670315Y0291001D01*
X0670882Y0291569D01*
X0671449Y0291569D01*
X0672016Y0291001D01*
X0672016Y0289867D01*
X0672583Y0289300D01*
X0673151Y0289300D01*
X0673718Y0289867D01*
X0673718Y0291001D01*
X0673151Y0291569D01*
X0673718Y0294117D02*
X0673718Y0295252D01*
X0673718Y0294685D02*
X0670882Y0294685D01*
X0670315Y0294117D01*
X0670315Y0293550D01*
X0670882Y0292983D01*
X0670882Y0296666D02*
X0670315Y0296666D01*
X0670882Y0296666D02*
X0673151Y0298935D01*
X0673718Y0298935D01*
X0673718Y0296666D01*
X0684550Y0297001D02*
X0686819Y0297001D01*
X0685117Y0298703D01*
X0685117Y0295300D01*
X0688801Y0295867D02*
X0688801Y0298703D01*
X0689368Y0298703D02*
X0688233Y0298703D01*
X0688801Y0295867D02*
X0689368Y0295300D01*
X0689935Y0295300D01*
X0690502Y0295867D01*
X0691917Y0295867D02*
X0692484Y0295300D01*
X0693618Y0295300D01*
X0694185Y0295867D01*
X0693618Y0297001D02*
X0692484Y0297001D01*
X0691917Y0296434D01*
X0691917Y0295867D01*
X0693618Y0297001D02*
X0694185Y0297569D01*
X0694185Y0298136D01*
X0693618Y0298703D01*
X0692484Y0298703D01*
X0691917Y0298136D01*
X0695235Y0299750D02*
X0695235Y0293750D01*
X0695237Y0293690D01*
X0695242Y0293629D01*
X0695251Y0293570D01*
X0695264Y0293511D01*
X0695280Y0293452D01*
X0695300Y0293395D01*
X0695323Y0293340D01*
X0695350Y0293285D01*
X0695379Y0293233D01*
X0695412Y0293182D01*
X0695448Y0293133D01*
X0695486Y0293087D01*
X0695528Y0293043D01*
X0695572Y0293001D01*
X0695618Y0292963D01*
X0695667Y0292927D01*
X0695718Y0292894D01*
X0695770Y0292865D01*
X0695825Y0292838D01*
X0695880Y0292815D01*
X0695937Y0292795D01*
X0695996Y0292779D01*
X0696055Y0292766D01*
X0696114Y0292757D01*
X0696175Y0292752D01*
X0696235Y0292750D01*
X0707235Y0292750D01*
X0707295Y0292752D01*
X0707356Y0292757D01*
X0707415Y0292766D01*
X0707474Y0292779D01*
X0707533Y0292795D01*
X0707590Y0292815D01*
X0707645Y0292838D01*
X0707700Y0292865D01*
X0707752Y0292894D01*
X0707803Y0292927D01*
X0707852Y0292963D01*
X0707898Y0293001D01*
X0707942Y0293043D01*
X0707984Y0293087D01*
X0708022Y0293133D01*
X0708058Y0293182D01*
X0708091Y0293233D01*
X0708120Y0293285D01*
X0708147Y0293340D01*
X0708170Y0293395D01*
X0708190Y0293452D01*
X0708206Y0293511D01*
X0708219Y0293570D01*
X0708228Y0293629D01*
X0708233Y0293690D01*
X0708235Y0293750D01*
X0708235Y0299750D01*
X0708233Y0299810D01*
X0708228Y0299871D01*
X0708219Y0299930D01*
X0708206Y0299989D01*
X0708190Y0300048D01*
X0708170Y0300105D01*
X0708147Y0300160D01*
X0708120Y0300215D01*
X0708091Y0300267D01*
X0708058Y0300318D01*
X0708022Y0300367D01*
X0707984Y0300413D01*
X0707942Y0300457D01*
X0707898Y0300499D01*
X0707852Y0300537D01*
X0707803Y0300573D01*
X0707752Y0300606D01*
X0707700Y0300635D01*
X0707645Y0300662D01*
X0707590Y0300685D01*
X0707533Y0300705D01*
X0707474Y0300721D01*
X0707415Y0300734D01*
X0707356Y0300743D01*
X0707295Y0300748D01*
X0707235Y0300750D01*
X0696235Y0300750D01*
X0696175Y0300748D01*
X0696114Y0300743D01*
X0696055Y0300734D01*
X0695996Y0300721D01*
X0695937Y0300705D01*
X0695880Y0300685D01*
X0695825Y0300662D01*
X0695770Y0300635D01*
X0695718Y0300606D01*
X0695667Y0300573D01*
X0695618Y0300537D01*
X0695572Y0300499D01*
X0695528Y0300457D01*
X0695486Y0300413D01*
X0695448Y0300367D01*
X0695412Y0300318D01*
X0695379Y0300267D01*
X0695350Y0300215D01*
X0695323Y0300160D01*
X0695300Y0300105D01*
X0695280Y0300048D01*
X0695264Y0299989D01*
X0695251Y0299930D01*
X0695242Y0299871D01*
X0695237Y0299810D01*
X0695235Y0299750D01*
X0719502Y0302995D02*
X0721771Y0302995D01*
X0720636Y0302995D02*
X0720636Y0306398D01*
X0721771Y0305263D01*
X0723185Y0302995D02*
X0725454Y0302995D01*
X0724320Y0302995D02*
X0724320Y0306398D01*
X0725454Y0305263D01*
X0726868Y0305831D02*
X0727436Y0306398D01*
X0728570Y0306398D01*
X0729137Y0305831D01*
X0729137Y0303562D01*
X0728570Y0302995D01*
X0727436Y0302995D01*
X0726868Y0303562D01*
X0718485Y0265750D02*
X0707485Y0265750D01*
X0707425Y0265748D01*
X0707364Y0265743D01*
X0707305Y0265734D01*
X0707246Y0265721D01*
X0707187Y0265705D01*
X0707130Y0265685D01*
X0707075Y0265662D01*
X0707020Y0265635D01*
X0706968Y0265606D01*
X0706917Y0265573D01*
X0706868Y0265537D01*
X0706822Y0265499D01*
X0706778Y0265457D01*
X0706736Y0265413D01*
X0706698Y0265367D01*
X0706662Y0265318D01*
X0706629Y0265267D01*
X0706600Y0265215D01*
X0706573Y0265160D01*
X0706550Y0265105D01*
X0706530Y0265048D01*
X0706514Y0264989D01*
X0706501Y0264930D01*
X0706492Y0264871D01*
X0706487Y0264810D01*
X0706485Y0264750D01*
X0706485Y0258750D01*
X0706487Y0258690D01*
X0706492Y0258629D01*
X0706501Y0258570D01*
X0706514Y0258511D01*
X0706530Y0258452D01*
X0706550Y0258395D01*
X0706573Y0258340D01*
X0706600Y0258285D01*
X0706629Y0258233D01*
X0706662Y0258182D01*
X0706698Y0258133D01*
X0706736Y0258087D01*
X0706778Y0258043D01*
X0706822Y0258001D01*
X0706868Y0257963D01*
X0706917Y0257927D01*
X0706968Y0257894D01*
X0707020Y0257865D01*
X0707075Y0257838D01*
X0707130Y0257815D01*
X0707187Y0257795D01*
X0707246Y0257779D01*
X0707305Y0257766D01*
X0707364Y0257757D01*
X0707425Y0257752D01*
X0707485Y0257750D01*
X0718485Y0257750D01*
X0718545Y0257752D01*
X0718606Y0257757D01*
X0718665Y0257766D01*
X0718724Y0257779D01*
X0718783Y0257795D01*
X0718840Y0257815D01*
X0718895Y0257838D01*
X0718950Y0257865D01*
X0719002Y0257894D01*
X0719053Y0257927D01*
X0719102Y0257963D01*
X0719148Y0258001D01*
X0719192Y0258043D01*
X0719234Y0258087D01*
X0719272Y0258133D01*
X0719308Y0258182D01*
X0719341Y0258233D01*
X0719370Y0258285D01*
X0719397Y0258340D01*
X0719420Y0258395D01*
X0719440Y0258452D01*
X0719456Y0258511D01*
X0719469Y0258570D01*
X0719478Y0258629D01*
X0719483Y0258690D01*
X0719485Y0258750D01*
X0719485Y0264750D01*
X0719483Y0264810D01*
X0719478Y0264871D01*
X0719469Y0264930D01*
X0719456Y0264989D01*
X0719440Y0265048D01*
X0719420Y0265105D01*
X0719397Y0265160D01*
X0719370Y0265215D01*
X0719341Y0265267D01*
X0719308Y0265318D01*
X0719272Y0265367D01*
X0719234Y0265413D01*
X0719192Y0265457D01*
X0719148Y0265499D01*
X0719102Y0265537D01*
X0719053Y0265573D01*
X0719002Y0265606D01*
X0718950Y0265635D01*
X0718895Y0265662D01*
X0718840Y0265685D01*
X0718783Y0265705D01*
X0718724Y0265721D01*
X0718665Y0265734D01*
X0718606Y0265743D01*
X0718545Y0265748D01*
X0718485Y0265750D01*
X0705435Y0263136D02*
X0705435Y0262569D01*
X0704868Y0262001D01*
X0703734Y0262001D01*
X0703167Y0261434D01*
X0703167Y0260867D01*
X0703734Y0260300D01*
X0704868Y0260300D01*
X0705435Y0260867D01*
X0705435Y0263136D02*
X0704868Y0263703D01*
X0703734Y0263703D01*
X0703167Y0263136D01*
X0700618Y0263703D02*
X0699483Y0263703D01*
X0700051Y0263703D02*
X0700051Y0260867D01*
X0700618Y0260300D01*
X0701185Y0260300D01*
X0701752Y0260867D01*
X0698069Y0260300D02*
X0695800Y0260300D01*
X0696935Y0260300D02*
X0696935Y0263703D01*
X0698069Y0262569D01*
X0696235Y0250750D02*
X0707235Y0250750D01*
X0707295Y0250748D01*
X0707356Y0250743D01*
X0707415Y0250734D01*
X0707474Y0250721D01*
X0707533Y0250705D01*
X0707590Y0250685D01*
X0707645Y0250662D01*
X0707700Y0250635D01*
X0707752Y0250606D01*
X0707803Y0250573D01*
X0707852Y0250537D01*
X0707898Y0250499D01*
X0707942Y0250457D01*
X0707984Y0250413D01*
X0708022Y0250367D01*
X0708058Y0250318D01*
X0708091Y0250267D01*
X0708120Y0250215D01*
X0708147Y0250160D01*
X0708170Y0250105D01*
X0708190Y0250048D01*
X0708206Y0249989D01*
X0708219Y0249930D01*
X0708228Y0249871D01*
X0708233Y0249810D01*
X0708235Y0249750D01*
X0708235Y0243750D01*
X0708233Y0243690D01*
X0708228Y0243629D01*
X0708219Y0243570D01*
X0708206Y0243511D01*
X0708190Y0243452D01*
X0708170Y0243395D01*
X0708147Y0243340D01*
X0708120Y0243285D01*
X0708091Y0243233D01*
X0708058Y0243182D01*
X0708022Y0243133D01*
X0707984Y0243087D01*
X0707942Y0243043D01*
X0707898Y0243001D01*
X0707852Y0242963D01*
X0707803Y0242927D01*
X0707752Y0242894D01*
X0707700Y0242865D01*
X0707645Y0242838D01*
X0707590Y0242815D01*
X0707533Y0242795D01*
X0707474Y0242779D01*
X0707415Y0242766D01*
X0707356Y0242757D01*
X0707295Y0242752D01*
X0707235Y0242750D01*
X0696235Y0242750D01*
X0696175Y0242752D01*
X0696114Y0242757D01*
X0696055Y0242766D01*
X0695996Y0242779D01*
X0695937Y0242795D01*
X0695880Y0242815D01*
X0695825Y0242838D01*
X0695770Y0242865D01*
X0695718Y0242894D01*
X0695667Y0242927D01*
X0695618Y0242963D01*
X0695572Y0243001D01*
X0695528Y0243043D01*
X0695486Y0243087D01*
X0695448Y0243133D01*
X0695412Y0243182D01*
X0695379Y0243233D01*
X0695350Y0243285D01*
X0695323Y0243340D01*
X0695300Y0243395D01*
X0695280Y0243452D01*
X0695264Y0243511D01*
X0695251Y0243570D01*
X0695242Y0243629D01*
X0695237Y0243690D01*
X0695235Y0243750D01*
X0695235Y0249750D01*
X0695237Y0249810D01*
X0695242Y0249871D01*
X0695251Y0249930D01*
X0695264Y0249989D01*
X0695280Y0250048D01*
X0695300Y0250105D01*
X0695323Y0250160D01*
X0695350Y0250215D01*
X0695379Y0250267D01*
X0695412Y0250318D01*
X0695448Y0250367D01*
X0695486Y0250413D01*
X0695528Y0250457D01*
X0695572Y0250499D01*
X0695618Y0250537D01*
X0695667Y0250573D01*
X0695718Y0250606D01*
X0695770Y0250635D01*
X0695825Y0250662D01*
X0695880Y0250685D01*
X0695937Y0250705D01*
X0695996Y0250721D01*
X0696055Y0250734D01*
X0696114Y0250743D01*
X0696175Y0250748D01*
X0696235Y0250750D01*
X0694185Y0248136D02*
X0694185Y0247569D01*
X0693618Y0247001D01*
X0692484Y0247001D01*
X0691917Y0246434D01*
X0691917Y0245867D01*
X0692484Y0245300D01*
X0693618Y0245300D01*
X0694185Y0245867D01*
X0694185Y0248136D02*
X0693618Y0248703D01*
X0692484Y0248703D01*
X0691917Y0248136D01*
X0689368Y0248703D02*
X0688233Y0248703D01*
X0688801Y0248703D02*
X0688801Y0245867D01*
X0689368Y0245300D01*
X0689935Y0245300D01*
X0690502Y0245867D01*
X0686819Y0245867D02*
X0686252Y0245300D01*
X0685117Y0245300D01*
X0684550Y0245867D01*
X0684550Y0247001D01*
X0685117Y0247569D01*
X0685685Y0247569D01*
X0686819Y0247001D01*
X0686819Y0248703D01*
X0684550Y0248703D01*
X0673718Y0243368D02*
X0673151Y0243935D01*
X0672583Y0243935D01*
X0672016Y0243368D01*
X0672016Y0242233D01*
X0672583Y0241666D01*
X0673151Y0241666D01*
X0673718Y0242233D01*
X0673718Y0243368D01*
X0672016Y0243368D02*
X0671449Y0243935D01*
X0670882Y0243935D01*
X0670315Y0243368D01*
X0670315Y0242233D01*
X0670882Y0241666D01*
X0671449Y0241666D01*
X0672016Y0242233D01*
X0673718Y0240252D02*
X0673718Y0239117D01*
X0673718Y0239685D02*
X0670882Y0239685D01*
X0670315Y0239117D01*
X0670315Y0238550D01*
X0670882Y0237983D01*
X0670882Y0236569D02*
X0670315Y0236001D01*
X0670315Y0234867D01*
X0670882Y0234300D01*
X0672016Y0234867D02*
X0672583Y0234300D01*
X0673151Y0234300D01*
X0673718Y0234867D01*
X0673718Y0236001D01*
X0673151Y0236569D01*
X0672016Y0236001D02*
X0671449Y0236569D01*
X0670882Y0236569D01*
X0672016Y0236001D02*
X0672016Y0234867D01*
X0674735Y0233250D02*
X0668735Y0233250D01*
X0668675Y0233248D01*
X0668614Y0233243D01*
X0668555Y0233234D01*
X0668496Y0233221D01*
X0668437Y0233205D01*
X0668380Y0233185D01*
X0668325Y0233162D01*
X0668270Y0233135D01*
X0668218Y0233106D01*
X0668167Y0233073D01*
X0668118Y0233037D01*
X0668072Y0232999D01*
X0668028Y0232957D01*
X0667986Y0232913D01*
X0667948Y0232867D01*
X0667912Y0232818D01*
X0667879Y0232767D01*
X0667850Y0232715D01*
X0667823Y0232660D01*
X0667800Y0232605D01*
X0667780Y0232548D01*
X0667764Y0232489D01*
X0667751Y0232430D01*
X0667742Y0232371D01*
X0667737Y0232310D01*
X0667735Y0232250D01*
X0667735Y0221250D01*
X0667737Y0221190D01*
X0667742Y0221129D01*
X0667751Y0221070D01*
X0667764Y0221011D01*
X0667780Y0220952D01*
X0667800Y0220895D01*
X0667823Y0220840D01*
X0667850Y0220785D01*
X0667879Y0220733D01*
X0667912Y0220682D01*
X0667948Y0220633D01*
X0667986Y0220587D01*
X0668028Y0220543D01*
X0668072Y0220501D01*
X0668118Y0220463D01*
X0668167Y0220427D01*
X0668218Y0220394D01*
X0668270Y0220365D01*
X0668325Y0220338D01*
X0668380Y0220315D01*
X0668437Y0220295D01*
X0668496Y0220279D01*
X0668555Y0220266D01*
X0668614Y0220257D01*
X0668675Y0220252D01*
X0668735Y0220250D01*
X0674735Y0220250D01*
X0674795Y0220252D01*
X0674856Y0220257D01*
X0674915Y0220266D01*
X0674974Y0220279D01*
X0675033Y0220295D01*
X0675090Y0220315D01*
X0675145Y0220338D01*
X0675200Y0220365D01*
X0675252Y0220394D01*
X0675303Y0220427D01*
X0675352Y0220463D01*
X0675398Y0220501D01*
X0675442Y0220543D01*
X0675484Y0220587D01*
X0675522Y0220633D01*
X0675558Y0220682D01*
X0675591Y0220733D01*
X0675620Y0220785D01*
X0675647Y0220840D01*
X0675670Y0220895D01*
X0675690Y0220952D01*
X0675706Y0221011D01*
X0675719Y0221070D01*
X0675728Y0221129D01*
X0675733Y0221190D01*
X0675735Y0221250D01*
X0675735Y0232250D01*
X0675733Y0232310D01*
X0675728Y0232371D01*
X0675719Y0232430D01*
X0675706Y0232489D01*
X0675690Y0232548D01*
X0675670Y0232605D01*
X0675647Y0232660D01*
X0675620Y0232715D01*
X0675591Y0232767D01*
X0675558Y0232818D01*
X0675522Y0232867D01*
X0675484Y0232913D01*
X0675442Y0232957D01*
X0675398Y0232999D01*
X0675352Y0233037D01*
X0675303Y0233073D01*
X0675252Y0233106D01*
X0675200Y0233135D01*
X0675145Y0233162D01*
X0675090Y0233185D01*
X0675033Y0233205D01*
X0674974Y0233221D01*
X0674915Y0233234D01*
X0674856Y0233243D01*
X0674795Y0233248D01*
X0674735Y0233250D01*
X0642485Y0234300D02*
X0642485Y0237703D01*
X0640783Y0237703D01*
X0640216Y0237136D01*
X0640216Y0236001D01*
X0640783Y0235434D01*
X0642485Y0235434D01*
X0641350Y0235434D02*
X0640216Y0234300D01*
X0638802Y0234300D02*
X0636533Y0236569D01*
X0636533Y0237136D01*
X0637100Y0237703D01*
X0638234Y0237703D01*
X0638802Y0237136D01*
X0638802Y0234300D02*
X0636533Y0234300D01*
X0635118Y0234867D02*
X0634551Y0234300D01*
X0633417Y0234300D01*
X0632850Y0234867D01*
X0632850Y0236001D01*
X0633417Y0236569D01*
X0633984Y0236569D01*
X0635118Y0236001D01*
X0635118Y0237703D01*
X0632850Y0237703D01*
X0633417Y0228953D02*
X0634551Y0228953D01*
X0635118Y0228386D01*
X0636533Y0228386D02*
X0637100Y0228953D01*
X0638234Y0228953D01*
X0638802Y0228386D01*
X0640216Y0228386D02*
X0640216Y0227251D01*
X0640783Y0226684D01*
X0642485Y0226684D01*
X0642485Y0225550D02*
X0642485Y0228953D01*
X0640783Y0228953D01*
X0640216Y0228386D01*
X0641350Y0226684D02*
X0640216Y0225550D01*
X0638802Y0225550D02*
X0636533Y0227819D01*
X0636533Y0228386D01*
X0636533Y0225550D02*
X0638802Y0225550D01*
X0635118Y0225550D02*
X0632850Y0227819D01*
X0632850Y0228386D01*
X0633417Y0228953D01*
X0632850Y0225550D02*
X0635118Y0225550D01*
X0634551Y0220203D02*
X0635118Y0219636D01*
X0635118Y0219069D01*
X0634551Y0218501D01*
X0632850Y0218501D01*
X0632850Y0217367D02*
X0632850Y0219636D01*
X0633417Y0220203D01*
X0634551Y0220203D01*
X0635118Y0217367D02*
X0634551Y0216800D01*
X0633417Y0216800D01*
X0632850Y0217367D01*
X0636533Y0216800D02*
X0638802Y0216800D01*
X0637667Y0216800D02*
X0637667Y0220203D01*
X0638802Y0219069D01*
X0640216Y0219636D02*
X0640216Y0218501D01*
X0640783Y0217934D01*
X0642485Y0217934D01*
X0642485Y0216800D02*
X0642485Y0220203D01*
X0640783Y0220203D01*
X0640216Y0219636D01*
X0641350Y0217934D02*
X0640216Y0216800D01*
X0684550Y0193703D02*
X0685685Y0193136D01*
X0686819Y0192001D01*
X0685117Y0192001D01*
X0684550Y0191434D01*
X0684550Y0190867D01*
X0685117Y0190300D01*
X0686252Y0190300D01*
X0686819Y0190867D01*
X0686819Y0192001D01*
X0688233Y0193703D02*
X0689368Y0193703D01*
X0688801Y0193703D02*
X0688801Y0190867D01*
X0689368Y0190300D01*
X0689935Y0190300D01*
X0690502Y0190867D01*
X0691917Y0190867D02*
X0692484Y0190300D01*
X0693618Y0190300D01*
X0694185Y0190867D01*
X0693618Y0192001D02*
X0692484Y0192001D01*
X0691917Y0191434D01*
X0691917Y0190867D01*
X0693618Y0192001D02*
X0694185Y0192569D01*
X0694185Y0193136D01*
X0693618Y0193703D01*
X0692484Y0193703D01*
X0691917Y0193136D01*
X0695235Y0194750D02*
X0695235Y0188750D01*
X0695237Y0188690D01*
X0695242Y0188629D01*
X0695251Y0188570D01*
X0695264Y0188511D01*
X0695280Y0188452D01*
X0695300Y0188395D01*
X0695323Y0188340D01*
X0695350Y0188285D01*
X0695379Y0188233D01*
X0695412Y0188182D01*
X0695448Y0188133D01*
X0695486Y0188087D01*
X0695528Y0188043D01*
X0695572Y0188001D01*
X0695618Y0187963D01*
X0695667Y0187927D01*
X0695718Y0187894D01*
X0695770Y0187865D01*
X0695825Y0187838D01*
X0695880Y0187815D01*
X0695937Y0187795D01*
X0695996Y0187779D01*
X0696055Y0187766D01*
X0696114Y0187757D01*
X0696175Y0187752D01*
X0696235Y0187750D01*
X0707235Y0187750D01*
X0707295Y0187752D01*
X0707356Y0187757D01*
X0707415Y0187766D01*
X0707474Y0187779D01*
X0707533Y0187795D01*
X0707590Y0187815D01*
X0707645Y0187838D01*
X0707700Y0187865D01*
X0707752Y0187894D01*
X0707803Y0187927D01*
X0707852Y0187963D01*
X0707898Y0188001D01*
X0707942Y0188043D01*
X0707984Y0188087D01*
X0708022Y0188133D01*
X0708058Y0188182D01*
X0708091Y0188233D01*
X0708120Y0188285D01*
X0708147Y0188340D01*
X0708170Y0188395D01*
X0708190Y0188452D01*
X0708206Y0188511D01*
X0708219Y0188570D01*
X0708228Y0188629D01*
X0708233Y0188690D01*
X0708235Y0188750D01*
X0708235Y0194750D01*
X0708233Y0194810D01*
X0708228Y0194871D01*
X0708219Y0194930D01*
X0708206Y0194989D01*
X0708190Y0195048D01*
X0708170Y0195105D01*
X0708147Y0195160D01*
X0708120Y0195215D01*
X0708091Y0195267D01*
X0708058Y0195318D01*
X0708022Y0195367D01*
X0707984Y0195413D01*
X0707942Y0195457D01*
X0707898Y0195499D01*
X0707852Y0195537D01*
X0707803Y0195573D01*
X0707752Y0195606D01*
X0707700Y0195635D01*
X0707645Y0195662D01*
X0707590Y0195685D01*
X0707533Y0195705D01*
X0707474Y0195721D01*
X0707415Y0195734D01*
X0707356Y0195743D01*
X0707295Y0195748D01*
X0707235Y0195750D01*
X0696235Y0195750D01*
X0696175Y0195748D01*
X0696114Y0195743D01*
X0696055Y0195734D01*
X0695996Y0195721D01*
X0695937Y0195705D01*
X0695880Y0195685D01*
X0695825Y0195662D01*
X0695770Y0195635D01*
X0695718Y0195606D01*
X0695667Y0195573D01*
X0695618Y0195537D01*
X0695572Y0195499D01*
X0695528Y0195457D01*
X0695486Y0195413D01*
X0695448Y0195367D01*
X0695412Y0195318D01*
X0695379Y0195267D01*
X0695350Y0195215D01*
X0695323Y0195160D01*
X0695300Y0195105D01*
X0695280Y0195048D01*
X0695264Y0194989D01*
X0695251Y0194930D01*
X0695242Y0194871D01*
X0695237Y0194810D01*
X0695235Y0194750D01*
X0706485Y0203750D02*
X0706485Y0209750D01*
X0706487Y0209810D01*
X0706492Y0209871D01*
X0706501Y0209930D01*
X0706514Y0209989D01*
X0706530Y0210048D01*
X0706550Y0210105D01*
X0706573Y0210160D01*
X0706600Y0210215D01*
X0706629Y0210267D01*
X0706662Y0210318D01*
X0706698Y0210367D01*
X0706736Y0210413D01*
X0706778Y0210457D01*
X0706822Y0210499D01*
X0706868Y0210537D01*
X0706917Y0210573D01*
X0706968Y0210606D01*
X0707020Y0210635D01*
X0707075Y0210662D01*
X0707130Y0210685D01*
X0707187Y0210705D01*
X0707246Y0210721D01*
X0707305Y0210734D01*
X0707364Y0210743D01*
X0707425Y0210748D01*
X0707485Y0210750D01*
X0718485Y0210750D01*
X0718545Y0210748D01*
X0718606Y0210743D01*
X0718665Y0210734D01*
X0718724Y0210721D01*
X0718783Y0210705D01*
X0718840Y0210685D01*
X0718895Y0210662D01*
X0718950Y0210635D01*
X0719002Y0210606D01*
X0719053Y0210573D01*
X0719102Y0210537D01*
X0719148Y0210499D01*
X0719192Y0210457D01*
X0719234Y0210413D01*
X0719272Y0210367D01*
X0719308Y0210318D01*
X0719341Y0210267D01*
X0719370Y0210215D01*
X0719397Y0210160D01*
X0719420Y0210105D01*
X0719440Y0210048D01*
X0719456Y0209989D01*
X0719469Y0209930D01*
X0719478Y0209871D01*
X0719483Y0209810D01*
X0719485Y0209750D01*
X0719485Y0203750D01*
X0719483Y0203690D01*
X0719478Y0203629D01*
X0719469Y0203570D01*
X0719456Y0203511D01*
X0719440Y0203452D01*
X0719420Y0203395D01*
X0719397Y0203340D01*
X0719370Y0203285D01*
X0719341Y0203233D01*
X0719308Y0203182D01*
X0719272Y0203133D01*
X0719234Y0203087D01*
X0719192Y0203043D01*
X0719148Y0203001D01*
X0719102Y0202963D01*
X0719053Y0202927D01*
X0719002Y0202894D01*
X0718950Y0202865D01*
X0718895Y0202838D01*
X0718840Y0202815D01*
X0718783Y0202795D01*
X0718724Y0202779D01*
X0718665Y0202766D01*
X0718606Y0202757D01*
X0718545Y0202752D01*
X0718485Y0202750D01*
X0707485Y0202750D01*
X0707425Y0202752D01*
X0707364Y0202757D01*
X0707305Y0202766D01*
X0707246Y0202779D01*
X0707187Y0202795D01*
X0707130Y0202815D01*
X0707075Y0202838D01*
X0707020Y0202865D01*
X0706968Y0202894D01*
X0706917Y0202927D01*
X0706868Y0202963D01*
X0706822Y0203001D01*
X0706778Y0203043D01*
X0706736Y0203087D01*
X0706698Y0203133D01*
X0706662Y0203182D01*
X0706629Y0203233D01*
X0706600Y0203285D01*
X0706573Y0203340D01*
X0706550Y0203395D01*
X0706530Y0203452D01*
X0706514Y0203511D01*
X0706501Y0203570D01*
X0706492Y0203629D01*
X0706487Y0203690D01*
X0706485Y0203750D01*
X0704868Y0205300D02*
X0703734Y0205300D01*
X0703167Y0205867D01*
X0703167Y0206434D01*
X0703734Y0207001D01*
X0704868Y0207001D01*
X0705435Y0207569D01*
X0705435Y0208136D01*
X0704868Y0208703D01*
X0703734Y0208703D01*
X0703167Y0208136D01*
X0700618Y0208703D02*
X0699483Y0208703D01*
X0700051Y0208703D02*
X0700051Y0205867D01*
X0700618Y0205300D01*
X0701185Y0205300D01*
X0701752Y0205867D01*
X0704868Y0205300D02*
X0705435Y0205867D01*
X0698069Y0205300D02*
X0695800Y0207569D01*
X0695800Y0208136D01*
X0696367Y0208703D01*
X0697502Y0208703D01*
X0698069Y0208136D01*
X0698069Y0205300D02*
X0695800Y0205300D01*
X0719502Y0195831D02*
X0719502Y0195263D01*
X0720069Y0194696D01*
X0719502Y0194129D01*
X0719502Y0193562D01*
X0720069Y0192995D01*
X0721204Y0192995D01*
X0721771Y0193562D01*
X0723185Y0192995D02*
X0725454Y0192995D01*
X0724320Y0192995D02*
X0724320Y0196398D01*
X0725454Y0195263D01*
X0726868Y0195831D02*
X0727436Y0196398D01*
X0728570Y0196398D01*
X0729137Y0195831D01*
X0729137Y0193562D01*
X0728570Y0192995D01*
X0727436Y0192995D01*
X0726868Y0193562D01*
X0721771Y0195831D02*
X0721204Y0196398D01*
X0720069Y0196398D01*
X0719502Y0195831D01*
X0720069Y0194696D02*
X0720636Y0194696D01*
X0730350Y0204867D02*
X0730917Y0204300D01*
X0732051Y0204300D01*
X0732618Y0204867D01*
X0732618Y0205434D01*
X0732051Y0206001D01*
X0730917Y0206001D01*
X0730350Y0205434D01*
X0730350Y0204867D01*
X0730917Y0206001D02*
X0730350Y0206569D01*
X0730350Y0207136D01*
X0730917Y0207703D01*
X0732051Y0207703D01*
X0732618Y0207136D01*
X0732618Y0206569D01*
X0732051Y0206001D01*
X0734033Y0206569D02*
X0736302Y0204300D01*
X0734033Y0204300D01*
X0734033Y0206569D02*
X0734033Y0207136D01*
X0734600Y0207703D01*
X0735734Y0207703D01*
X0736302Y0207136D01*
X0737716Y0207136D02*
X0737716Y0206001D01*
X0738283Y0205434D01*
X0739985Y0205434D01*
X0739985Y0204300D02*
X0739985Y0207703D01*
X0738283Y0207703D01*
X0737716Y0207136D01*
X0738850Y0205434D02*
X0737716Y0204300D01*
X0737917Y0227050D02*
X0739051Y0228184D01*
X0738484Y0228184D02*
X0740185Y0228184D01*
X0740185Y0227050D02*
X0740185Y0230453D01*
X0738484Y0230453D01*
X0737917Y0229886D01*
X0737917Y0228751D01*
X0738484Y0228184D01*
X0736502Y0227050D02*
X0734233Y0229319D01*
X0734233Y0229886D01*
X0734801Y0230453D01*
X0735935Y0230453D01*
X0736502Y0229886D01*
X0736502Y0227050D02*
X0734233Y0227050D01*
X0732819Y0227050D02*
X0732819Y0227617D01*
X0730550Y0229886D01*
X0730550Y0230453D01*
X0732819Y0230453D01*
X0728570Y0247995D02*
X0727436Y0247995D01*
X0726868Y0248562D01*
X0725454Y0247995D02*
X0723185Y0247995D01*
X0724320Y0247995D02*
X0724320Y0251398D01*
X0725454Y0250263D01*
X0726868Y0250831D02*
X0727436Y0251398D01*
X0728570Y0251398D01*
X0729137Y0250831D01*
X0729137Y0248562D01*
X0728570Y0247995D01*
X0721771Y0247995D02*
X0719502Y0250263D01*
X0719502Y0250831D01*
X0720069Y0251398D01*
X0721204Y0251398D01*
X0721771Y0250831D01*
X0721771Y0247995D02*
X0719502Y0247995D01*
X0673151Y0188935D02*
X0673718Y0188368D01*
X0673718Y0187233D01*
X0673151Y0186666D01*
X0672583Y0186666D01*
X0672016Y0187233D01*
X0672016Y0188935D01*
X0670882Y0188935D02*
X0673151Y0188935D01*
X0670882Y0188935D02*
X0670315Y0188368D01*
X0670315Y0187233D01*
X0670882Y0186666D01*
X0670882Y0184685D02*
X0673718Y0184685D01*
X0673718Y0185252D02*
X0673718Y0184117D01*
X0673151Y0181569D02*
X0673718Y0181001D01*
X0673718Y0179867D01*
X0673151Y0179300D01*
X0672583Y0179300D01*
X0672016Y0179867D01*
X0672016Y0181001D01*
X0671449Y0181569D01*
X0670882Y0181569D01*
X0670315Y0181001D01*
X0670315Y0179867D01*
X0670882Y0179300D01*
X0668735Y0178250D02*
X0674735Y0178250D01*
X0674795Y0178248D01*
X0674856Y0178243D01*
X0674915Y0178234D01*
X0674974Y0178221D01*
X0675033Y0178205D01*
X0675090Y0178185D01*
X0675145Y0178162D01*
X0675200Y0178135D01*
X0675252Y0178106D01*
X0675303Y0178073D01*
X0675352Y0178037D01*
X0675398Y0177999D01*
X0675442Y0177957D01*
X0675484Y0177913D01*
X0675522Y0177867D01*
X0675558Y0177818D01*
X0675591Y0177767D01*
X0675620Y0177715D01*
X0675647Y0177660D01*
X0675670Y0177605D01*
X0675690Y0177548D01*
X0675706Y0177489D01*
X0675719Y0177430D01*
X0675728Y0177371D01*
X0675733Y0177310D01*
X0675735Y0177250D01*
X0675735Y0166250D01*
X0675733Y0166190D01*
X0675728Y0166129D01*
X0675719Y0166070D01*
X0675706Y0166011D01*
X0675690Y0165952D01*
X0675670Y0165895D01*
X0675647Y0165840D01*
X0675620Y0165785D01*
X0675591Y0165733D01*
X0675558Y0165682D01*
X0675522Y0165633D01*
X0675484Y0165587D01*
X0675442Y0165543D01*
X0675398Y0165501D01*
X0675352Y0165463D01*
X0675303Y0165427D01*
X0675252Y0165394D01*
X0675200Y0165365D01*
X0675145Y0165338D01*
X0675090Y0165315D01*
X0675033Y0165295D01*
X0674974Y0165279D01*
X0674915Y0165266D01*
X0674856Y0165257D01*
X0674795Y0165252D01*
X0674735Y0165250D01*
X0668735Y0165250D01*
X0668675Y0165252D01*
X0668614Y0165257D01*
X0668555Y0165266D01*
X0668496Y0165279D01*
X0668437Y0165295D01*
X0668380Y0165315D01*
X0668325Y0165338D01*
X0668270Y0165365D01*
X0668218Y0165394D01*
X0668167Y0165427D01*
X0668118Y0165463D01*
X0668072Y0165501D01*
X0668028Y0165543D01*
X0667986Y0165587D01*
X0667948Y0165633D01*
X0667912Y0165682D01*
X0667879Y0165733D01*
X0667850Y0165785D01*
X0667823Y0165840D01*
X0667800Y0165895D01*
X0667780Y0165952D01*
X0667764Y0166011D01*
X0667751Y0166070D01*
X0667742Y0166129D01*
X0667737Y0166190D01*
X0667735Y0166250D01*
X0667735Y0177250D01*
X0667737Y0177310D01*
X0667742Y0177371D01*
X0667751Y0177430D01*
X0667764Y0177489D01*
X0667780Y0177548D01*
X0667800Y0177605D01*
X0667823Y0177660D01*
X0667850Y0177715D01*
X0667879Y0177767D01*
X0667912Y0177818D01*
X0667948Y0177867D01*
X0667986Y0177913D01*
X0668028Y0177957D01*
X0668072Y0177999D01*
X0668118Y0178037D01*
X0668167Y0178073D01*
X0668218Y0178106D01*
X0668270Y0178135D01*
X0668325Y0178162D01*
X0668380Y0178185D01*
X0668437Y0178205D01*
X0668496Y0178221D01*
X0668555Y0178234D01*
X0668614Y0178243D01*
X0668675Y0178248D01*
X0668735Y0178250D01*
X0670882Y0182983D02*
X0670315Y0183550D01*
X0670315Y0184117D01*
X0670882Y0184685D01*
X0642485Y0182703D02*
X0642485Y0179300D01*
X0642485Y0180434D02*
X0640783Y0180434D01*
X0640216Y0181001D01*
X0640216Y0182136D01*
X0640783Y0182703D01*
X0642485Y0182703D01*
X0641350Y0180434D02*
X0640216Y0179300D01*
X0638802Y0179300D02*
X0636533Y0181569D01*
X0636533Y0182136D01*
X0637100Y0182703D01*
X0638234Y0182703D01*
X0638802Y0182136D01*
X0638802Y0179300D02*
X0636533Y0179300D01*
X0635118Y0179867D02*
X0634551Y0179300D01*
X0633417Y0179300D01*
X0632850Y0179867D01*
X0632850Y0180434D01*
X0633417Y0181001D01*
X0635118Y0181001D01*
X0635118Y0179867D01*
X0635118Y0181001D02*
X0633984Y0182136D01*
X0632850Y0182703D01*
X0633417Y0173953D02*
X0632850Y0173386D01*
X0632850Y0172819D01*
X0633417Y0172251D01*
X0632850Y0171684D01*
X0632850Y0171117D01*
X0633417Y0170550D01*
X0634551Y0170550D01*
X0635118Y0171117D01*
X0636533Y0170550D02*
X0638802Y0170550D01*
X0636533Y0172819D01*
X0636533Y0173386D01*
X0637100Y0173953D01*
X0638234Y0173953D01*
X0638802Y0173386D01*
X0640216Y0173386D02*
X0640216Y0172251D01*
X0640783Y0171684D01*
X0642485Y0171684D01*
X0642485Y0170550D02*
X0642485Y0173953D01*
X0640783Y0173953D01*
X0640216Y0173386D01*
X0641350Y0171684D02*
X0640216Y0170550D01*
X0635118Y0173386D02*
X0634551Y0173953D01*
X0633417Y0173953D01*
X0633417Y0172251D02*
X0633984Y0172251D01*
X0633417Y0165203D02*
X0632850Y0164636D01*
X0635118Y0162367D01*
X0634551Y0161800D01*
X0633417Y0161800D01*
X0632850Y0162367D01*
X0632850Y0164636D01*
X0633417Y0165203D02*
X0634551Y0165203D01*
X0635118Y0164636D01*
X0635118Y0162367D01*
X0636533Y0161800D02*
X0638802Y0161800D01*
X0636533Y0164069D01*
X0636533Y0164636D01*
X0637100Y0165203D01*
X0638234Y0165203D01*
X0638802Y0164636D01*
X0640216Y0164636D02*
X0640216Y0163501D01*
X0640783Y0162934D01*
X0642485Y0162934D01*
X0642485Y0161800D02*
X0642485Y0165203D01*
X0640783Y0165203D01*
X0640216Y0164636D01*
X0641350Y0162934D02*
X0640216Y0161800D01*
X0695800Y0153136D02*
X0695800Y0152569D01*
X0696367Y0152001D01*
X0695800Y0151434D01*
X0695800Y0150867D01*
X0696367Y0150300D01*
X0697502Y0150300D01*
X0698069Y0150867D01*
X0696935Y0152001D02*
X0696367Y0152001D01*
X0695800Y0153136D02*
X0696367Y0153703D01*
X0697502Y0153703D01*
X0698069Y0153136D01*
X0699483Y0153703D02*
X0700618Y0153703D01*
X0700051Y0153703D02*
X0700051Y0150867D01*
X0700618Y0150300D01*
X0701185Y0150300D01*
X0701752Y0150867D01*
X0703167Y0150867D02*
X0703734Y0150300D01*
X0704868Y0150300D01*
X0705435Y0150867D01*
X0704868Y0152001D02*
X0703734Y0152001D01*
X0703167Y0151434D01*
X0703167Y0150867D01*
X0704868Y0152001D02*
X0705435Y0152569D01*
X0705435Y0153136D01*
X0704868Y0153703D01*
X0703734Y0153703D01*
X0703167Y0153136D01*
X0706485Y0154750D02*
X0706485Y0148750D01*
X0706487Y0148690D01*
X0706492Y0148629D01*
X0706501Y0148570D01*
X0706514Y0148511D01*
X0706530Y0148452D01*
X0706550Y0148395D01*
X0706573Y0148340D01*
X0706600Y0148285D01*
X0706629Y0148233D01*
X0706662Y0148182D01*
X0706698Y0148133D01*
X0706736Y0148087D01*
X0706778Y0148043D01*
X0706822Y0148001D01*
X0706868Y0147963D01*
X0706917Y0147927D01*
X0706968Y0147894D01*
X0707020Y0147865D01*
X0707075Y0147838D01*
X0707130Y0147815D01*
X0707187Y0147795D01*
X0707246Y0147779D01*
X0707305Y0147766D01*
X0707364Y0147757D01*
X0707425Y0147752D01*
X0707485Y0147750D01*
X0718485Y0147750D01*
X0718545Y0147752D01*
X0718606Y0147757D01*
X0718665Y0147766D01*
X0718724Y0147779D01*
X0718783Y0147795D01*
X0718840Y0147815D01*
X0718895Y0147838D01*
X0718950Y0147865D01*
X0719002Y0147894D01*
X0719053Y0147927D01*
X0719102Y0147963D01*
X0719148Y0148001D01*
X0719192Y0148043D01*
X0719234Y0148087D01*
X0719272Y0148133D01*
X0719308Y0148182D01*
X0719341Y0148233D01*
X0719370Y0148285D01*
X0719397Y0148340D01*
X0719420Y0148395D01*
X0719440Y0148452D01*
X0719456Y0148511D01*
X0719469Y0148570D01*
X0719478Y0148629D01*
X0719483Y0148690D01*
X0719485Y0148750D01*
X0719485Y0154750D01*
X0719483Y0154810D01*
X0719478Y0154871D01*
X0719469Y0154930D01*
X0719456Y0154989D01*
X0719440Y0155048D01*
X0719420Y0155105D01*
X0719397Y0155160D01*
X0719370Y0155215D01*
X0719341Y0155267D01*
X0719308Y0155318D01*
X0719272Y0155367D01*
X0719234Y0155413D01*
X0719192Y0155457D01*
X0719148Y0155499D01*
X0719102Y0155537D01*
X0719053Y0155573D01*
X0719002Y0155606D01*
X0718950Y0155635D01*
X0718895Y0155662D01*
X0718840Y0155685D01*
X0718783Y0155705D01*
X0718724Y0155721D01*
X0718665Y0155734D01*
X0718606Y0155743D01*
X0718545Y0155748D01*
X0718485Y0155750D01*
X0707485Y0155750D01*
X0707425Y0155748D01*
X0707364Y0155743D01*
X0707305Y0155734D01*
X0707246Y0155721D01*
X0707187Y0155705D01*
X0707130Y0155685D01*
X0707075Y0155662D01*
X0707020Y0155635D01*
X0706968Y0155606D01*
X0706917Y0155573D01*
X0706868Y0155537D01*
X0706822Y0155499D01*
X0706778Y0155457D01*
X0706736Y0155413D01*
X0706698Y0155367D01*
X0706662Y0155318D01*
X0706629Y0155267D01*
X0706600Y0155215D01*
X0706573Y0155160D01*
X0706550Y0155105D01*
X0706530Y0155048D01*
X0706514Y0154989D01*
X0706501Y0154930D01*
X0706492Y0154871D01*
X0706487Y0154810D01*
X0706485Y0154750D01*
X0708315Y0129185D02*
X0708315Y0126916D01*
X0708315Y0128051D02*
X0711718Y0128051D01*
X0710583Y0126916D01*
X0708315Y0125502D02*
X0708315Y0123233D01*
X0708315Y0124367D02*
X0711718Y0124367D01*
X0710583Y0123233D01*
X0710016Y0121819D02*
X0709449Y0121251D01*
X0709449Y0119550D01*
X0708315Y0119550D02*
X0711718Y0119550D01*
X0711718Y0121251D01*
X0711151Y0121819D01*
X0710016Y0121819D01*
X0709449Y0120684D02*
X0708315Y0121819D01*
X0691331Y0122703D02*
X0691331Y0119300D01*
X0691331Y0120434D02*
X0689630Y0120434D01*
X0689062Y0121001D01*
X0689062Y0122136D01*
X0689630Y0122703D01*
X0691331Y0122703D01*
X0690197Y0120434D02*
X0689062Y0119300D01*
X0687648Y0119300D02*
X0687648Y0119867D01*
X0685379Y0122136D01*
X0685379Y0122703D01*
X0687648Y0122703D01*
X0665468Y0121251D02*
X0665468Y0119550D01*
X0662065Y0119550D01*
X0663199Y0119550D02*
X0663199Y0121251D01*
X0663766Y0121819D01*
X0664901Y0121819D01*
X0665468Y0121251D01*
X0664333Y0123233D02*
X0665468Y0124367D01*
X0662065Y0124367D01*
X0662065Y0123233D02*
X0662065Y0125502D01*
X0662632Y0126916D02*
X0662065Y0127483D01*
X0662065Y0128618D01*
X0662632Y0129185D01*
X0663199Y0129185D01*
X0663766Y0128618D01*
X0663766Y0126916D01*
X0662632Y0126916D01*
X0663766Y0126916D02*
X0664901Y0128051D01*
X0665468Y0129185D01*
X0662065Y0121819D02*
X0663199Y0120684D01*
X0647514Y0120434D02*
X0645813Y0120434D01*
X0645246Y0121001D01*
X0645246Y0122136D01*
X0645813Y0122703D01*
X0647514Y0122703D01*
X0647514Y0119300D01*
X0646380Y0120434D02*
X0645246Y0119300D01*
X0643831Y0119300D02*
X0641562Y0119300D01*
X0642697Y0119300D02*
X0642697Y0122703D01*
X0643831Y0121569D01*
X0640148Y0121001D02*
X0638446Y0122703D01*
X0638446Y0119300D01*
X0637879Y0121001D02*
X0640148Y0121001D01*
X0641600Y0091453D02*
X0643868Y0091453D01*
X0643868Y0089751D01*
X0642734Y0090319D01*
X0642167Y0090319D01*
X0641600Y0089751D01*
X0641600Y0088617D01*
X0642167Y0088050D01*
X0643301Y0088050D01*
X0643868Y0088617D01*
X0645283Y0088050D02*
X0647552Y0088050D01*
X0646417Y0088050D02*
X0646417Y0091453D01*
X0647552Y0090319D01*
X0648966Y0090886D02*
X0648966Y0089751D01*
X0649533Y0089184D01*
X0651235Y0089184D01*
X0651235Y0088050D02*
X0651235Y0091453D01*
X0649533Y0091453D01*
X0648966Y0090886D01*
X0650100Y0089184D02*
X0648966Y0088050D01*
X0660350Y0090886D02*
X0662618Y0088617D01*
X0662618Y0088050D01*
X0664033Y0088050D02*
X0666302Y0088050D01*
X0665167Y0088050D02*
X0665167Y0091453D01*
X0666302Y0090319D01*
X0667716Y0090886D02*
X0667716Y0089751D01*
X0668283Y0089184D01*
X0669985Y0089184D01*
X0669985Y0088050D02*
X0669985Y0091453D01*
X0668283Y0091453D01*
X0667716Y0090886D01*
X0668850Y0089184D02*
X0667716Y0088050D01*
X0662618Y0091453D02*
X0660350Y0091453D01*
X0660350Y0090886D01*
X0687850Y0090886D02*
X0687850Y0088617D01*
X0688417Y0088050D01*
X0689551Y0088050D01*
X0690118Y0088617D01*
X0689551Y0089751D02*
X0687850Y0089751D01*
X0687850Y0090886D02*
X0688417Y0091453D01*
X0689551Y0091453D01*
X0690118Y0090886D01*
X0690118Y0090319D01*
X0689551Y0089751D01*
X0691533Y0089751D02*
X0692100Y0089184D01*
X0693802Y0089184D01*
X0693802Y0088050D02*
X0693802Y0091453D01*
X0692100Y0091453D01*
X0691533Y0090886D01*
X0691533Y0089751D01*
X0692667Y0089184D02*
X0691533Y0088050D01*
X0706600Y0088617D02*
X0707167Y0088050D01*
X0708301Y0088050D01*
X0708868Y0088617D01*
X0710283Y0088050D02*
X0712552Y0088050D01*
X0711417Y0088050D02*
X0711417Y0091453D01*
X0712552Y0090319D01*
X0713966Y0090886D02*
X0713966Y0089751D01*
X0714533Y0089184D01*
X0716235Y0089184D01*
X0716235Y0088050D02*
X0716235Y0091453D01*
X0714533Y0091453D01*
X0713966Y0090886D01*
X0715100Y0089184D02*
X0713966Y0088050D01*
X0708868Y0090886D02*
X0708301Y0091453D01*
X0707167Y0091453D01*
X0706600Y0090886D01*
X0706600Y0090319D01*
X0707167Y0089751D01*
X0706600Y0089184D01*
X0706600Y0088617D01*
X0707167Y0089751D02*
X0707734Y0089751D01*
X0734100Y0089184D02*
X0734100Y0088617D01*
X0734667Y0088050D01*
X0735801Y0088050D01*
X0736368Y0088617D01*
X0736368Y0089184D01*
X0735801Y0089751D01*
X0734667Y0089751D01*
X0734100Y0089184D01*
X0734667Y0089751D02*
X0734100Y0090319D01*
X0734100Y0090886D01*
X0734667Y0091453D01*
X0735801Y0091453D01*
X0736368Y0090886D01*
X0736368Y0090319D01*
X0735801Y0089751D01*
X0737783Y0089751D02*
X0738350Y0089184D01*
X0740052Y0089184D01*
X0740052Y0088050D02*
X0740052Y0091453D01*
X0738350Y0091453D01*
X0737783Y0090886D01*
X0737783Y0089751D01*
X0738917Y0089184D02*
X0737783Y0088050D01*
X0752850Y0088050D02*
X0755118Y0088050D01*
X0752850Y0090319D01*
X0752850Y0090886D01*
X0753417Y0091453D01*
X0754551Y0091453D01*
X0755118Y0090886D01*
X0757667Y0091453D02*
X0757667Y0088050D01*
X0756533Y0088050D02*
X0758802Y0088050D01*
X0760216Y0088050D02*
X0761350Y0089184D01*
X0760783Y0089184D02*
X0762485Y0089184D01*
X0762485Y0088050D02*
X0762485Y0091453D01*
X0760783Y0091453D01*
X0760216Y0090886D01*
X0760216Y0089751D01*
X0760783Y0089184D01*
X0758802Y0090319D02*
X0757667Y0091453D01*
X0757968Y0119550D02*
X0757968Y0121251D01*
X0757401Y0121819D01*
X0756266Y0121819D01*
X0755699Y0121251D01*
X0755699Y0119550D01*
X0754565Y0119550D02*
X0757968Y0119550D01*
X0755699Y0120684D02*
X0754565Y0121819D01*
X0754565Y0123233D02*
X0754565Y0125502D01*
X0754565Y0124367D02*
X0757968Y0124367D01*
X0756833Y0123233D01*
X0757401Y0126916D02*
X0757968Y0127483D01*
X0757968Y0128618D01*
X0757401Y0129185D01*
X0755132Y0126916D01*
X0754565Y0127483D01*
X0754565Y0128618D01*
X0755132Y0129185D01*
X0757401Y0129185D01*
X0757401Y0126916D02*
X0755132Y0126916D01*
X0737581Y0122703D02*
X0737581Y0119300D01*
X0737581Y0120434D02*
X0735880Y0120434D01*
X0735312Y0121001D01*
X0735312Y0122136D01*
X0735880Y0122703D01*
X0737581Y0122703D01*
X0736447Y0120434D02*
X0735312Y0119300D01*
X0733898Y0119867D02*
X0733331Y0119300D01*
X0732196Y0119300D01*
X0731629Y0119867D01*
X0731629Y0120434D01*
X0732196Y0121001D01*
X0733898Y0121001D01*
X0733898Y0119867D01*
X0733898Y0121001D02*
X0732764Y0122136D01*
X0731629Y0122703D01*
X0645185Y0059203D02*
X0643484Y0059203D01*
X0642917Y0058636D01*
X0642917Y0057501D01*
X0643484Y0056934D01*
X0645185Y0056934D01*
X0645185Y0055800D02*
X0645185Y0059203D01*
X0644051Y0056934D02*
X0642917Y0055800D01*
X0641502Y0056367D02*
X0641502Y0056934D01*
X0640935Y0057501D01*
X0639801Y0057501D01*
X0639233Y0056934D01*
X0639233Y0056367D01*
X0639801Y0055800D01*
X0640935Y0055800D01*
X0641502Y0056367D01*
X0640935Y0057501D02*
X0641502Y0058069D01*
X0641502Y0058636D01*
X0640935Y0059203D01*
X0639801Y0059203D01*
X0639233Y0058636D01*
X0639233Y0058069D01*
X0639801Y0057501D01*
X0637819Y0058069D02*
X0637252Y0057501D01*
X0635550Y0057501D01*
X0635550Y0056367D02*
X0635550Y0058636D01*
X0636117Y0059203D01*
X0637252Y0059203D01*
X0637819Y0058636D01*
X0637819Y0058069D01*
X0637819Y0056367D02*
X0637252Y0055800D01*
X0636117Y0055800D01*
X0635550Y0056367D01*
X0656457Y0045762D02*
X0658864Y0043356D01*
X0657259Y0044158D02*
X0658864Y0045762D01*
X0656457Y0045762D01*
X0659062Y0047564D02*
X0659463Y0047163D01*
X0660265Y0047163D01*
X0661067Y0047965D01*
X0661067Y0048768D01*
X0660666Y0049169D01*
X0659864Y0049169D01*
X0659062Y0048366D01*
X0659062Y0047564D01*
X0660265Y0047163D02*
X0660265Y0046361D01*
X0660666Y0045960D01*
X0661468Y0045960D01*
X0662270Y0046762D01*
X0662270Y0047564D01*
X0661869Y0047965D01*
X0661067Y0047965D01*
X0662468Y0049367D02*
X0663270Y0049367D01*
X0664473Y0050570D01*
X0663671Y0049768D02*
X0663671Y0048164D01*
X0662468Y0049367D02*
X0661666Y0050169D01*
X0661666Y0050971D01*
X0662869Y0052174D01*
X0665275Y0049768D01*
X0669027Y0045617D02*
X0669829Y0045617D01*
X0670230Y0045216D01*
X0670230Y0044414D01*
X0669027Y0043211D01*
X0669829Y0042409D02*
X0668225Y0044013D01*
X0668225Y0044815D01*
X0669027Y0045617D01*
X0670428Y0047019D02*
X0670830Y0046618D01*
X0674038Y0046618D01*
X0674439Y0046217D01*
X0675439Y0047217D02*
X0675439Y0048821D01*
X0675038Y0048420D02*
X0676241Y0049623D01*
X0677043Y0048821D02*
X0674637Y0051227D01*
X0673434Y0050024D01*
X0673434Y0049222D01*
X0674236Y0048420D01*
X0675038Y0048420D01*
X0672033Y0048623D02*
X0670428Y0047019D01*
X0671433Y0044013D02*
X0671433Y0043211D01*
X0670631Y0042409D01*
X0669829Y0042409D01*
X0680359Y0044664D02*
X0682765Y0044664D01*
X0681161Y0043060D01*
X0682765Y0042258D02*
X0680359Y0044664D01*
X0682562Y0046867D02*
X0682963Y0046466D01*
X0686172Y0046466D01*
X0686573Y0046065D01*
X0687573Y0047065D02*
X0687573Y0048669D01*
X0687172Y0048268D02*
X0688375Y0049471D01*
X0689177Y0048669D02*
X0686771Y0051076D01*
X0685568Y0049873D01*
X0685568Y0049070D01*
X0686370Y0048268D01*
X0687172Y0048268D01*
X0684167Y0048471D02*
X0682562Y0046867D01*
X0460203Y0156001D02*
X0456800Y0156001D01*
X0457934Y0156001D02*
X0457934Y0157702D01*
X0458501Y0158269D01*
X0459636Y0158269D01*
X0460203Y0157702D01*
X0460203Y0156001D01*
X0457934Y0157135D02*
X0456800Y0158269D01*
X0457367Y0159684D02*
X0456800Y0160251D01*
X0456800Y0161385D01*
X0457367Y0161952D01*
X0457934Y0161952D01*
X0458501Y0161385D01*
X0458501Y0160818D01*
X0458501Y0161385D02*
X0459069Y0161952D01*
X0459636Y0161952D01*
X0460203Y0161385D01*
X0460203Y0160251D01*
X0459636Y0159684D01*
X0459636Y0163367D02*
X0460203Y0163934D01*
X0460203Y0165068D01*
X0459636Y0165635D01*
X0459069Y0165635D01*
X0458501Y0165068D01*
X0457934Y0165635D01*
X0457367Y0165635D01*
X0456800Y0165068D01*
X0456800Y0163934D01*
X0457367Y0163367D01*
X0458501Y0164501D02*
X0458501Y0165068D01*
X0444203Y0165502D02*
X0444203Y0163233D01*
X0442501Y0163233D01*
X0443069Y0164367D01*
X0443069Y0164935D01*
X0442501Y0165502D01*
X0441367Y0165502D01*
X0440800Y0164935D01*
X0440800Y0163800D01*
X0441367Y0163233D01*
X0440800Y0161819D02*
X0441934Y0160684D01*
X0441934Y0161251D02*
X0441934Y0159550D01*
X0440800Y0159550D02*
X0444203Y0159550D01*
X0444203Y0161251D01*
X0443636Y0161819D01*
X0442501Y0161819D01*
X0441934Y0161251D01*
X0442501Y0166916D02*
X0442501Y0169185D01*
X0440800Y0168618D02*
X0444203Y0168618D01*
X0442501Y0166916D01*
X0417953Y0187050D02*
X0417953Y0188751D01*
X0417386Y0189319D01*
X0416251Y0189319D01*
X0415684Y0188751D01*
X0415684Y0187050D01*
X0414550Y0187050D02*
X0417953Y0187050D01*
X0415684Y0188184D02*
X0414550Y0189319D01*
X0415117Y0190733D02*
X0414550Y0191300D01*
X0414550Y0192435D01*
X0415117Y0193002D01*
X0416251Y0193002D01*
X0416819Y0192435D01*
X0416819Y0191867D01*
X0416251Y0190733D01*
X0417953Y0190733D01*
X0417953Y0193002D01*
X0417386Y0194416D02*
X0417953Y0194983D01*
X0417953Y0196118D01*
X0417386Y0196685D01*
X0416819Y0196685D01*
X0416251Y0196118D01*
X0415684Y0196685D01*
X0415117Y0196685D01*
X0414550Y0196118D01*
X0414550Y0194983D01*
X0415117Y0194416D01*
X0416251Y0195551D02*
X0416251Y0196118D01*
X0407953Y0196118D02*
X0407953Y0194983D01*
X0407386Y0194416D01*
X0406819Y0194416D01*
X0406251Y0194983D01*
X0406251Y0196685D01*
X0405117Y0196685D02*
X0407386Y0196685D01*
X0407953Y0196118D01*
X0405117Y0196685D02*
X0404550Y0196118D01*
X0404550Y0194983D01*
X0405117Y0194416D01*
X0406251Y0193002D02*
X0406251Y0190733D01*
X0407953Y0192435D01*
X0404550Y0192435D01*
X0404550Y0189319D02*
X0405684Y0188184D01*
X0405684Y0188751D02*
X0405684Y0187050D01*
X0404550Y0187050D02*
X0407953Y0187050D01*
X0407953Y0188751D01*
X0407386Y0189319D01*
X0406251Y0189319D01*
X0405684Y0188751D01*
X0475800Y0189319D02*
X0476934Y0188184D01*
X0476934Y0188751D02*
X0476934Y0187050D01*
X0475800Y0187050D02*
X0479203Y0187050D01*
X0479203Y0188751D01*
X0478636Y0189319D01*
X0477501Y0189319D01*
X0476934Y0188751D01*
X0476367Y0190733D02*
X0475800Y0191300D01*
X0475800Y0192435D01*
X0476367Y0193002D01*
X0476934Y0193002D01*
X0477501Y0192435D01*
X0477501Y0191867D01*
X0477501Y0192435D02*
X0478069Y0193002D01*
X0478636Y0193002D01*
X0479203Y0192435D01*
X0479203Y0191300D01*
X0478636Y0190733D01*
X0477501Y0194416D02*
X0477501Y0196118D01*
X0476934Y0196685D01*
X0476367Y0196685D01*
X0475800Y0196118D01*
X0475800Y0194983D01*
X0476367Y0194416D01*
X0477501Y0194416D01*
X0478636Y0195551D01*
X0479203Y0196685D01*
X0485800Y0196118D02*
X0485800Y0194983D01*
X0486367Y0194416D01*
X0488636Y0196685D01*
X0486367Y0196685D01*
X0485800Y0196118D01*
X0486367Y0194416D02*
X0488636Y0194416D01*
X0489203Y0194983D01*
X0489203Y0196118D01*
X0488636Y0196685D01*
X0487501Y0193002D02*
X0487501Y0190733D01*
X0489203Y0192435D01*
X0485800Y0192435D01*
X0485800Y0189319D02*
X0486934Y0188184D01*
X0486934Y0188751D02*
X0486934Y0187050D01*
X0485800Y0187050D02*
X0489203Y0187050D01*
X0489203Y0188751D01*
X0488636Y0189319D01*
X0487501Y0189319D01*
X0486934Y0188751D01*
X0512050Y0169185D02*
X0512050Y0166916D01*
X0512050Y0168051D02*
X0515453Y0168051D01*
X0514319Y0166916D01*
X0513751Y0165502D02*
X0513751Y0163233D01*
X0515453Y0164935D01*
X0512050Y0164935D01*
X0512050Y0161819D02*
X0513184Y0160684D01*
X0513184Y0161251D02*
X0513184Y0159550D01*
X0512050Y0159550D02*
X0515453Y0159550D01*
X0515453Y0161251D01*
X0514886Y0161819D01*
X0513751Y0161819D01*
X0513184Y0161251D01*
X0317953Y0160733D02*
X0316251Y0160733D01*
X0316819Y0161867D01*
X0316819Y0162435D01*
X0316251Y0163002D01*
X0315117Y0163002D01*
X0314550Y0162435D01*
X0314550Y0161300D01*
X0315117Y0160733D01*
X0314550Y0159319D02*
X0315684Y0158184D01*
X0315684Y0158751D02*
X0315684Y0157050D01*
X0314550Y0157050D02*
X0317953Y0157050D01*
X0317953Y0158751D01*
X0317386Y0159319D01*
X0316251Y0159319D01*
X0315684Y0158751D01*
X0317953Y0160733D02*
X0317953Y0163002D01*
X0317386Y0164416D02*
X0316819Y0164416D01*
X0316251Y0164983D01*
X0316251Y0166685D01*
X0315117Y0166685D02*
X0317386Y0166685D01*
X0317953Y0166118D01*
X0317953Y0164983D01*
X0317386Y0164416D01*
X0315117Y0164416D02*
X0314550Y0164983D01*
X0314550Y0166118D01*
X0315117Y0166685D01*
X0197566Y0155203D02*
X0197566Y0151800D01*
X0197566Y0152934D02*
X0195865Y0152934D01*
X0195298Y0153501D01*
X0195298Y0154636D01*
X0195865Y0155203D01*
X0197566Y0155203D01*
X0196432Y0152934D02*
X0195298Y0151800D01*
X0193883Y0151800D02*
X0191615Y0151800D01*
X0192749Y0151800D02*
X0192749Y0155203D01*
X0193883Y0154069D01*
X0192798Y0164300D02*
X0193932Y0165434D01*
X0193365Y0165434D02*
X0195066Y0165434D01*
X0195066Y0164300D02*
X0195066Y0167703D01*
X0193365Y0167703D01*
X0192798Y0167136D01*
X0192798Y0166001D01*
X0193365Y0165434D01*
X0191383Y0164867D02*
X0190816Y0164300D01*
X0189682Y0164300D01*
X0189115Y0164867D01*
X0189115Y0165434D01*
X0189682Y0166001D01*
X0190249Y0166001D01*
X0189682Y0166001D02*
X0189115Y0166569D01*
X0189115Y0167136D01*
X0189682Y0167703D01*
X0190816Y0167703D01*
X0191383Y0167136D01*
X0191383Y0176800D02*
X0189115Y0179069D01*
X0189115Y0179636D01*
X0189682Y0180203D01*
X0190816Y0180203D01*
X0191383Y0179636D01*
X0192798Y0179636D02*
X0192798Y0178501D01*
X0193365Y0177934D01*
X0195066Y0177934D01*
X0193932Y0177934D02*
X0192798Y0176800D01*
X0191383Y0176800D02*
X0189115Y0176800D01*
X0192798Y0179636D02*
X0193365Y0180203D01*
X0195066Y0180203D01*
X0195066Y0176800D01*
X0195066Y0189300D02*
X0195066Y0192703D01*
X0193365Y0192703D01*
X0192798Y0192136D01*
X0192798Y0191001D01*
X0193365Y0190434D01*
X0195066Y0190434D01*
X0193932Y0190434D02*
X0192798Y0189300D01*
X0191383Y0191001D02*
X0189115Y0191001D01*
X0189682Y0189300D02*
X0189682Y0192703D01*
X0191383Y0191001D01*
X0190816Y0201800D02*
X0191383Y0202367D01*
X0190816Y0201800D02*
X0189682Y0201800D01*
X0189115Y0202367D01*
X0189115Y0203501D01*
X0189682Y0204069D01*
X0190249Y0204069D01*
X0191383Y0203501D01*
X0191383Y0205203D01*
X0189115Y0205203D01*
X0192798Y0204636D02*
X0192798Y0203501D01*
X0193365Y0202934D01*
X0195066Y0202934D01*
X0193932Y0202934D02*
X0192798Y0201800D01*
X0195066Y0201800D02*
X0195066Y0205203D01*
X0193365Y0205203D01*
X0192798Y0204636D01*
X0272502Y0290495D02*
X0273637Y0290495D01*
X0274204Y0291062D01*
X0274204Y0292196D02*
X0273070Y0292763D01*
X0272502Y0292763D01*
X0271935Y0292196D01*
X0271935Y0291062D01*
X0272502Y0290495D01*
X0274204Y0292196D02*
X0274204Y0293898D01*
X0271935Y0293898D01*
X0275618Y0293331D02*
X0276186Y0293898D01*
X0277320Y0293898D01*
X0277887Y0293331D01*
X0277887Y0291062D01*
X0277320Y0290495D01*
X0276186Y0290495D01*
X0275618Y0291062D01*
X0293752Y0300495D02*
X0293752Y0303898D01*
X0295454Y0302196D01*
X0293185Y0302196D01*
X0296868Y0301062D02*
X0297436Y0300495D01*
X0298570Y0300495D01*
X0299137Y0301062D01*
X0299137Y0303331D01*
X0298570Y0303898D01*
X0297436Y0303898D01*
X0296868Y0303331D01*
M02*
