G75*
%MOIN*%
%OFA0B0*%
%FSLAX25Y25*%
%IPPOS*%
%LPD*%
%AMOC8*
5,1,8,0,0,1.08239X$1,22.5*
%
%ADD10R,0.23200X0.07100*%
%ADD11R,0.05918X0.06706*%
%ADD12C,0.10800*%
%ADD13C,0.02160*%
%ADD14C,0.08600*%
%ADD15R,0.06706X0.06706*%
%ADD16OC8,0.10800*%
%ADD17C,0.06000*%
%ADD18R,0.06706X0.05918*%
%ADD19R,0.02375X0.06706*%
%ADD20R,0.04737X0.08674*%
%ADD21OC8,0.06800*%
%ADD22C,0.20800*%
%ADD23C,0.01902*%
%ADD24C,0.00800*%
%ADD25C,0.06400*%
%ADD26R,0.20800X0.07800*%
%ADD27OC8,0.06146*%
%ADD28C,0.06000*%
%ADD29R,0.08674X0.04737*%
%ADD30C,0.10800*%
%ADD31R,0.03162X0.06706*%
%ADD32C,0.04000*%
%ADD33C,0.04400*%
D10*
X0221750Y0096200D03*
X0221750Y0114800D03*
D11*
X0218010Y0086750D03*
X0225490Y0086750D03*
X0365510Y0116750D03*
X0372990Y0116750D03*
X0372990Y0126750D03*
X0365510Y0126750D03*
X0365510Y0136750D03*
X0372990Y0136750D03*
X0372990Y0156750D03*
X0365510Y0156750D03*
X0365510Y0166750D03*
X0372990Y0166750D03*
X0372990Y0176750D03*
X0365510Y0176750D03*
X0436760Y0176750D03*
X0444240Y0176750D03*
X0444240Y0166750D03*
X0436760Y0166750D03*
X0436760Y0156750D03*
X0444240Y0156750D03*
X0444240Y0136750D03*
X0436760Y0136750D03*
X0436760Y0126750D03*
X0444240Y0126750D03*
X0444240Y0116750D03*
X0436760Y0116750D03*
X0508010Y0116750D03*
X0515490Y0116750D03*
X0515490Y0126750D03*
X0508010Y0126750D03*
X0508010Y0136750D03*
X0515490Y0136750D03*
X0515490Y0156750D03*
X0508010Y0156750D03*
X0508010Y0166750D03*
X0515490Y0166750D03*
X0515490Y0176750D03*
X0508010Y0176750D03*
X0547278Y0197750D03*
X0554758Y0197750D03*
G36*
X0587657Y0227071D02*
X0591842Y0222886D01*
X0587101Y0218145D01*
X0582916Y0222330D01*
X0587657Y0227071D01*
G37*
G36*
X0582368Y0232360D02*
X0586553Y0228175D01*
X0581812Y0223434D01*
X0577627Y0227619D01*
X0582368Y0232360D01*
G37*
X0581760Y0245700D03*
X0589240Y0245700D03*
X0499240Y0236750D03*
X0491760Y0236750D03*
X0376740Y0221750D03*
X0369260Y0221750D03*
X0538010Y0295500D03*
X0545490Y0295500D03*
X0553010Y0295500D03*
X0560490Y0295500D03*
D12*
X0325500Y0298000D03*
X0265955Y0105955D03*
D13*
X0248574Y0091104D02*
X0247494Y0090024D01*
X0247494Y0093602D01*
X0250024Y0096132D01*
X0253602Y0096132D01*
X0256132Y0093602D01*
X0256132Y0090024D01*
X0253602Y0087494D01*
X0250024Y0087494D01*
X0247494Y0090024D01*
X0249114Y0090695D01*
X0249114Y0092931D01*
X0250695Y0094512D01*
X0252931Y0094512D01*
X0254512Y0092931D01*
X0254512Y0090695D01*
X0252931Y0089114D01*
X0250695Y0089114D01*
X0249114Y0090695D01*
X0250734Y0091366D01*
X0250734Y0092260D01*
X0251366Y0092892D01*
X0252260Y0092892D01*
X0252892Y0092260D01*
X0252892Y0091366D01*
X0252260Y0090734D01*
X0251366Y0090734D01*
X0250734Y0091366D01*
D14*
X0259550Y0063150D02*
X0259550Y0055350D01*
X0279250Y0055350D02*
X0279250Y0063150D01*
X0298950Y0063150D02*
X0298950Y0055350D01*
X0239150Y0055350D02*
X0239150Y0063150D01*
X0219350Y0063150D02*
X0219350Y0055350D01*
X0218000Y0127850D02*
X0218000Y0135650D01*
X0248000Y0135650D02*
X0248000Y0127850D01*
X0268000Y0127850D02*
X0268000Y0135650D01*
X0258000Y0207850D02*
X0258000Y0215650D01*
X0218000Y0215650D02*
X0218000Y0207850D01*
X0298000Y0207850D02*
X0298000Y0215650D01*
D15*
X0201140Y0203000D03*
X0187360Y0203000D03*
X0187360Y0190500D03*
X0201140Y0190500D03*
X0201140Y0178000D03*
X0187360Y0178000D03*
X0187360Y0165500D03*
X0201140Y0165500D03*
X0201140Y0153000D03*
X0187360Y0153000D03*
X0434860Y0215125D03*
X0448640Y0215125D03*
X0448640Y0227625D03*
X0434860Y0227625D03*
X0434860Y0240125D03*
X0448640Y0240125D03*
D16*
X0325500Y0278000D03*
D17*
X0284250Y0294150D02*
X0284250Y0299350D01*
X0264250Y0299350D02*
X0264250Y0294150D01*
X0204250Y0294150D02*
X0204250Y0299350D01*
X0194250Y0299350D02*
X0194250Y0294150D01*
X0194250Y0239350D02*
X0194250Y0234150D01*
X0204250Y0234150D02*
X0204250Y0239350D01*
X0264250Y0239350D02*
X0264250Y0234150D01*
X0284250Y0234150D02*
X0284250Y0239350D01*
X0321650Y0176750D02*
X0326850Y0176750D01*
X0326850Y0166750D02*
X0321650Y0166750D01*
X0321650Y0156750D02*
X0326850Y0156750D01*
X0351650Y0156750D02*
X0356850Y0156750D01*
X0356850Y0146750D02*
X0351650Y0146750D01*
X0351650Y0136750D02*
X0356850Y0136750D01*
X0356850Y0126750D02*
X0351650Y0126750D01*
X0326850Y0126750D02*
X0321650Y0126750D01*
X0321650Y0116750D02*
X0326850Y0116750D01*
X0351650Y0116750D02*
X0356850Y0116750D01*
X0392900Y0116750D02*
X0398100Y0116750D01*
X0398100Y0126750D02*
X0392900Y0126750D01*
X0392900Y0136750D02*
X0398100Y0136750D01*
X0398100Y0146750D02*
X0392900Y0146750D01*
X0392900Y0156750D02*
X0398100Y0156750D01*
X0398100Y0166750D02*
X0392900Y0166750D01*
X0392900Y0176750D02*
X0398100Y0176750D01*
X0422900Y0176750D02*
X0428100Y0176750D01*
X0428100Y0166750D02*
X0422900Y0166750D01*
X0422900Y0156750D02*
X0428100Y0156750D01*
X0428100Y0146750D02*
X0422900Y0146750D01*
X0422900Y0136750D02*
X0428100Y0136750D01*
X0428100Y0126750D02*
X0422900Y0126750D01*
X0422900Y0116750D02*
X0428100Y0116750D01*
X0464268Y0116750D02*
X0469468Y0116750D01*
X0469468Y0126750D02*
X0464268Y0126750D01*
X0464268Y0136750D02*
X0469468Y0136750D01*
X0469468Y0146750D02*
X0464268Y0146750D01*
X0464268Y0156750D02*
X0469468Y0156750D01*
X0469468Y0166750D02*
X0464268Y0166750D01*
X0464268Y0176750D02*
X0469468Y0176750D01*
X0494268Y0176750D02*
X0499468Y0176750D01*
X0499468Y0166750D02*
X0494268Y0166750D01*
X0494268Y0156750D02*
X0499468Y0156750D01*
X0499468Y0146750D02*
X0494268Y0146750D01*
X0494268Y0136750D02*
X0499468Y0136750D01*
X0499468Y0126750D02*
X0494268Y0126750D01*
X0494268Y0116750D02*
X0499468Y0116750D01*
X0539150Y0116750D02*
X0544350Y0116750D01*
X0544350Y0126750D02*
X0539150Y0126750D01*
X0539150Y0136750D02*
X0544350Y0136750D01*
X0544350Y0146750D02*
X0539150Y0146750D01*
X0539150Y0156750D02*
X0544350Y0156750D01*
X0544350Y0166750D02*
X0539150Y0166750D01*
X0539150Y0176750D02*
X0544350Y0176750D01*
X0544350Y0186750D02*
X0539150Y0186750D01*
X0569150Y0186750D02*
X0574350Y0186750D01*
X0574350Y0176750D02*
X0569150Y0176750D01*
X0569150Y0166750D02*
X0574350Y0166750D01*
X0574350Y0156750D02*
X0569150Y0156750D01*
X0569150Y0146750D02*
X0574350Y0146750D01*
X0574350Y0136750D02*
X0569150Y0136750D01*
X0569150Y0126750D02*
X0574350Y0126750D01*
X0574350Y0116750D02*
X0569150Y0116750D01*
X0537985Y0098200D02*
X0537985Y0093000D01*
X0527985Y0093000D02*
X0527985Y0098200D01*
X0517985Y0098200D02*
X0517985Y0093000D01*
X0507985Y0093000D02*
X0507985Y0098200D01*
X0497985Y0098200D02*
X0497985Y0093000D01*
X0487985Y0093000D02*
X0487985Y0098200D01*
X0477985Y0098200D02*
X0477985Y0093000D01*
X0467985Y0093000D02*
X0467985Y0098200D01*
X0467985Y0063000D02*
X0467985Y0057800D01*
X0477985Y0057800D02*
X0477985Y0063000D01*
X0487985Y0063000D02*
X0487985Y0057800D01*
X0497985Y0057800D02*
X0497985Y0063000D01*
X0507985Y0063000D02*
X0507985Y0057800D01*
X0517985Y0057800D02*
X0517985Y0063000D01*
X0527985Y0063000D02*
X0527985Y0057800D01*
X0537985Y0057800D02*
X0537985Y0063000D01*
X0326850Y0136750D02*
X0321650Y0136750D01*
X0321650Y0146750D02*
X0326850Y0146750D01*
X0351650Y0166750D02*
X0356850Y0166750D01*
X0356850Y0176750D02*
X0351650Y0176750D01*
D18*
X0314250Y0175490D03*
X0314250Y0168010D03*
X0314250Y0145490D03*
X0314250Y0138010D03*
X0314250Y0125490D03*
X0314250Y0118010D03*
X0385500Y0118010D03*
X0385500Y0125490D03*
X0385500Y0138010D03*
X0385500Y0145490D03*
X0385500Y0168010D03*
X0385500Y0175490D03*
X0456750Y0175490D03*
X0456750Y0168010D03*
X0456750Y0145490D03*
X0456750Y0138010D03*
X0456750Y0125490D03*
X0456750Y0118010D03*
X0414250Y0228010D03*
X0414250Y0235490D03*
X0593000Y0269260D03*
X0593000Y0276740D03*
D19*
X0405707Y0246022D03*
X0403148Y0246022D03*
X0400589Y0246022D03*
X0398030Y0246022D03*
X0395470Y0246022D03*
X0392911Y0246022D03*
X0390352Y0246022D03*
X0387793Y0246022D03*
X0387793Y0217478D03*
X0390352Y0217478D03*
X0392911Y0217478D03*
X0395470Y0217478D03*
X0398030Y0217478D03*
X0400589Y0217478D03*
X0403148Y0217478D03*
X0405707Y0217478D03*
D20*
X0373000Y0232390D03*
X0373000Y0243610D03*
D21*
X0396997Y0276107D03*
X0407797Y0276107D03*
X0418597Y0276107D03*
X0429397Y0276107D03*
X0423997Y0287307D03*
X0413197Y0287307D03*
X0402397Y0287307D03*
X0391597Y0287307D03*
X0434797Y0287307D03*
X0682635Y0287350D03*
X0693435Y0287350D03*
X0704235Y0287350D03*
X0715035Y0287350D03*
X0725835Y0287350D03*
X0720435Y0276150D03*
X0709635Y0276150D03*
X0698835Y0276150D03*
X0688035Y0276150D03*
X0682635Y0232350D03*
X0693435Y0232350D03*
X0704235Y0232350D03*
X0715035Y0232350D03*
X0725835Y0232350D03*
X0720435Y0221150D03*
X0709635Y0221150D03*
X0698835Y0221150D03*
X0688035Y0221150D03*
X0682635Y0177350D03*
X0693435Y0177350D03*
X0704235Y0177350D03*
X0715035Y0177350D03*
X0725835Y0177350D03*
X0720435Y0166150D03*
X0709635Y0166150D03*
X0698835Y0166150D03*
X0688035Y0166150D03*
X0693085Y0081100D03*
X0682185Y0081100D03*
X0671385Y0081100D03*
X0660485Y0081100D03*
X0649585Y0081100D03*
X0638785Y0081100D03*
X0627885Y0081100D03*
X0616985Y0081100D03*
X0606185Y0081100D03*
X0595285Y0081100D03*
X0600685Y0069900D03*
X0611585Y0069900D03*
X0622485Y0069900D03*
X0633285Y0069900D03*
X0644185Y0069900D03*
X0655085Y0069900D03*
X0665885Y0069900D03*
X0676785Y0069900D03*
X0687685Y0069900D03*
X0698485Y0069900D03*
X0709385Y0069900D03*
X0720285Y0069900D03*
X0725685Y0081100D03*
X0714785Y0081100D03*
X0703985Y0081100D03*
X0411539Y0082350D03*
X0400739Y0082350D03*
X0389939Y0082350D03*
X0379139Y0082350D03*
X0368339Y0082350D03*
X0373739Y0071150D03*
X0384539Y0071150D03*
X0395339Y0071150D03*
X0406139Y0071150D03*
D22*
X0439239Y0076750D03*
X0340639Y0076750D03*
X0567885Y0075500D03*
X0753085Y0075500D03*
X0753535Y0171750D03*
X0654935Y0171750D03*
X0654935Y0226750D03*
X0753535Y0226750D03*
X0753535Y0281750D03*
X0654935Y0281750D03*
X0462497Y0281707D03*
X0363897Y0281707D03*
D23*
X0528593Y0256514D02*
X0529655Y0256514D01*
X0529655Y0254545D02*
X0528593Y0254545D01*
X0528593Y0252577D02*
X0529655Y0252577D01*
X0529655Y0250608D02*
X0528593Y0250608D01*
X0528593Y0248640D02*
X0529655Y0248640D01*
X0529655Y0246671D02*
X0528593Y0246671D01*
X0528593Y0244703D02*
X0529655Y0244703D01*
X0529655Y0242734D02*
X0528593Y0242734D01*
X0528593Y0240766D02*
X0529655Y0240766D01*
X0529655Y0238797D02*
X0528593Y0238797D01*
X0528593Y0236829D02*
X0529655Y0236829D01*
X0529655Y0234860D02*
X0528593Y0234860D01*
X0528593Y0232892D02*
X0529655Y0232892D01*
X0529655Y0230923D02*
X0528593Y0230923D01*
X0528593Y0228955D02*
X0529655Y0228955D01*
X0529655Y0226986D02*
X0528593Y0226986D01*
X0531986Y0224655D02*
X0531986Y0223593D01*
X0533955Y0223593D02*
X0533955Y0224655D01*
X0535923Y0224655D02*
X0535923Y0223593D01*
X0537892Y0223593D02*
X0537892Y0224655D01*
X0539860Y0224655D02*
X0539860Y0223593D01*
X0541829Y0223593D02*
X0541829Y0224655D01*
X0543797Y0224655D02*
X0543797Y0223593D01*
X0545766Y0223593D02*
X0545766Y0224655D01*
X0547734Y0224655D02*
X0547734Y0223593D01*
X0549703Y0223593D02*
X0549703Y0224655D01*
X0551671Y0224655D02*
X0551671Y0223593D01*
X0553640Y0223593D02*
X0553640Y0224655D01*
X0555608Y0224655D02*
X0555608Y0223593D01*
X0557577Y0223593D02*
X0557577Y0224655D01*
X0559545Y0224655D02*
X0559545Y0223593D01*
X0561514Y0223593D02*
X0561514Y0224655D01*
X0563845Y0226986D02*
X0564907Y0226986D01*
X0564907Y0228955D02*
X0563845Y0228955D01*
X0563845Y0230923D02*
X0564907Y0230923D01*
X0564907Y0232892D02*
X0563845Y0232892D01*
X0563845Y0234860D02*
X0564907Y0234860D01*
X0564907Y0236829D02*
X0563845Y0236829D01*
X0563845Y0238797D02*
X0564907Y0238797D01*
X0564907Y0240766D02*
X0563845Y0240766D01*
X0563845Y0242734D02*
X0564907Y0242734D01*
X0564907Y0244703D02*
X0563845Y0244703D01*
X0563845Y0246671D02*
X0564907Y0246671D01*
X0564907Y0248640D02*
X0563845Y0248640D01*
X0563845Y0250608D02*
X0564907Y0250608D01*
X0564907Y0252577D02*
X0563845Y0252577D01*
X0563845Y0254545D02*
X0564907Y0254545D01*
X0564907Y0256514D02*
X0563845Y0256514D01*
X0561514Y0258845D02*
X0561514Y0259907D01*
X0559545Y0259907D02*
X0559545Y0258845D01*
X0557577Y0258845D02*
X0557577Y0259907D01*
X0555608Y0259907D02*
X0555608Y0258845D01*
X0553640Y0258845D02*
X0553640Y0259907D01*
X0551671Y0259907D02*
X0551671Y0258845D01*
X0549703Y0258845D02*
X0549703Y0259907D01*
X0547734Y0259907D02*
X0547734Y0258845D01*
X0545766Y0258845D02*
X0545766Y0259907D01*
X0543797Y0259907D02*
X0543797Y0258845D01*
X0541829Y0258845D02*
X0541829Y0259907D01*
X0539860Y0259907D02*
X0539860Y0258845D01*
X0537892Y0258845D02*
X0537892Y0259907D01*
X0535923Y0259907D02*
X0535923Y0258845D01*
X0533955Y0258845D02*
X0533955Y0259907D01*
X0531986Y0259907D02*
X0531986Y0258845D01*
D24*
X0532774Y0255726D02*
X0560726Y0255726D01*
X0560726Y0227774D01*
X0534152Y0227774D01*
X0532774Y0229152D01*
X0532774Y0255726D01*
X0532774Y0255542D02*
X0560726Y0255542D01*
X0560726Y0254744D02*
X0532774Y0254744D01*
X0532774Y0253945D02*
X0560726Y0253945D01*
X0560726Y0253147D02*
X0532774Y0253147D01*
X0532774Y0252348D02*
X0560726Y0252348D01*
X0560726Y0251550D02*
X0532774Y0251550D01*
X0532774Y0250751D02*
X0560726Y0250751D01*
X0560726Y0249953D02*
X0532774Y0249953D01*
X0532774Y0249154D02*
X0560726Y0249154D01*
X0560726Y0248355D02*
X0532774Y0248355D01*
X0532774Y0247557D02*
X0560726Y0247557D01*
X0560726Y0246758D02*
X0532774Y0246758D01*
X0532774Y0245960D02*
X0560726Y0245960D01*
X0560726Y0245161D02*
X0532774Y0245161D01*
X0532774Y0244363D02*
X0560726Y0244363D01*
X0560726Y0243564D02*
X0532774Y0243564D01*
X0532774Y0242766D02*
X0560726Y0242766D01*
X0560726Y0241967D02*
X0532774Y0241967D01*
X0532774Y0241169D02*
X0560726Y0241169D01*
X0560726Y0240370D02*
X0532774Y0240370D01*
X0532774Y0239572D02*
X0560726Y0239572D01*
X0560726Y0238773D02*
X0532774Y0238773D01*
X0532774Y0237975D02*
X0560726Y0237975D01*
X0560726Y0237176D02*
X0532774Y0237176D01*
X0532774Y0236378D02*
X0560726Y0236378D01*
X0560726Y0235579D02*
X0532774Y0235579D01*
X0532774Y0234781D02*
X0560726Y0234781D01*
X0560726Y0233982D02*
X0532774Y0233982D01*
X0532774Y0233184D02*
X0560726Y0233184D01*
X0560726Y0232385D02*
X0532774Y0232385D01*
X0532774Y0231587D02*
X0560726Y0231587D01*
X0560726Y0230788D02*
X0532774Y0230788D01*
X0532774Y0229990D02*
X0560726Y0229990D01*
X0560726Y0229191D02*
X0532774Y0229191D01*
X0533532Y0228393D02*
X0560726Y0228393D01*
D25*
X0500800Y0260750D02*
X0495200Y0260750D01*
X0495200Y0270750D02*
X0500800Y0270750D01*
X0500800Y0280750D02*
X0495200Y0280750D01*
X0495200Y0290750D02*
X0500800Y0290750D01*
X0500800Y0300750D02*
X0495200Y0300750D01*
D26*
X0530250Y0280500D03*
X0568250Y0280500D03*
D27*
X0305500Y0113671D03*
X0285500Y0113671D03*
X0285500Y0105010D03*
X0285500Y0096348D03*
X0305500Y0096348D03*
X0305500Y0105010D03*
X0305500Y0083750D03*
X0285500Y0083750D03*
D28*
X0636735Y0108000D03*
X0646735Y0108000D03*
X0656735Y0108000D03*
X0666735Y0108000D03*
X0682985Y0108000D03*
X0692985Y0108000D03*
X0702985Y0108000D03*
X0712985Y0108000D03*
X0729235Y0108000D03*
X0739235Y0108000D03*
X0749235Y0108000D03*
X0759235Y0108000D03*
X0759235Y0138000D03*
X0749235Y0138000D03*
X0739235Y0138000D03*
X0729235Y0138000D03*
X0712985Y0138000D03*
X0702985Y0138000D03*
X0692985Y0138000D03*
X0682985Y0138000D03*
X0666735Y0138000D03*
X0656735Y0138000D03*
X0646735Y0138000D03*
X0636735Y0138000D03*
X0344250Y0224250D03*
X0344250Y0234250D03*
X0344250Y0244250D03*
X0344250Y0254250D03*
X0314250Y0254250D03*
X0314250Y0244250D03*
X0314250Y0234250D03*
X0314250Y0224250D03*
D29*
X0323640Y0209250D03*
X0334860Y0209250D03*
D30*
X0191250Y0049950D02*
X0181250Y0049950D01*
X0181250Y0138550D02*
X0191250Y0138550D01*
D31*
X0609235Y0161514D03*
X0614235Y0161514D03*
X0619235Y0161514D03*
X0624235Y0161514D03*
X0629235Y0161514D03*
X0634235Y0161514D03*
X0639235Y0161514D03*
X0639235Y0181986D03*
X0634235Y0181986D03*
X0629235Y0181986D03*
X0624235Y0181986D03*
X0619235Y0181986D03*
X0614235Y0181986D03*
X0609235Y0181986D03*
X0609235Y0216514D03*
X0614235Y0216514D03*
X0619235Y0216514D03*
X0624235Y0216514D03*
X0629235Y0216514D03*
X0634235Y0216514D03*
X0639235Y0216514D03*
X0639235Y0236986D03*
X0634235Y0236986D03*
X0629235Y0236986D03*
X0624235Y0236986D03*
X0619235Y0236986D03*
X0614235Y0236986D03*
X0609235Y0236986D03*
X0609235Y0271514D03*
X0614235Y0271514D03*
X0619235Y0271514D03*
X0624235Y0271514D03*
X0629235Y0271514D03*
X0634235Y0271514D03*
X0639235Y0271514D03*
X0639235Y0291986D03*
X0634235Y0291986D03*
X0629235Y0291986D03*
X0624235Y0291986D03*
X0619235Y0291986D03*
X0614235Y0291986D03*
X0609235Y0291986D03*
D32*
X0609250Y0284250D03*
X0614250Y0279250D03*
X0609250Y0264250D03*
X0583089Y0258250D03*
X0573000Y0263000D03*
X0550500Y0253000D03*
X0546750Y0249250D03*
X0543000Y0253000D03*
X0535500Y0245500D03*
X0539250Y0241750D03*
X0535500Y0238000D03*
X0546750Y0234250D03*
X0543000Y0230500D03*
X0550500Y0230500D03*
X0558000Y0238000D03*
X0554250Y0241750D03*
X0558000Y0245500D03*
X0568000Y0249350D03*
X0573000Y0249250D03*
X0574250Y0241950D03*
X0574250Y0225500D03*
X0579250Y0218800D03*
X0599250Y0226000D03*
X0609235Y0229250D03*
X0614235Y0224250D03*
X0609235Y0209250D03*
X0605500Y0203000D03*
X0595500Y0205500D03*
X0619235Y0196750D03*
X0639235Y0199250D03*
X0599250Y0181136D03*
X0588000Y0184250D03*
X0591750Y0191750D03*
X0609235Y0174250D03*
X0609235Y0169250D03*
X0614235Y0169250D03*
X0554250Y0204250D03*
X0539750Y0207500D03*
X0509750Y0206750D03*
X0490500Y0195500D03*
X0515490Y0188050D03*
X0455500Y0215125D03*
X0428000Y0215125D03*
X0428000Y0227625D03*
X0401281Y0228040D03*
X0391953Y0228040D03*
X0391953Y0235514D03*
X0401281Y0235492D03*
X0428000Y0240125D03*
X0455500Y0240125D03*
X0455500Y0227625D03*
X0484250Y0236375D03*
X0506750Y0238266D03*
X0513000Y0249750D03*
X0518000Y0249750D03*
X0523000Y0249750D03*
X0444250Y0264250D03*
X0366750Y0208000D03*
X0301750Y0196750D03*
X0236750Y0174250D03*
X0219250Y0174250D03*
X0219250Y0181750D03*
X0176750Y0184250D03*
X0176750Y0171750D03*
X0176750Y0159250D03*
X0176750Y0196750D03*
X0176750Y0209250D03*
X0205500Y0251750D03*
X0225500Y0251750D03*
X0266750Y0266750D03*
X0373000Y0146750D03*
X0444250Y0146750D03*
X0515490Y0146740D03*
X0319250Y0094250D03*
X0639235Y0254250D03*
X0594250Y0294250D03*
D33*
X0619250Y0264250D03*
X0709250Y0308000D03*
X0619235Y0209250D03*
X0500500Y0209250D03*
X0465500Y0199250D03*
X0460500Y0194250D03*
X0439250Y0199250D03*
X0405500Y0194250D03*
X0384250Y0199250D03*
X0379250Y0194250D03*
X0366750Y0199250D03*
X0351750Y0201750D03*
X0389250Y0254250D03*
X0336750Y0281750D03*
X0621735Y0154250D03*
M02*
