G75*
%MOIN*%
%OFA0B0*%
%FSLAX25Y25*%
%IPPOS*%
%LPD*%
%AMOC8*
5,1,8,0,0,1.08239X$1,22.5*
%
%ADD10C,0.10800*%
%ADD11C,0.02160*%
%ADD12R,0.06706X0.05918*%
%ADD13C,0.08600*%
%ADD14R,0.07099X0.07898*%
%ADD15OC8,0.10800*%
%ADD16R,0.05918X0.06706*%
%ADD17C,0.06000*%
%ADD18OC8,0.06800*%
%ADD19C,0.20800*%
%ADD20C,0.06400*%
%ADD21OC8,0.06146*%
%ADD22R,0.04737X0.06312*%
%ADD23C,0.06000*%
%ADD24C,0.10800*%
%ADD25R,0.05400X0.07100*%
%ADD26R,0.00600X0.07200*%
%ADD27R,0.07100X0.05400*%
%ADD28R,0.07200X0.00600*%
%ADD29C,0.04000*%
%ADD30C,0.04400*%
D10*
X0265955Y0105955D03*
X0325500Y0298000D03*
D11*
X0248574Y0091104D02*
X0247494Y0090024D01*
X0247494Y0093602D01*
X0250024Y0096132D01*
X0253602Y0096132D01*
X0256132Y0093602D01*
X0256132Y0090024D01*
X0253602Y0087494D01*
X0250024Y0087494D01*
X0247494Y0090024D01*
X0249114Y0090695D01*
X0249114Y0092931D01*
X0250695Y0094512D01*
X0252931Y0094512D01*
X0254512Y0092931D01*
X0254512Y0090695D01*
X0252931Y0089114D01*
X0250695Y0089114D01*
X0249114Y0090695D01*
X0250734Y0091366D01*
X0250734Y0092260D01*
X0251366Y0092892D01*
X0252260Y0092892D01*
X0252892Y0092260D01*
X0252892Y0091366D01*
X0252260Y0090734D01*
X0251366Y0090734D01*
X0250734Y0091366D01*
D12*
X0263000Y0090490D03*
X0263000Y0083010D03*
X0336750Y0118010D03*
X0344750Y0118010D03*
X0344750Y0125490D03*
X0336750Y0125490D03*
X0334250Y0138010D03*
X0344250Y0138010D03*
X0344250Y0145490D03*
X0334250Y0145490D03*
X0334250Y0158010D03*
X0344250Y0158010D03*
X0344250Y0165490D03*
X0334250Y0165490D03*
X0334250Y0175510D03*
X0344250Y0175510D03*
X0344250Y0182990D03*
X0334250Y0182990D03*
X0364250Y0165490D03*
X0364250Y0158010D03*
X0405500Y0158010D03*
X0415500Y0158010D03*
X0415500Y0165490D03*
X0405500Y0165490D03*
X0405500Y0175510D03*
X0415500Y0175510D03*
X0415500Y0182990D03*
X0405500Y0182990D03*
X0435500Y0165490D03*
X0435500Y0158010D03*
X0415500Y0145490D03*
X0405500Y0145490D03*
X0405500Y0138010D03*
X0415500Y0138010D03*
X0416000Y0125490D03*
X0408000Y0125490D03*
X0408000Y0118010D03*
X0416000Y0118010D03*
X0479250Y0118010D03*
X0487250Y0118010D03*
X0487250Y0125490D03*
X0479250Y0125490D03*
X0476750Y0138010D03*
X0486750Y0138010D03*
X0486750Y0145490D03*
X0476750Y0145490D03*
X0476750Y0158010D03*
X0486750Y0158010D03*
X0486750Y0165490D03*
X0476750Y0165490D03*
X0476750Y0175510D03*
X0486750Y0175510D03*
X0486750Y0182990D03*
X0476750Y0182990D03*
X0506750Y0165490D03*
X0506750Y0158010D03*
X0656735Y0127990D03*
X0656735Y0120510D03*
X0702985Y0120510D03*
X0702985Y0127990D03*
X0749235Y0127990D03*
X0749235Y0120510D03*
X0406750Y0228010D03*
X0406750Y0235490D03*
X0386496Y0235521D03*
X0386496Y0228041D03*
X0291750Y0244260D03*
X0291750Y0251740D03*
X0288000Y0212990D03*
X0288000Y0205510D03*
D13*
X0298000Y0207850D02*
X0298000Y0215650D01*
X0258000Y0215650D02*
X0258000Y0207850D01*
X0218000Y0207850D02*
X0218000Y0215650D01*
X0218000Y0135650D02*
X0218000Y0127850D01*
X0248000Y0127850D02*
X0248000Y0135650D01*
X0268000Y0135650D02*
X0268000Y0127850D01*
X0259550Y0063150D02*
X0259550Y0055350D01*
X0279250Y0055350D02*
X0279250Y0063150D01*
X0298950Y0063150D02*
X0298950Y0055350D01*
X0239150Y0055350D02*
X0239150Y0063150D01*
X0219350Y0063150D02*
X0219350Y0055350D01*
D14*
X0186098Y0153000D03*
X0174902Y0153000D03*
D15*
X0325500Y0278000D03*
D16*
X0299240Y0296750D03*
X0291760Y0296750D03*
X0277990Y0286750D03*
X0270510Y0286750D03*
X0325510Y0251750D03*
X0332990Y0251750D03*
X0277990Y0246750D03*
X0270510Y0246750D03*
X0184240Y0203000D03*
X0176760Y0203000D03*
X0176760Y0190500D03*
X0184240Y0190500D03*
X0184240Y0178000D03*
X0176760Y0178000D03*
X0176760Y0165500D03*
X0184240Y0165500D03*
X0291760Y0125500D03*
X0299240Y0125500D03*
X0469275Y0084250D03*
X0476755Y0084250D03*
X0489245Y0084250D03*
X0496725Y0084250D03*
X0509275Y0084250D03*
X0516755Y0084250D03*
X0529245Y0084250D03*
X0536725Y0084250D03*
X0536755Y0071750D03*
X0529275Y0071750D03*
X0516725Y0071750D03*
X0509245Y0071750D03*
X0496755Y0071750D03*
X0489275Y0071750D03*
X0476725Y0071750D03*
X0469245Y0071750D03*
X0639245Y0096750D03*
X0646725Y0096750D03*
X0657995Y0096750D03*
X0665475Y0096750D03*
X0685495Y0096750D03*
X0692975Y0096750D03*
X0704245Y0096750D03*
X0711725Y0096750D03*
X0731745Y0096750D03*
X0739225Y0096750D03*
X0750495Y0096750D03*
X0757975Y0096750D03*
X0737975Y0128000D03*
X0730495Y0128000D03*
X0691725Y0128000D03*
X0684245Y0128000D03*
X0645475Y0128000D03*
X0637995Y0128000D03*
X0627975Y0163000D03*
X0620495Y0163000D03*
X0620495Y0171750D03*
X0627975Y0171750D03*
X0627975Y0180500D03*
X0620495Y0180500D03*
X0620495Y0218000D03*
X0627975Y0218000D03*
X0627975Y0226750D03*
X0620495Y0226750D03*
X0620495Y0235500D03*
X0627975Y0235500D03*
X0720510Y0243000D03*
X0727990Y0243000D03*
X0730495Y0221750D03*
X0737975Y0221750D03*
X0737975Y0213000D03*
X0730495Y0213000D03*
X0727990Y0188000D03*
X0720510Y0188000D03*
X0627975Y0273000D03*
X0620495Y0273000D03*
X0620495Y0281750D03*
X0627975Y0281750D03*
X0627975Y0290500D03*
X0620495Y0290500D03*
X0720510Y0298000D03*
X0727990Y0298000D03*
X0485490Y0271750D03*
X0478010Y0271750D03*
X0478010Y0261750D03*
X0485490Y0261750D03*
X0469240Y0261750D03*
X0461760Y0261750D03*
X0445490Y0240125D03*
X0438010Y0240125D03*
X0438010Y0227625D03*
X0445490Y0227625D03*
X0445490Y0215125D03*
X0438010Y0215125D03*
X0649245Y0058000D03*
X0656725Y0058000D03*
G36*
X0662860Y0054598D02*
X0667045Y0058783D01*
X0671786Y0054042D01*
X0667601Y0049857D01*
X0662860Y0054598D01*
G37*
G36*
X0668149Y0059887D02*
X0672334Y0064072D01*
X0677075Y0059331D01*
X0672890Y0055146D01*
X0668149Y0059887D01*
G37*
G36*
X0674628Y0053651D02*
X0678813Y0057836D01*
X0683554Y0053095D01*
X0679369Y0048910D01*
X0674628Y0053651D01*
G37*
G36*
X0679917Y0058940D02*
X0684102Y0063125D01*
X0688843Y0058384D01*
X0684658Y0054199D01*
X0679917Y0058940D01*
G37*
G36*
X0686761Y0053499D02*
X0690946Y0057684D01*
X0695687Y0052943D01*
X0691502Y0048758D01*
X0686761Y0053499D01*
G37*
G36*
X0692051Y0058789D02*
X0696236Y0062974D01*
X0700977Y0058233D01*
X0696792Y0054048D01*
X0692051Y0058789D01*
G37*
D17*
X0574350Y0116750D02*
X0569150Y0116750D01*
X0569150Y0126750D02*
X0574350Y0126750D01*
X0574350Y0136750D02*
X0569150Y0136750D01*
X0569150Y0146750D02*
X0574350Y0146750D01*
X0574350Y0156750D02*
X0569150Y0156750D01*
X0569150Y0166750D02*
X0574350Y0166750D01*
X0574350Y0176750D02*
X0569150Y0176750D01*
X0569150Y0186750D02*
X0574350Y0186750D01*
X0544350Y0186750D02*
X0539150Y0186750D01*
X0539150Y0176750D02*
X0544350Y0176750D01*
X0544350Y0166750D02*
X0539150Y0166750D01*
X0539150Y0156750D02*
X0544350Y0156750D01*
X0544350Y0146750D02*
X0539150Y0146750D01*
X0539150Y0136750D02*
X0544350Y0136750D01*
X0544350Y0126750D02*
X0539150Y0126750D01*
X0539150Y0116750D02*
X0544350Y0116750D01*
X0499468Y0116750D02*
X0494268Y0116750D01*
X0494268Y0126750D02*
X0499468Y0126750D01*
X0499468Y0136750D02*
X0494268Y0136750D01*
X0494268Y0146750D02*
X0499468Y0146750D01*
X0499468Y0156750D02*
X0494268Y0156750D01*
X0494268Y0166750D02*
X0499468Y0166750D01*
X0499468Y0176750D02*
X0494268Y0176750D01*
X0469468Y0176750D02*
X0464268Y0176750D01*
X0464268Y0166750D02*
X0469468Y0166750D01*
X0469468Y0156750D02*
X0464268Y0156750D01*
X0464268Y0146750D02*
X0469468Y0146750D01*
X0469468Y0136750D02*
X0464268Y0136750D01*
X0464268Y0126750D02*
X0469468Y0126750D01*
X0469468Y0116750D02*
X0464268Y0116750D01*
X0428100Y0116750D02*
X0422900Y0116750D01*
X0422900Y0126750D02*
X0428100Y0126750D01*
X0428100Y0136750D02*
X0422900Y0136750D01*
X0422900Y0146750D02*
X0428100Y0146750D01*
X0428100Y0156750D02*
X0422900Y0156750D01*
X0422900Y0166750D02*
X0428100Y0166750D01*
X0428100Y0176750D02*
X0422900Y0176750D01*
X0398100Y0176750D02*
X0392900Y0176750D01*
X0392900Y0166750D02*
X0398100Y0166750D01*
X0398100Y0156750D02*
X0392900Y0156750D01*
X0392900Y0146750D02*
X0398100Y0146750D01*
X0398100Y0136750D02*
X0392900Y0136750D01*
X0392900Y0126750D02*
X0398100Y0126750D01*
X0398100Y0116750D02*
X0392900Y0116750D01*
X0356850Y0116750D02*
X0351650Y0116750D01*
X0326850Y0116750D02*
X0321650Y0116750D01*
X0321650Y0126750D02*
X0326850Y0126750D01*
X0351650Y0126750D02*
X0356850Y0126750D01*
X0356850Y0136750D02*
X0351650Y0136750D01*
X0351650Y0146750D02*
X0356850Y0146750D01*
X0356850Y0156750D02*
X0351650Y0156750D01*
X0326850Y0156750D02*
X0321650Y0156750D01*
X0321650Y0146750D02*
X0326850Y0146750D01*
X0326850Y0136750D02*
X0321650Y0136750D01*
X0321650Y0166750D02*
X0326850Y0166750D01*
X0326850Y0176750D02*
X0321650Y0176750D01*
X0351650Y0176750D02*
X0356850Y0176750D01*
X0356850Y0166750D02*
X0351650Y0166750D01*
X0284250Y0234150D02*
X0284250Y0239350D01*
X0264250Y0239350D02*
X0264250Y0234150D01*
X0204250Y0234150D02*
X0204250Y0239350D01*
X0194250Y0239350D02*
X0194250Y0234150D01*
X0194250Y0294150D02*
X0194250Y0299350D01*
X0204250Y0299350D02*
X0204250Y0294150D01*
X0264250Y0294150D02*
X0264250Y0299350D01*
X0284250Y0299350D02*
X0284250Y0294150D01*
X0467985Y0098200D02*
X0467985Y0093000D01*
X0477985Y0093000D02*
X0477985Y0098200D01*
X0487985Y0098200D02*
X0487985Y0093000D01*
X0497985Y0093000D02*
X0497985Y0098200D01*
X0507985Y0098200D02*
X0507985Y0093000D01*
X0517985Y0093000D02*
X0517985Y0098200D01*
X0527985Y0098200D02*
X0527985Y0093000D01*
X0537985Y0093000D02*
X0537985Y0098200D01*
X0537985Y0063000D02*
X0537985Y0057800D01*
X0527985Y0057800D02*
X0527985Y0063000D01*
X0517985Y0063000D02*
X0517985Y0057800D01*
X0507985Y0057800D02*
X0507985Y0063000D01*
X0497985Y0063000D02*
X0497985Y0057800D01*
X0487985Y0057800D02*
X0487985Y0063000D01*
X0477985Y0063000D02*
X0477985Y0057800D01*
X0467985Y0057800D02*
X0467985Y0063000D01*
D18*
X0411539Y0082350D03*
X0400739Y0082350D03*
X0389939Y0082350D03*
X0379139Y0082350D03*
X0368339Y0082350D03*
X0373739Y0071150D03*
X0384539Y0071150D03*
X0395339Y0071150D03*
X0406139Y0071150D03*
X0595285Y0081100D03*
X0606185Y0081100D03*
X0616985Y0081100D03*
X0627885Y0081100D03*
X0638785Y0081100D03*
X0649585Y0081100D03*
X0660485Y0081100D03*
X0671385Y0081100D03*
X0682185Y0081100D03*
X0693085Y0081100D03*
X0703985Y0081100D03*
X0714785Y0081100D03*
X0725685Y0081100D03*
X0720285Y0069900D03*
X0709385Y0069900D03*
X0698485Y0069900D03*
X0687685Y0069900D03*
X0676785Y0069900D03*
X0665885Y0069900D03*
X0655085Y0069900D03*
X0644185Y0069900D03*
X0633285Y0069900D03*
X0622485Y0069900D03*
X0611585Y0069900D03*
X0600685Y0069900D03*
X0688035Y0166150D03*
X0698835Y0166150D03*
X0709635Y0166150D03*
X0720435Y0166150D03*
X0715035Y0177350D03*
X0725835Y0177350D03*
X0704235Y0177350D03*
X0693435Y0177350D03*
X0682635Y0177350D03*
X0688035Y0221150D03*
X0698835Y0221150D03*
X0709635Y0221150D03*
X0720435Y0221150D03*
X0715035Y0232350D03*
X0725835Y0232350D03*
X0704235Y0232350D03*
X0693435Y0232350D03*
X0682635Y0232350D03*
X0688035Y0276150D03*
X0698835Y0276150D03*
X0709635Y0276150D03*
X0720435Y0276150D03*
X0715035Y0287350D03*
X0725835Y0287350D03*
X0704235Y0287350D03*
X0693435Y0287350D03*
X0682635Y0287350D03*
X0434797Y0287307D03*
X0423997Y0287307D03*
X0413197Y0287307D03*
X0402397Y0287307D03*
X0391597Y0287307D03*
X0396997Y0276107D03*
X0407797Y0276107D03*
X0418597Y0276107D03*
X0429397Y0276107D03*
D19*
X0462497Y0281707D03*
X0363897Y0281707D03*
X0654935Y0281750D03*
X0753535Y0281750D03*
X0753535Y0226750D03*
X0654935Y0226750D03*
X0654935Y0171750D03*
X0753535Y0171750D03*
X0753085Y0075500D03*
X0567885Y0075500D03*
X0439239Y0076750D03*
X0340639Y0076750D03*
D20*
X0495200Y0260750D02*
X0500800Y0260750D01*
X0500800Y0270750D02*
X0495200Y0270750D01*
X0495200Y0280750D02*
X0500800Y0280750D01*
X0500800Y0290750D02*
X0495200Y0290750D01*
X0495200Y0300750D02*
X0500800Y0300750D01*
D21*
X0305500Y0113671D03*
X0285500Y0113671D03*
X0285500Y0105010D03*
X0285500Y0096348D03*
X0305500Y0096348D03*
X0305500Y0105010D03*
X0305500Y0083750D03*
X0285500Y0083750D03*
D22*
X0277990Y0087331D03*
X0270510Y0087331D03*
X0274250Y0078669D03*
D23*
X0636735Y0108000D03*
X0646735Y0108000D03*
X0656735Y0108000D03*
X0666735Y0108000D03*
X0682985Y0108000D03*
X0692985Y0108000D03*
X0702985Y0108000D03*
X0712985Y0108000D03*
X0729235Y0108000D03*
X0739235Y0108000D03*
X0749235Y0108000D03*
X0759235Y0108000D03*
X0759235Y0138000D03*
X0749235Y0138000D03*
X0739235Y0138000D03*
X0729235Y0138000D03*
X0712985Y0138000D03*
X0702985Y0138000D03*
X0692985Y0138000D03*
X0682985Y0138000D03*
X0666735Y0138000D03*
X0656735Y0138000D03*
X0646735Y0138000D03*
X0636735Y0138000D03*
X0344250Y0224250D03*
X0344250Y0234250D03*
X0344250Y0244250D03*
X0344250Y0254250D03*
X0314250Y0254250D03*
X0314250Y0244250D03*
X0314250Y0234250D03*
X0314250Y0224250D03*
D24*
X0191250Y0049950D02*
X0181250Y0049950D01*
X0181250Y0138550D02*
X0191250Y0138550D01*
D25*
X0521250Y0126750D03*
X0527250Y0126750D03*
X0698735Y0191750D03*
X0704735Y0191750D03*
X0709985Y0206750D03*
X0715985Y0206750D03*
X0704735Y0246750D03*
X0698735Y0246750D03*
X0709985Y0261750D03*
X0715985Y0261750D03*
X0704735Y0296750D03*
X0698735Y0296750D03*
X0709985Y0151750D03*
X0715985Y0151750D03*
D26*
X0712985Y0151750D03*
X0701735Y0191750D03*
X0712985Y0206750D03*
X0701735Y0246750D03*
X0712985Y0261750D03*
X0701735Y0296750D03*
X0524250Y0126750D03*
D27*
X0671735Y0168750D03*
X0671735Y0174750D03*
X0671735Y0223750D03*
X0671735Y0229750D03*
X0671735Y0278750D03*
X0671735Y0284750D03*
D28*
X0671735Y0281750D03*
X0671735Y0226750D03*
X0671735Y0171750D03*
D29*
X0614235Y0169250D03*
X0609235Y0169250D03*
X0609235Y0174250D03*
X0599250Y0181136D03*
X0588000Y0184250D03*
X0591750Y0191750D03*
X0605500Y0203000D03*
X0595500Y0205500D03*
X0609235Y0209250D03*
X0579250Y0218800D03*
X0574250Y0225500D03*
X0550500Y0230500D03*
X0546750Y0234250D03*
X0543000Y0230500D03*
X0535500Y0238000D03*
X0539250Y0241750D03*
X0535500Y0245500D03*
X0546750Y0249250D03*
X0543000Y0253000D03*
X0550500Y0253000D03*
X0558000Y0245500D03*
X0554250Y0241750D03*
X0558000Y0238000D03*
X0574250Y0241950D03*
X0573000Y0249250D03*
X0568000Y0249350D03*
X0583089Y0258250D03*
X0573000Y0263000D03*
X0609250Y0264250D03*
X0639235Y0254250D03*
X0614250Y0279250D03*
X0609250Y0284250D03*
X0594250Y0294250D03*
X0523000Y0249750D03*
X0518000Y0249750D03*
X0513000Y0249750D03*
X0506750Y0238266D03*
X0484250Y0236375D03*
X0455500Y0240125D03*
X0455500Y0227625D03*
X0428000Y0227625D03*
X0401281Y0228040D03*
X0391953Y0228040D03*
X0391953Y0235514D03*
X0401281Y0235492D03*
X0428000Y0240125D03*
X0444250Y0264250D03*
X0455500Y0215125D03*
X0428000Y0215125D03*
X0366750Y0208000D03*
X0301750Y0196750D03*
X0236750Y0174250D03*
X0219250Y0174250D03*
X0219250Y0181750D03*
X0176750Y0184250D03*
X0176750Y0171750D03*
X0176750Y0159250D03*
X0176750Y0196750D03*
X0176750Y0209250D03*
X0205500Y0251750D03*
X0225500Y0251750D03*
X0266750Y0266750D03*
X0490500Y0195500D03*
X0515490Y0188050D03*
X0554250Y0204250D03*
X0539750Y0207500D03*
X0509750Y0206750D03*
X0599250Y0226000D03*
X0609235Y0229250D03*
X0614235Y0224250D03*
X0639235Y0199250D03*
X0619235Y0196750D03*
X0515490Y0146740D03*
X0444250Y0146750D03*
X0373000Y0146750D03*
X0319250Y0094250D03*
D30*
X0379250Y0194250D03*
X0384250Y0199250D03*
X0366750Y0199250D03*
X0351750Y0201750D03*
X0405500Y0194250D03*
X0439250Y0199250D03*
X0460500Y0194250D03*
X0465500Y0199250D03*
X0500500Y0209250D03*
X0619235Y0209250D03*
X0619250Y0264250D03*
X0709250Y0308000D03*
X0389250Y0254250D03*
X0336750Y0281750D03*
X0621735Y0154250D03*
M02*
