G75*
%MOIN*%
%OFA0B0*%
%FSLAX25Y25*%
%IPPOS*%
%LPD*%
%AMOC8*
5,1,8,0,0,1.08239X$1,22.5*
%
%ADD10R,0.23200X0.07100*%
%ADD11R,0.05918X0.06706*%
%ADD12C,0.10800*%
%ADD13C,0.02160*%
%ADD14C,0.08600*%
%ADD15R,0.06706X0.06706*%
%ADD16OC8,0.10800*%
%ADD17C,0.06000*%
%ADD18R,0.06706X0.05918*%
%ADD19R,0.02375X0.06706*%
%ADD20R,0.04737X0.08674*%
%ADD21C,0.01902*%
%ADD22C,0.00800*%
%ADD23C,0.06400*%
%ADD24R,0.20800X0.07800*%
%ADD25OC8,0.06146*%
%ADD26C,0.06000*%
%ADD27R,0.08674X0.04737*%
%ADD28C,0.10800*%
%ADD29OC8,0.06800*%
%ADD30C,0.20800*%
%ADD31R,0.03162X0.06706*%
%ADD32R,0.06706X0.03162*%
%ADD33C,0.13600*%
%ADD34C,0.06300*%
%ADD35C,0.04000*%
%ADD36C,0.04400*%
D10*
X0221750Y0091200D03*
X0221750Y0109800D03*
D11*
X0218010Y0081750D03*
X0225490Y0081750D03*
X0365510Y0111750D03*
X0372990Y0111750D03*
X0372990Y0121750D03*
X0365510Y0121750D03*
X0365510Y0131750D03*
X0372990Y0131750D03*
X0372990Y0151750D03*
X0365510Y0151750D03*
X0365510Y0161750D03*
X0372990Y0161750D03*
X0372990Y0171750D03*
X0365510Y0171750D03*
X0436760Y0171750D03*
X0444240Y0171750D03*
X0444240Y0161750D03*
X0436760Y0161750D03*
X0436760Y0151750D03*
X0444240Y0151750D03*
X0444240Y0131750D03*
X0436760Y0131750D03*
X0436760Y0121750D03*
X0444240Y0121750D03*
X0444240Y0111750D03*
X0436760Y0111750D03*
X0508010Y0111750D03*
X0515490Y0111750D03*
X0515490Y0121750D03*
X0508010Y0121750D03*
X0508010Y0131750D03*
X0515490Y0131750D03*
X0515490Y0151750D03*
X0508010Y0151750D03*
X0508010Y0161750D03*
X0515490Y0161750D03*
X0515490Y0171750D03*
X0508010Y0171750D03*
X0547278Y0192750D03*
X0554758Y0192750D03*
G36*
X0587657Y0222071D02*
X0591842Y0217886D01*
X0587101Y0213145D01*
X0582916Y0217330D01*
X0587657Y0222071D01*
G37*
G36*
X0582368Y0227360D02*
X0586553Y0223175D01*
X0581812Y0218434D01*
X0577627Y0222619D01*
X0582368Y0227360D01*
G37*
X0581760Y0240700D03*
X0589240Y0240700D03*
X0499240Y0231750D03*
X0491760Y0231750D03*
X0489240Y0264250D03*
X0481760Y0264250D03*
X0538010Y0291750D03*
X0545490Y0291750D03*
X0553010Y0291750D03*
X0560490Y0291750D03*
X0376740Y0216750D03*
X0369260Y0216750D03*
D12*
X0325500Y0294250D03*
X0265955Y0100955D03*
D13*
X0248574Y0086104D02*
X0247494Y0085024D01*
X0247494Y0088602D01*
X0250024Y0091132D01*
X0253602Y0091132D01*
X0256132Y0088602D01*
X0256132Y0085024D01*
X0253602Y0082494D01*
X0250024Y0082494D01*
X0247494Y0085024D01*
X0249114Y0085695D01*
X0249114Y0087931D01*
X0250695Y0089512D01*
X0252931Y0089512D01*
X0254512Y0087931D01*
X0254512Y0085695D01*
X0252931Y0084114D01*
X0250695Y0084114D01*
X0249114Y0085695D01*
X0250734Y0086366D01*
X0250734Y0087260D01*
X0251366Y0087892D01*
X0252260Y0087892D01*
X0252892Y0087260D01*
X0252892Y0086366D01*
X0252260Y0085734D01*
X0251366Y0085734D01*
X0250734Y0086366D01*
D14*
X0259550Y0058150D02*
X0259550Y0050350D01*
X0279250Y0050350D02*
X0279250Y0058150D01*
X0298950Y0058150D02*
X0298950Y0050350D01*
X0239150Y0050350D02*
X0239150Y0058150D01*
X0219350Y0058150D02*
X0219350Y0050350D01*
X0218000Y0122850D02*
X0218000Y0130650D01*
X0248000Y0130650D02*
X0248000Y0122850D01*
X0268000Y0122850D02*
X0268000Y0130650D01*
X0258000Y0202850D02*
X0258000Y0210650D01*
X0218000Y0210650D02*
X0218000Y0202850D01*
X0298000Y0202850D02*
X0298000Y0210650D01*
D15*
X0201140Y0198000D03*
X0187360Y0198000D03*
X0187360Y0185500D03*
X0201140Y0185500D03*
X0201140Y0173000D03*
X0187360Y0173000D03*
X0187360Y0160500D03*
X0201140Y0160500D03*
X0201140Y0148000D03*
X0187360Y0148000D03*
X0434860Y0210125D03*
X0448640Y0210125D03*
X0448640Y0222625D03*
X0434860Y0222625D03*
X0434860Y0235125D03*
X0448640Y0235125D03*
D16*
X0325500Y0274250D03*
D17*
X0279250Y0292900D02*
X0279250Y0298100D01*
X0259250Y0298100D02*
X0259250Y0292900D01*
X0199250Y0292900D02*
X0199250Y0298100D01*
X0189250Y0298100D02*
X0189250Y0292900D01*
X0189250Y0238100D02*
X0189250Y0232900D01*
X0199250Y0232900D02*
X0199250Y0238100D01*
X0259250Y0238100D02*
X0259250Y0232900D01*
X0279250Y0232900D02*
X0279250Y0238100D01*
X0321650Y0171750D02*
X0326850Y0171750D01*
X0326850Y0161750D02*
X0321650Y0161750D01*
X0321650Y0151750D02*
X0326850Y0151750D01*
X0351650Y0151750D02*
X0356850Y0151750D01*
X0356850Y0141750D02*
X0351650Y0141750D01*
X0351650Y0131750D02*
X0356850Y0131750D01*
X0356850Y0121750D02*
X0351650Y0121750D01*
X0326850Y0121750D02*
X0321650Y0121750D01*
X0321650Y0111750D02*
X0326850Y0111750D01*
X0351650Y0111750D02*
X0356850Y0111750D01*
X0392900Y0111750D02*
X0398100Y0111750D01*
X0398100Y0121750D02*
X0392900Y0121750D01*
X0392900Y0131750D02*
X0398100Y0131750D01*
X0398100Y0141750D02*
X0392900Y0141750D01*
X0392900Y0151750D02*
X0398100Y0151750D01*
X0398100Y0161750D02*
X0392900Y0161750D01*
X0392900Y0171750D02*
X0398100Y0171750D01*
X0422900Y0171750D02*
X0428100Y0171750D01*
X0428100Y0161750D02*
X0422900Y0161750D01*
X0422900Y0151750D02*
X0428100Y0151750D01*
X0428100Y0141750D02*
X0422900Y0141750D01*
X0422900Y0131750D02*
X0428100Y0131750D01*
X0428100Y0121750D02*
X0422900Y0121750D01*
X0422900Y0111750D02*
X0428100Y0111750D01*
X0464268Y0111750D02*
X0469468Y0111750D01*
X0469468Y0121750D02*
X0464268Y0121750D01*
X0464268Y0131750D02*
X0469468Y0131750D01*
X0469468Y0141750D02*
X0464268Y0141750D01*
X0464268Y0151750D02*
X0469468Y0151750D01*
X0469468Y0161750D02*
X0464268Y0161750D01*
X0464268Y0171750D02*
X0469468Y0171750D01*
X0494268Y0171750D02*
X0499468Y0171750D01*
X0499468Y0161750D02*
X0494268Y0161750D01*
X0494268Y0151750D02*
X0499468Y0151750D01*
X0499468Y0141750D02*
X0494268Y0141750D01*
X0494268Y0131750D02*
X0499468Y0131750D01*
X0499468Y0121750D02*
X0494268Y0121750D01*
X0494268Y0111750D02*
X0499468Y0111750D01*
X0539150Y0111750D02*
X0544350Y0111750D01*
X0544350Y0121750D02*
X0539150Y0121750D01*
X0539150Y0131750D02*
X0544350Y0131750D01*
X0544350Y0141750D02*
X0539150Y0141750D01*
X0539150Y0151750D02*
X0544350Y0151750D01*
X0544350Y0161750D02*
X0539150Y0161750D01*
X0539150Y0171750D02*
X0544350Y0171750D01*
X0544350Y0181750D02*
X0539150Y0181750D01*
X0569150Y0181750D02*
X0574350Y0181750D01*
X0574350Y0171750D02*
X0569150Y0171750D01*
X0569150Y0161750D02*
X0574350Y0161750D01*
X0574350Y0151750D02*
X0569150Y0151750D01*
X0569150Y0141750D02*
X0574350Y0141750D01*
X0574350Y0131750D02*
X0569150Y0131750D01*
X0569150Y0121750D02*
X0574350Y0121750D01*
X0574350Y0111750D02*
X0569150Y0111750D01*
X0537985Y0093200D02*
X0537985Y0088000D01*
X0527985Y0088000D02*
X0527985Y0093200D01*
X0517985Y0093200D02*
X0517985Y0088000D01*
X0507985Y0088000D02*
X0507985Y0093200D01*
X0497985Y0093200D02*
X0497985Y0088000D01*
X0487985Y0088000D02*
X0487985Y0093200D01*
X0477985Y0093200D02*
X0477985Y0088000D01*
X0467985Y0088000D02*
X0467985Y0093200D01*
X0467985Y0058000D02*
X0467985Y0052800D01*
X0477985Y0052800D02*
X0477985Y0058000D01*
X0487985Y0058000D02*
X0487985Y0052800D01*
X0497985Y0052800D02*
X0497985Y0058000D01*
X0507985Y0058000D02*
X0507985Y0052800D01*
X0517985Y0052800D02*
X0517985Y0058000D01*
X0527985Y0058000D02*
X0527985Y0052800D01*
X0537985Y0052800D02*
X0537985Y0058000D01*
X0326850Y0131750D02*
X0321650Y0131750D01*
X0321650Y0141750D02*
X0326850Y0141750D01*
X0351650Y0161750D02*
X0356850Y0161750D01*
X0356850Y0171750D02*
X0351650Y0171750D01*
D18*
X0314250Y0170490D03*
X0314250Y0163010D03*
X0314250Y0140490D03*
X0314250Y0133010D03*
X0314250Y0120490D03*
X0314250Y0113010D03*
X0385500Y0113010D03*
X0385500Y0120490D03*
X0385500Y0133010D03*
X0385500Y0140490D03*
X0385500Y0163010D03*
X0385500Y0170490D03*
X0456750Y0170490D03*
X0456750Y0163010D03*
X0456750Y0140490D03*
X0456750Y0133010D03*
X0456750Y0120490D03*
X0456750Y0113010D03*
X0414250Y0223010D03*
X0414250Y0230490D03*
X0463000Y0270510D03*
X0463000Y0277990D03*
X0501750Y0281760D03*
X0501750Y0289240D03*
X0593000Y0271740D03*
X0593000Y0264260D03*
D19*
X0405707Y0241022D03*
X0403148Y0241022D03*
X0400589Y0241022D03*
X0398030Y0241022D03*
X0395470Y0241022D03*
X0392911Y0241022D03*
X0390352Y0241022D03*
X0387793Y0241022D03*
X0387793Y0212478D03*
X0390352Y0212478D03*
X0392911Y0212478D03*
X0395470Y0212478D03*
X0398030Y0212478D03*
X0400589Y0212478D03*
X0403148Y0212478D03*
X0405707Y0212478D03*
D20*
X0373000Y0227390D03*
X0373000Y0238610D03*
D21*
X0528593Y0237734D02*
X0529655Y0237734D01*
X0529655Y0235766D02*
X0528593Y0235766D01*
X0528593Y0233797D02*
X0529655Y0233797D01*
X0529655Y0231829D02*
X0528593Y0231829D01*
X0528593Y0229860D02*
X0529655Y0229860D01*
X0529655Y0227892D02*
X0528593Y0227892D01*
X0528593Y0225923D02*
X0529655Y0225923D01*
X0529655Y0223955D02*
X0528593Y0223955D01*
X0528593Y0221986D02*
X0529655Y0221986D01*
X0531986Y0219655D02*
X0531986Y0218593D01*
X0533955Y0218593D02*
X0533955Y0219655D01*
X0535923Y0219655D02*
X0535923Y0218593D01*
X0537892Y0218593D02*
X0537892Y0219655D01*
X0539860Y0219655D02*
X0539860Y0218593D01*
X0541829Y0218593D02*
X0541829Y0219655D01*
X0543797Y0219655D02*
X0543797Y0218593D01*
X0545766Y0218593D02*
X0545766Y0219655D01*
X0547734Y0219655D02*
X0547734Y0218593D01*
X0549703Y0218593D02*
X0549703Y0219655D01*
X0551671Y0219655D02*
X0551671Y0218593D01*
X0553640Y0218593D02*
X0553640Y0219655D01*
X0555608Y0219655D02*
X0555608Y0218593D01*
X0557577Y0218593D02*
X0557577Y0219655D01*
X0559545Y0219655D02*
X0559545Y0218593D01*
X0561514Y0218593D02*
X0561514Y0219655D01*
X0563845Y0221986D02*
X0564907Y0221986D01*
X0564907Y0223955D02*
X0563845Y0223955D01*
X0563845Y0225923D02*
X0564907Y0225923D01*
X0564907Y0227892D02*
X0563845Y0227892D01*
X0563845Y0229860D02*
X0564907Y0229860D01*
X0564907Y0231829D02*
X0563845Y0231829D01*
X0563845Y0233797D02*
X0564907Y0233797D01*
X0564907Y0235766D02*
X0563845Y0235766D01*
X0563845Y0237734D02*
X0564907Y0237734D01*
X0564907Y0239703D02*
X0563845Y0239703D01*
X0563845Y0241671D02*
X0564907Y0241671D01*
X0564907Y0243640D02*
X0563845Y0243640D01*
X0563845Y0245608D02*
X0564907Y0245608D01*
X0564907Y0247577D02*
X0563845Y0247577D01*
X0563845Y0249545D02*
X0564907Y0249545D01*
X0564907Y0251514D02*
X0563845Y0251514D01*
X0561514Y0253845D02*
X0561514Y0254907D01*
X0559545Y0254907D02*
X0559545Y0253845D01*
X0557577Y0253845D02*
X0557577Y0254907D01*
X0555608Y0254907D02*
X0555608Y0253845D01*
X0553640Y0253845D02*
X0553640Y0254907D01*
X0551671Y0254907D02*
X0551671Y0253845D01*
X0549703Y0253845D02*
X0549703Y0254907D01*
X0547734Y0254907D02*
X0547734Y0253845D01*
X0545766Y0253845D02*
X0545766Y0254907D01*
X0543797Y0254907D02*
X0543797Y0253845D01*
X0541829Y0253845D02*
X0541829Y0254907D01*
X0539860Y0254907D02*
X0539860Y0253845D01*
X0537892Y0253845D02*
X0537892Y0254907D01*
X0535923Y0254907D02*
X0535923Y0253845D01*
X0533955Y0253845D02*
X0533955Y0254907D01*
X0531986Y0254907D02*
X0531986Y0253845D01*
X0529655Y0251514D02*
X0528593Y0251514D01*
X0528593Y0249545D02*
X0529655Y0249545D01*
X0529655Y0247577D02*
X0528593Y0247577D01*
X0528593Y0245608D02*
X0529655Y0245608D01*
X0529655Y0243640D02*
X0528593Y0243640D01*
X0528593Y0241671D02*
X0529655Y0241671D01*
X0529655Y0239703D02*
X0528593Y0239703D01*
D22*
X0532774Y0239363D02*
X0560726Y0239363D01*
X0560726Y0240161D02*
X0532774Y0240161D01*
X0532774Y0240960D02*
X0560726Y0240960D01*
X0560726Y0241758D02*
X0532774Y0241758D01*
X0532774Y0242557D02*
X0560726Y0242557D01*
X0560726Y0243355D02*
X0532774Y0243355D01*
X0532774Y0244154D02*
X0560726Y0244154D01*
X0560726Y0244953D02*
X0532774Y0244953D01*
X0532774Y0245751D02*
X0560726Y0245751D01*
X0560726Y0246550D02*
X0532774Y0246550D01*
X0532774Y0247348D02*
X0560726Y0247348D01*
X0560726Y0248147D02*
X0532774Y0248147D01*
X0532774Y0248945D02*
X0560726Y0248945D01*
X0560726Y0249744D02*
X0532774Y0249744D01*
X0532774Y0250542D02*
X0560726Y0250542D01*
X0560726Y0250726D02*
X0560726Y0222774D01*
X0534152Y0222774D01*
X0532774Y0224152D01*
X0532774Y0250726D01*
X0560726Y0250726D01*
X0560726Y0238564D02*
X0532774Y0238564D01*
X0532774Y0237766D02*
X0560726Y0237766D01*
X0560726Y0236967D02*
X0532774Y0236967D01*
X0532774Y0236169D02*
X0560726Y0236169D01*
X0560726Y0235370D02*
X0532774Y0235370D01*
X0532774Y0234572D02*
X0560726Y0234572D01*
X0560726Y0233773D02*
X0532774Y0233773D01*
X0532774Y0232975D02*
X0560726Y0232975D01*
X0560726Y0232176D02*
X0532774Y0232176D01*
X0532774Y0231378D02*
X0560726Y0231378D01*
X0560726Y0230579D02*
X0532774Y0230579D01*
X0532774Y0229781D02*
X0560726Y0229781D01*
X0560726Y0228982D02*
X0532774Y0228982D01*
X0532774Y0228184D02*
X0560726Y0228184D01*
X0560726Y0227385D02*
X0532774Y0227385D01*
X0532774Y0226587D02*
X0560726Y0226587D01*
X0560726Y0225788D02*
X0532774Y0225788D01*
X0532774Y0224990D02*
X0560726Y0224990D01*
X0560726Y0224191D02*
X0532774Y0224191D01*
X0533532Y0223393D02*
X0560726Y0223393D01*
D23*
X0449550Y0255750D02*
X0443950Y0255750D01*
X0443950Y0265750D02*
X0449550Y0265750D01*
X0449550Y0275750D02*
X0443950Y0275750D01*
X0443950Y0285750D02*
X0449550Y0285750D01*
X0449550Y0295750D02*
X0443950Y0295750D01*
D24*
X0530250Y0276750D03*
X0568250Y0276750D03*
D25*
X0305500Y0108671D03*
X0285500Y0108671D03*
X0285500Y0100010D03*
X0285500Y0091348D03*
X0305500Y0091348D03*
X0305500Y0100010D03*
X0305500Y0078750D03*
X0285500Y0078750D03*
D26*
X0636735Y0103000D03*
X0646735Y0103000D03*
X0656735Y0103000D03*
X0666735Y0103000D03*
X0682985Y0103000D03*
X0692985Y0103000D03*
X0702985Y0103000D03*
X0712985Y0103000D03*
X0729235Y0103000D03*
X0739235Y0103000D03*
X0749235Y0103000D03*
X0759235Y0103000D03*
X0759235Y0133000D03*
X0749235Y0133000D03*
X0739235Y0133000D03*
X0729235Y0133000D03*
X0712985Y0133000D03*
X0702985Y0133000D03*
X0692985Y0133000D03*
X0682985Y0133000D03*
X0666735Y0133000D03*
X0656735Y0133000D03*
X0646735Y0133000D03*
X0636735Y0133000D03*
X0336750Y0224250D03*
X0326750Y0224250D03*
X0316750Y0224250D03*
X0306750Y0224250D03*
X0306750Y0254250D03*
X0316750Y0254250D03*
X0326750Y0254250D03*
X0336750Y0254250D03*
D27*
X0326110Y0209250D03*
X0314890Y0209250D03*
D28*
X0191250Y0044950D02*
X0181250Y0044950D01*
X0181250Y0133550D02*
X0191250Y0133550D01*
D29*
X0368339Y0077350D03*
X0379139Y0077350D03*
X0389939Y0077350D03*
X0400739Y0077350D03*
X0411539Y0077350D03*
X0406139Y0066150D03*
X0395339Y0066150D03*
X0384539Y0066150D03*
X0373739Y0066150D03*
X0595285Y0076100D03*
X0606185Y0076100D03*
X0616985Y0076100D03*
X0627885Y0076100D03*
X0638785Y0076100D03*
X0649585Y0076100D03*
X0660485Y0076100D03*
X0671385Y0076100D03*
X0682185Y0076100D03*
X0693085Y0076100D03*
X0703985Y0076100D03*
X0714785Y0076100D03*
X0725685Y0076100D03*
X0720285Y0064900D03*
X0709385Y0064900D03*
X0698485Y0064900D03*
X0687685Y0064900D03*
X0676785Y0064900D03*
X0665885Y0064900D03*
X0655085Y0064900D03*
X0644185Y0064900D03*
X0633285Y0064900D03*
X0622485Y0064900D03*
X0611585Y0064900D03*
X0600685Y0064900D03*
X0688035Y0161150D03*
X0698835Y0161150D03*
X0709635Y0161150D03*
X0720435Y0161150D03*
X0715035Y0172350D03*
X0725835Y0172350D03*
X0704235Y0172350D03*
X0693435Y0172350D03*
X0682635Y0172350D03*
X0688035Y0216150D03*
X0698835Y0216150D03*
X0709635Y0216150D03*
X0720435Y0216150D03*
X0715035Y0227350D03*
X0725835Y0227350D03*
X0704235Y0227350D03*
X0693435Y0227350D03*
X0682635Y0227350D03*
X0688035Y0271150D03*
X0698835Y0271150D03*
X0709635Y0271150D03*
X0720435Y0271150D03*
X0715035Y0282350D03*
X0725835Y0282350D03*
X0704235Y0282350D03*
X0693435Y0282350D03*
X0682635Y0282350D03*
D30*
X0654935Y0276750D03*
X0753535Y0276750D03*
X0753535Y0221750D03*
X0654935Y0221750D03*
X0654935Y0166750D03*
X0753535Y0166750D03*
X0753085Y0070500D03*
X0567885Y0070500D03*
X0439239Y0071750D03*
X0340639Y0071750D03*
D31*
X0609235Y0156514D03*
X0614235Y0156514D03*
X0619235Y0156514D03*
X0624235Y0156514D03*
X0629235Y0156514D03*
X0634235Y0156514D03*
X0639235Y0156514D03*
X0639235Y0176986D03*
X0634235Y0176986D03*
X0629235Y0176986D03*
X0624235Y0176986D03*
X0619235Y0176986D03*
X0614235Y0176986D03*
X0609235Y0176986D03*
X0609235Y0211514D03*
X0614235Y0211514D03*
X0619235Y0211514D03*
X0624235Y0211514D03*
X0629235Y0211514D03*
X0634235Y0211514D03*
X0639235Y0211514D03*
X0639235Y0231986D03*
X0634235Y0231986D03*
X0629235Y0231986D03*
X0624235Y0231986D03*
X0619235Y0231986D03*
X0614235Y0231986D03*
X0609235Y0231986D03*
X0609235Y0266514D03*
X0614235Y0266514D03*
X0619235Y0266514D03*
X0624235Y0266514D03*
X0629235Y0266514D03*
X0634235Y0266514D03*
X0639235Y0266514D03*
X0639235Y0286986D03*
X0634235Y0286986D03*
X0629235Y0286986D03*
X0624235Y0286986D03*
X0619235Y0286986D03*
X0614235Y0286986D03*
X0609235Y0286986D03*
D32*
X0491986Y0286750D03*
X0491986Y0281750D03*
X0491986Y0276750D03*
X0491986Y0271750D03*
X0471514Y0271750D03*
X0471514Y0276750D03*
X0471514Y0281750D03*
X0471514Y0286750D03*
D33*
X0384750Y0291250D03*
X0384750Y0261250D03*
D34*
X0419750Y0268750D03*
X0409750Y0273750D03*
X0419750Y0278750D03*
X0409750Y0283750D03*
D35*
X0411750Y0261750D03*
X0471750Y0264250D03*
X0481750Y0270500D03*
X0491750Y0291750D03*
X0573000Y0258000D03*
X0583089Y0253250D03*
X0573000Y0244250D03*
X0568000Y0244350D03*
X0558000Y0240500D03*
X0554250Y0236750D03*
X0558000Y0233000D03*
X0574250Y0236950D03*
X0550500Y0248000D03*
X0546750Y0244250D03*
X0543000Y0248000D03*
X0535500Y0240500D03*
X0539250Y0236750D03*
X0535500Y0233000D03*
X0546750Y0229250D03*
X0543000Y0225500D03*
X0550500Y0225500D03*
X0574250Y0220500D03*
X0579250Y0213800D03*
X0599250Y0221000D03*
X0609235Y0224250D03*
X0614235Y0219250D03*
X0609235Y0204250D03*
X0605500Y0198000D03*
X0595500Y0200500D03*
X0591750Y0186750D03*
X0588000Y0179250D03*
X0599250Y0176136D03*
X0609235Y0169250D03*
X0609235Y0164250D03*
X0614235Y0164250D03*
X0619235Y0191750D03*
X0639235Y0194250D03*
X0554250Y0199250D03*
X0539750Y0202500D03*
X0509750Y0201750D03*
X0490500Y0190500D03*
X0515490Y0183050D03*
X0455500Y0210125D03*
X0455500Y0222625D03*
X0455500Y0235125D03*
X0428000Y0235125D03*
X0401281Y0230492D03*
X0391953Y0230514D03*
X0391953Y0223040D03*
X0401281Y0223040D03*
X0428000Y0222625D03*
X0428000Y0210125D03*
X0484250Y0231375D03*
X0506750Y0233266D03*
X0510500Y0244624D03*
X0515500Y0244624D03*
X0520500Y0244624D03*
X0606750Y0260500D03*
X0639235Y0249250D03*
X0614250Y0274250D03*
X0609250Y0279250D03*
X0594250Y0284250D03*
X0366750Y0203000D03*
X0236750Y0169250D03*
X0219250Y0169250D03*
X0219250Y0176750D03*
X0176750Y0179250D03*
X0176750Y0166750D03*
X0176750Y0154250D03*
X0176750Y0191750D03*
X0176750Y0204250D03*
X0205500Y0246750D03*
X0225500Y0246750D03*
X0196750Y0266750D03*
X0264250Y0266750D03*
X0373000Y0141750D03*
X0444250Y0141750D03*
X0515490Y0141740D03*
X0319250Y0089250D03*
X0276000Y0073000D03*
D36*
X0379250Y0189250D03*
X0384250Y0194250D03*
X0366750Y0194250D03*
X0351750Y0196750D03*
X0405500Y0189250D03*
X0439250Y0194250D03*
X0460500Y0189250D03*
X0465500Y0194250D03*
X0500500Y0204250D03*
X0619235Y0204250D03*
X0619250Y0259250D03*
X0708000Y0304250D03*
X0389250Y0249250D03*
X0338000Y0279250D03*
X0621735Y0149250D03*
M02*
