G75*
%MOIN*%
%OFA0B0*%
%FSLAX25Y25*%
%IPPOS*%
%LPD*%
%AMOC8*
5,1,8,0,0,1.08239X$1,22.5*
%
%ADD10C,0.10800*%
%ADD11C,0.02160*%
%ADD12R,0.06706X0.05918*%
%ADD13C,0.08600*%
%ADD14R,0.07099X0.07898*%
%ADD15OC8,0.10800*%
%ADD16R,0.05918X0.06706*%
%ADD17C,0.06000*%
%ADD18C,0.06400*%
%ADD19OC8,0.06146*%
%ADD20R,0.06312X0.04737*%
%ADD21C,0.06000*%
%ADD22C,0.10800*%
%ADD23OC8,0.06800*%
%ADD24C,0.20800*%
%ADD25R,0.05400X0.07100*%
%ADD26R,0.00600X0.07200*%
%ADD27R,0.07100X0.05400*%
%ADD28R,0.07200X0.00600*%
%ADD29C,0.13600*%
%ADD30C,0.06300*%
%ADD31C,0.04000*%
%ADD32C,0.04400*%
D10*
X0265955Y0100955D03*
X0325500Y0294250D03*
D11*
X0248574Y0086104D02*
X0247494Y0085024D01*
X0247494Y0088602D01*
X0250024Y0091132D01*
X0253602Y0091132D01*
X0256132Y0088602D01*
X0256132Y0085024D01*
X0253602Y0082494D01*
X0250024Y0082494D01*
X0247494Y0085024D01*
X0249114Y0085695D01*
X0249114Y0087931D01*
X0250695Y0089512D01*
X0252931Y0089512D01*
X0254512Y0087931D01*
X0254512Y0085695D01*
X0252931Y0084114D01*
X0250695Y0084114D01*
X0249114Y0085695D01*
X0250734Y0086366D01*
X0250734Y0087260D01*
X0251366Y0087892D01*
X0252260Y0087892D01*
X0252892Y0087260D01*
X0252892Y0086366D01*
X0252260Y0085734D01*
X0251366Y0085734D01*
X0250734Y0086366D01*
D12*
X0276000Y0087990D03*
X0276000Y0080510D03*
X0336750Y0113010D03*
X0344750Y0113010D03*
X0344750Y0120490D03*
X0336750Y0120490D03*
X0334250Y0133010D03*
X0344250Y0133010D03*
X0344250Y0140490D03*
X0334250Y0140490D03*
X0334250Y0153010D03*
X0344250Y0153010D03*
X0344250Y0160490D03*
X0334250Y0160490D03*
X0334250Y0170510D03*
X0344250Y0170510D03*
X0344250Y0177990D03*
X0334250Y0177990D03*
X0364250Y0160490D03*
X0364250Y0153010D03*
X0405500Y0153010D03*
X0415500Y0153010D03*
X0415500Y0160490D03*
X0405500Y0160490D03*
X0405500Y0170510D03*
X0415500Y0170510D03*
X0415500Y0177990D03*
X0405500Y0177990D03*
X0435500Y0160490D03*
X0435500Y0153010D03*
X0415500Y0140490D03*
X0405500Y0140490D03*
X0405500Y0133010D03*
X0415500Y0133010D03*
X0416000Y0120490D03*
X0408000Y0120490D03*
X0408000Y0113010D03*
X0416000Y0113010D03*
X0479250Y0113010D03*
X0487250Y0113010D03*
X0487250Y0120490D03*
X0479250Y0120490D03*
X0476750Y0133010D03*
X0486750Y0133010D03*
X0486750Y0140490D03*
X0476750Y0140490D03*
X0476750Y0153010D03*
X0486750Y0153010D03*
X0486750Y0160490D03*
X0476750Y0160490D03*
X0476750Y0170510D03*
X0486750Y0170510D03*
X0486750Y0177990D03*
X0476750Y0177990D03*
X0506750Y0160490D03*
X0506750Y0153010D03*
X0656735Y0122990D03*
X0656735Y0115510D03*
X0702985Y0115510D03*
X0702985Y0122990D03*
X0749235Y0122990D03*
X0749235Y0115510D03*
X0406750Y0223010D03*
X0406750Y0230490D03*
X0386496Y0230521D03*
X0386496Y0223041D03*
X0288000Y0207990D03*
X0288000Y0200510D03*
X0286750Y0246760D03*
X0286750Y0254240D03*
X0431750Y0279260D03*
X0431750Y0286740D03*
X0481750Y0285490D03*
X0481750Y0278010D03*
X0299250Y0134240D03*
X0299250Y0126760D03*
D13*
X0268000Y0130650D02*
X0268000Y0122850D01*
X0248000Y0122850D02*
X0248000Y0130650D01*
X0218000Y0130650D02*
X0218000Y0122850D01*
X0219350Y0058150D02*
X0219350Y0050350D01*
X0239150Y0050350D02*
X0239150Y0058150D01*
X0259550Y0058150D02*
X0259550Y0050350D01*
X0279250Y0050350D02*
X0279250Y0058150D01*
X0298950Y0058150D02*
X0298950Y0050350D01*
X0298000Y0202850D02*
X0298000Y0210650D01*
X0258000Y0210650D02*
X0258000Y0202850D01*
X0218000Y0202850D02*
X0218000Y0210650D01*
D14*
X0186098Y0148000D03*
X0174902Y0148000D03*
D15*
X0325500Y0274250D03*
D16*
X0304240Y0294250D03*
X0296760Y0294250D03*
X0277990Y0280500D03*
X0270510Y0280500D03*
X0270510Y0250500D03*
X0277990Y0250500D03*
X0328010Y0233000D03*
X0335490Y0233000D03*
X0429260Y0255500D03*
X0436740Y0255500D03*
X0436740Y0265750D03*
X0429260Y0265750D03*
X0438010Y0235125D03*
X0445490Y0235125D03*
X0445490Y0222625D03*
X0438010Y0222625D03*
X0438010Y0210125D03*
X0445490Y0210125D03*
X0620495Y0213000D03*
X0627975Y0213000D03*
X0627975Y0221750D03*
X0620495Y0221750D03*
X0620495Y0230500D03*
X0627975Y0230500D03*
X0720510Y0238000D03*
X0727990Y0238000D03*
X0730495Y0216750D03*
X0737975Y0216750D03*
X0737975Y0208000D03*
X0730495Y0208000D03*
X0727990Y0183000D03*
X0720510Y0183000D03*
X0627975Y0175500D03*
X0620495Y0175500D03*
X0620495Y0166750D03*
X0627975Y0166750D03*
X0627975Y0158000D03*
X0620495Y0158000D03*
X0637995Y0123000D03*
X0645475Y0123000D03*
X0684245Y0123000D03*
X0691725Y0123000D03*
X0730495Y0123000D03*
X0737975Y0123000D03*
X0739225Y0091750D03*
X0731745Y0091750D03*
X0750495Y0091750D03*
X0757975Y0091750D03*
X0711725Y0091750D03*
X0704245Y0091750D03*
X0692975Y0091750D03*
X0685495Y0091750D03*
X0665475Y0091750D03*
X0657995Y0091750D03*
X0646725Y0091750D03*
X0639245Y0091750D03*
X0649245Y0053000D03*
X0656725Y0053000D03*
G36*
X0662860Y0049598D02*
X0667045Y0053783D01*
X0671786Y0049042D01*
X0667601Y0044857D01*
X0662860Y0049598D01*
G37*
G36*
X0668149Y0054887D02*
X0672334Y0059072D01*
X0677075Y0054331D01*
X0672890Y0050146D01*
X0668149Y0054887D01*
G37*
G36*
X0679917Y0053940D02*
X0684102Y0058125D01*
X0688843Y0053384D01*
X0684658Y0049199D01*
X0679917Y0053940D01*
G37*
G36*
X0674628Y0048651D02*
X0678813Y0052836D01*
X0683554Y0048095D01*
X0679369Y0043910D01*
X0674628Y0048651D01*
G37*
G36*
X0686761Y0048499D02*
X0690946Y0052684D01*
X0695687Y0047943D01*
X0691502Y0043758D01*
X0686761Y0048499D01*
G37*
G36*
X0692051Y0053789D02*
X0696236Y0057974D01*
X0700977Y0053233D01*
X0696792Y0049048D01*
X0692051Y0053789D01*
G37*
X0536755Y0066750D03*
X0529275Y0066750D03*
X0516725Y0066750D03*
X0509245Y0066750D03*
X0496755Y0066750D03*
X0489275Y0066750D03*
X0476725Y0066750D03*
X0469245Y0066750D03*
X0469275Y0079250D03*
X0476755Y0079250D03*
X0489245Y0079250D03*
X0496725Y0079250D03*
X0509275Y0079250D03*
X0516755Y0079250D03*
X0529245Y0079250D03*
X0536725Y0079250D03*
X0184240Y0160500D03*
X0176760Y0160500D03*
X0176760Y0173000D03*
X0184240Y0173000D03*
X0184240Y0185500D03*
X0176760Y0185500D03*
X0176760Y0198000D03*
X0184240Y0198000D03*
X0620495Y0268000D03*
X0627975Y0268000D03*
X0627975Y0276750D03*
X0620495Y0276750D03*
X0620495Y0285500D03*
X0627975Y0285500D03*
X0720510Y0293000D03*
X0727990Y0293000D03*
D17*
X0574350Y0181750D02*
X0569150Y0181750D01*
X0569150Y0171750D02*
X0574350Y0171750D01*
X0574350Y0161750D02*
X0569150Y0161750D01*
X0569150Y0151750D02*
X0574350Y0151750D01*
X0574350Y0141750D02*
X0569150Y0141750D01*
X0569150Y0131750D02*
X0574350Y0131750D01*
X0574350Y0121750D02*
X0569150Y0121750D01*
X0569150Y0111750D02*
X0574350Y0111750D01*
X0544350Y0111750D02*
X0539150Y0111750D01*
X0539150Y0121750D02*
X0544350Y0121750D01*
X0544350Y0131750D02*
X0539150Y0131750D01*
X0539150Y0141750D02*
X0544350Y0141750D01*
X0544350Y0151750D02*
X0539150Y0151750D01*
X0539150Y0161750D02*
X0544350Y0161750D01*
X0544350Y0171750D02*
X0539150Y0171750D01*
X0539150Y0181750D02*
X0544350Y0181750D01*
X0499468Y0171750D02*
X0494268Y0171750D01*
X0494268Y0161750D02*
X0499468Y0161750D01*
X0499468Y0151750D02*
X0494268Y0151750D01*
X0494268Y0141750D02*
X0499468Y0141750D01*
X0499468Y0131750D02*
X0494268Y0131750D01*
X0494268Y0121750D02*
X0499468Y0121750D01*
X0499468Y0111750D02*
X0494268Y0111750D01*
X0469468Y0111750D02*
X0464268Y0111750D01*
X0464268Y0121750D02*
X0469468Y0121750D01*
X0469468Y0131750D02*
X0464268Y0131750D01*
X0464268Y0141750D02*
X0469468Y0141750D01*
X0469468Y0151750D02*
X0464268Y0151750D01*
X0464268Y0161750D02*
X0469468Y0161750D01*
X0469468Y0171750D02*
X0464268Y0171750D01*
X0428100Y0171750D02*
X0422900Y0171750D01*
X0422900Y0161750D02*
X0428100Y0161750D01*
X0428100Y0151750D02*
X0422900Y0151750D01*
X0422900Y0141750D02*
X0428100Y0141750D01*
X0428100Y0131750D02*
X0422900Y0131750D01*
X0422900Y0121750D02*
X0428100Y0121750D01*
X0428100Y0111750D02*
X0422900Y0111750D01*
X0398100Y0111750D02*
X0392900Y0111750D01*
X0392900Y0121750D02*
X0398100Y0121750D01*
X0398100Y0131750D02*
X0392900Y0131750D01*
X0392900Y0141750D02*
X0398100Y0141750D01*
X0398100Y0151750D02*
X0392900Y0151750D01*
X0392900Y0161750D02*
X0398100Y0161750D01*
X0398100Y0171750D02*
X0392900Y0171750D01*
X0356850Y0171750D02*
X0351650Y0171750D01*
X0351650Y0161750D02*
X0356850Y0161750D01*
X0356850Y0151750D02*
X0351650Y0151750D01*
X0326850Y0151750D02*
X0321650Y0151750D01*
X0321650Y0141750D02*
X0326850Y0141750D01*
X0326850Y0131750D02*
X0321650Y0131750D01*
X0321650Y0121750D02*
X0326850Y0121750D01*
X0351650Y0121750D02*
X0356850Y0121750D01*
X0356850Y0111750D02*
X0351650Y0111750D01*
X0326850Y0111750D02*
X0321650Y0111750D01*
X0351650Y0131750D02*
X0356850Y0131750D01*
X0356850Y0141750D02*
X0351650Y0141750D01*
X0326850Y0161750D02*
X0321650Y0161750D01*
X0321650Y0171750D02*
X0326850Y0171750D01*
X0279250Y0232900D02*
X0279250Y0238100D01*
X0259250Y0238100D02*
X0259250Y0232900D01*
X0199250Y0232900D02*
X0199250Y0238100D01*
X0189250Y0238100D02*
X0189250Y0232900D01*
X0189250Y0292900D02*
X0189250Y0298100D01*
X0199250Y0298100D02*
X0199250Y0292900D01*
X0259250Y0292900D02*
X0259250Y0298100D01*
X0279250Y0298100D02*
X0279250Y0292900D01*
X0467985Y0093200D02*
X0467985Y0088000D01*
X0477985Y0088000D02*
X0477985Y0093200D01*
X0487985Y0093200D02*
X0487985Y0088000D01*
X0497985Y0088000D02*
X0497985Y0093200D01*
X0507985Y0093200D02*
X0507985Y0088000D01*
X0517985Y0088000D02*
X0517985Y0093200D01*
X0527985Y0093200D02*
X0527985Y0088000D01*
X0537985Y0088000D02*
X0537985Y0093200D01*
X0537985Y0058000D02*
X0537985Y0052800D01*
X0527985Y0052800D02*
X0527985Y0058000D01*
X0517985Y0058000D02*
X0517985Y0052800D01*
X0507985Y0052800D02*
X0507985Y0058000D01*
X0497985Y0058000D02*
X0497985Y0052800D01*
X0487985Y0052800D02*
X0487985Y0058000D01*
X0477985Y0058000D02*
X0477985Y0052800D01*
X0467985Y0052800D02*
X0467985Y0058000D01*
D18*
X0449550Y0255750D02*
X0443950Y0255750D01*
X0443950Y0265750D02*
X0449550Y0265750D01*
X0449550Y0275750D02*
X0443950Y0275750D01*
X0443950Y0285750D02*
X0449550Y0285750D01*
X0449550Y0295750D02*
X0443950Y0295750D01*
D19*
X0305500Y0108671D03*
X0285500Y0108671D03*
X0285500Y0100010D03*
X0285500Y0091348D03*
X0305500Y0091348D03*
X0305500Y0100010D03*
X0305500Y0078750D03*
X0285500Y0078750D03*
D20*
X0291081Y0119260D03*
X0282419Y0123000D03*
X0291081Y0126740D03*
D21*
X0306750Y0224250D03*
X0316750Y0224250D03*
X0326750Y0224250D03*
X0336750Y0224250D03*
X0336750Y0254250D03*
X0326750Y0254250D03*
X0316750Y0254250D03*
X0306750Y0254250D03*
X0636735Y0133000D03*
X0646735Y0133000D03*
X0656735Y0133000D03*
X0666735Y0133000D03*
X0682985Y0133000D03*
X0692985Y0133000D03*
X0702985Y0133000D03*
X0712985Y0133000D03*
X0729235Y0133000D03*
X0739235Y0133000D03*
X0749235Y0133000D03*
X0759235Y0133000D03*
X0759235Y0103000D03*
X0749235Y0103000D03*
X0739235Y0103000D03*
X0729235Y0103000D03*
X0712985Y0103000D03*
X0702985Y0103000D03*
X0692985Y0103000D03*
X0682985Y0103000D03*
X0666735Y0103000D03*
X0656735Y0103000D03*
X0646735Y0103000D03*
X0636735Y0103000D03*
D22*
X0191250Y0044950D02*
X0181250Y0044950D01*
X0181250Y0133550D02*
X0191250Y0133550D01*
D23*
X0368339Y0077350D03*
X0379139Y0077350D03*
X0389939Y0077350D03*
X0400739Y0077350D03*
X0411539Y0077350D03*
X0406139Y0066150D03*
X0395339Y0066150D03*
X0384539Y0066150D03*
X0373739Y0066150D03*
X0595285Y0076100D03*
X0606185Y0076100D03*
X0616985Y0076100D03*
X0627885Y0076100D03*
X0638785Y0076100D03*
X0649585Y0076100D03*
X0660485Y0076100D03*
X0671385Y0076100D03*
X0682185Y0076100D03*
X0693085Y0076100D03*
X0703985Y0076100D03*
X0714785Y0076100D03*
X0725685Y0076100D03*
X0720285Y0064900D03*
X0709385Y0064900D03*
X0698485Y0064900D03*
X0687685Y0064900D03*
X0676785Y0064900D03*
X0665885Y0064900D03*
X0655085Y0064900D03*
X0644185Y0064900D03*
X0633285Y0064900D03*
X0622485Y0064900D03*
X0611585Y0064900D03*
X0600685Y0064900D03*
X0688035Y0161150D03*
X0698835Y0161150D03*
X0709635Y0161150D03*
X0720435Y0161150D03*
X0715035Y0172350D03*
X0725835Y0172350D03*
X0704235Y0172350D03*
X0693435Y0172350D03*
X0682635Y0172350D03*
X0688035Y0216150D03*
X0698835Y0216150D03*
X0709635Y0216150D03*
X0720435Y0216150D03*
X0715035Y0227350D03*
X0725835Y0227350D03*
X0704235Y0227350D03*
X0693435Y0227350D03*
X0682635Y0227350D03*
X0688035Y0271150D03*
X0698835Y0271150D03*
X0709635Y0271150D03*
X0720435Y0271150D03*
X0715035Y0282350D03*
X0725835Y0282350D03*
X0704235Y0282350D03*
X0693435Y0282350D03*
X0682635Y0282350D03*
D24*
X0654935Y0276750D03*
X0753535Y0276750D03*
X0753535Y0221750D03*
X0654935Y0221750D03*
X0654935Y0166750D03*
X0753535Y0166750D03*
X0753085Y0070500D03*
X0567885Y0070500D03*
X0439239Y0071750D03*
X0340639Y0071750D03*
D25*
X0521250Y0121750D03*
X0527250Y0121750D03*
X0698735Y0186750D03*
X0704735Y0186750D03*
X0709985Y0201750D03*
X0715985Y0201750D03*
X0704735Y0241750D03*
X0698735Y0241750D03*
X0709985Y0256750D03*
X0715985Y0256750D03*
X0704735Y0291750D03*
X0698735Y0291750D03*
X0709985Y0146750D03*
X0715985Y0146750D03*
D26*
X0712985Y0146750D03*
X0701735Y0186750D03*
X0712985Y0201750D03*
X0701735Y0241750D03*
X0712985Y0256750D03*
X0701735Y0291750D03*
X0524250Y0121750D03*
D27*
X0671735Y0163750D03*
X0671735Y0169750D03*
X0671735Y0218750D03*
X0671735Y0224750D03*
X0671735Y0273750D03*
X0671735Y0279750D03*
D28*
X0671735Y0276750D03*
X0671735Y0221750D03*
X0671735Y0166750D03*
D29*
X0384750Y0261250D03*
X0384750Y0291250D03*
D30*
X0409750Y0283750D03*
X0419750Y0278750D03*
X0409750Y0273750D03*
X0419750Y0268750D03*
D31*
X0411750Y0261750D03*
X0471750Y0264250D03*
X0481750Y0270500D03*
X0491750Y0291750D03*
X0573000Y0258000D03*
X0583089Y0253250D03*
X0573000Y0244250D03*
X0568000Y0244350D03*
X0558000Y0240500D03*
X0554250Y0236750D03*
X0558000Y0233000D03*
X0574250Y0236950D03*
X0550500Y0248000D03*
X0546750Y0244250D03*
X0543000Y0248000D03*
X0535500Y0240500D03*
X0539250Y0236750D03*
X0535500Y0233000D03*
X0546750Y0229250D03*
X0543000Y0225500D03*
X0550500Y0225500D03*
X0574250Y0220500D03*
X0579250Y0213800D03*
X0599250Y0221000D03*
X0609235Y0224250D03*
X0614235Y0219250D03*
X0609235Y0204250D03*
X0605500Y0198000D03*
X0595500Y0200500D03*
X0591750Y0186750D03*
X0588000Y0179250D03*
X0599250Y0176136D03*
X0609235Y0169250D03*
X0609235Y0164250D03*
X0614235Y0164250D03*
X0619235Y0191750D03*
X0639235Y0194250D03*
X0554250Y0199250D03*
X0539750Y0202500D03*
X0509750Y0201750D03*
X0490500Y0190500D03*
X0515490Y0183050D03*
X0455500Y0210125D03*
X0455500Y0222625D03*
X0455500Y0235125D03*
X0428000Y0235125D03*
X0401281Y0230492D03*
X0391953Y0230514D03*
X0391953Y0223040D03*
X0401281Y0223040D03*
X0428000Y0222625D03*
X0428000Y0210125D03*
X0484250Y0231375D03*
X0506750Y0233266D03*
X0510500Y0244624D03*
X0515500Y0244624D03*
X0520500Y0244624D03*
X0606750Y0260500D03*
X0639235Y0249250D03*
X0614250Y0274250D03*
X0609250Y0279250D03*
X0594250Y0284250D03*
X0366750Y0203000D03*
X0236750Y0169250D03*
X0219250Y0169250D03*
X0219250Y0176750D03*
X0176750Y0179250D03*
X0176750Y0166750D03*
X0176750Y0154250D03*
X0176750Y0191750D03*
X0176750Y0204250D03*
X0205500Y0246750D03*
X0225500Y0246750D03*
X0196750Y0266750D03*
X0264250Y0266750D03*
X0373000Y0141750D03*
X0444250Y0141750D03*
X0515490Y0141740D03*
X0319250Y0089250D03*
X0276000Y0073000D03*
D32*
X0379250Y0189250D03*
X0384250Y0194250D03*
X0366750Y0194250D03*
X0351750Y0196750D03*
X0405500Y0189250D03*
X0439250Y0194250D03*
X0460500Y0189250D03*
X0465500Y0194250D03*
X0500500Y0204250D03*
X0619235Y0204250D03*
X0619250Y0259250D03*
X0708000Y0304250D03*
X0389250Y0249250D03*
X0338000Y0279250D03*
X0621735Y0149250D03*
M02*
