G75*
%MOIN*%
%OFA0B0*%
%FSLAX25Y25*%
%IPPOS*%
%LPD*%
%AMOC8*
5,1,8,0,0,1.08239X$1,22.5*
%
%ADD10C,0.00500*%
%ADD11C,0.00600*%
%ADD12C,0.00400*%
D10*
X0272875Y0077750D02*
X0279125Y0077750D01*
X0279125Y0083000D01*
X0279125Y0085500D02*
X0279125Y0090750D01*
X0272875Y0090750D01*
X0272875Y0085500D01*
X0272875Y0083000D02*
X0272875Y0077750D01*
X0333625Y0110250D02*
X0339875Y0110250D01*
X0339875Y0115500D01*
X0341625Y0115500D02*
X0341625Y0110250D01*
X0347875Y0110250D01*
X0347875Y0115500D01*
X0347875Y0118000D02*
X0347875Y0123250D01*
X0341625Y0123250D01*
X0341625Y0118000D01*
X0339875Y0118000D02*
X0339875Y0123250D01*
X0333625Y0123250D01*
X0333625Y0118000D01*
X0333625Y0115500D02*
X0333625Y0110250D01*
X0302375Y0124000D02*
X0302375Y0129250D01*
X0302375Y0131750D02*
X0302375Y0137000D01*
X0296125Y0137000D01*
X0296125Y0131750D01*
X0296125Y0129250D02*
X0296125Y0124000D01*
X0302375Y0124000D01*
X0289250Y0124875D02*
X0289250Y0121125D01*
X0288625Y0117375D02*
X0284250Y0117375D01*
X0284250Y0121125D01*
X0284250Y0124875D02*
X0284250Y0128625D01*
X0288625Y0128625D01*
X0331125Y0130250D02*
X0331125Y0135500D01*
X0331125Y0138000D02*
X0331125Y0143250D01*
X0337375Y0143250D01*
X0337375Y0138000D01*
X0337375Y0135500D02*
X0337375Y0130250D01*
X0331125Y0130250D01*
X0341125Y0130250D02*
X0347375Y0130250D01*
X0347375Y0135500D01*
X0347375Y0138000D02*
X0347375Y0143250D01*
X0341125Y0143250D01*
X0341125Y0138000D01*
X0341125Y0135500D02*
X0341125Y0130250D01*
X0341125Y0150250D02*
X0341125Y0155500D01*
X0341125Y0158000D02*
X0341125Y0163250D01*
X0347375Y0163250D01*
X0347375Y0158000D01*
X0347375Y0155500D02*
X0347375Y0150250D01*
X0341125Y0150250D01*
X0337375Y0150250D02*
X0337375Y0155500D01*
X0337375Y0158000D02*
X0337375Y0163250D01*
X0331125Y0163250D01*
X0331125Y0158000D01*
X0331125Y0155500D02*
X0331125Y0150250D01*
X0337375Y0150250D01*
X0361125Y0150250D02*
X0361125Y0155500D01*
X0361125Y0158000D02*
X0361125Y0163250D01*
X0367375Y0163250D01*
X0367375Y0158000D01*
X0367375Y0155500D02*
X0367375Y0150250D01*
X0361125Y0150250D01*
X0347375Y0167750D02*
X0341125Y0167750D01*
X0341125Y0173000D01*
X0341125Y0175500D02*
X0341125Y0180750D01*
X0347375Y0180750D01*
X0347375Y0175500D01*
X0347375Y0173000D02*
X0347375Y0167750D01*
X0337375Y0167750D02*
X0331125Y0167750D01*
X0331125Y0173000D01*
X0331125Y0175500D02*
X0331125Y0180750D01*
X0337375Y0180750D01*
X0337375Y0175500D01*
X0337375Y0173000D02*
X0337375Y0167750D01*
X0402375Y0167750D02*
X0402375Y0173000D01*
X0402375Y0175500D02*
X0402375Y0180750D01*
X0408625Y0180750D01*
X0408625Y0175500D01*
X0408625Y0173000D02*
X0408625Y0167750D01*
X0402375Y0167750D01*
X0402375Y0163250D02*
X0408625Y0163250D01*
X0408625Y0158000D01*
X0408625Y0155500D02*
X0408625Y0150250D01*
X0402375Y0150250D01*
X0402375Y0155500D01*
X0402375Y0158000D02*
X0402375Y0163250D01*
X0412375Y0163250D02*
X0412375Y0158000D01*
X0412375Y0155500D02*
X0412375Y0150250D01*
X0418625Y0150250D01*
X0418625Y0155500D01*
X0418625Y0158000D02*
X0418625Y0163250D01*
X0412375Y0163250D01*
X0412375Y0167750D02*
X0412375Y0173000D01*
X0412375Y0175500D02*
X0412375Y0180750D01*
X0418625Y0180750D01*
X0418625Y0175500D01*
X0418625Y0173000D02*
X0418625Y0167750D01*
X0412375Y0167750D01*
X0432375Y0163250D02*
X0432375Y0158000D01*
X0432375Y0155500D02*
X0432375Y0150250D01*
X0438625Y0150250D01*
X0438625Y0155500D01*
X0438625Y0158000D02*
X0438625Y0163250D01*
X0432375Y0163250D01*
X0473625Y0163250D02*
X0473625Y0158000D01*
X0473625Y0155500D02*
X0473625Y0150250D01*
X0479875Y0150250D01*
X0479875Y0155500D01*
X0479875Y0158000D02*
X0479875Y0163250D01*
X0473625Y0163250D01*
X0473625Y0167750D02*
X0473625Y0173000D01*
X0473625Y0175500D02*
X0473625Y0180750D01*
X0479875Y0180750D01*
X0479875Y0175500D01*
X0479875Y0173000D02*
X0479875Y0167750D01*
X0473625Y0167750D01*
X0483625Y0167750D02*
X0483625Y0173000D01*
X0483625Y0175500D02*
X0483625Y0180750D01*
X0489875Y0180750D01*
X0489875Y0175500D01*
X0489875Y0173000D02*
X0489875Y0167750D01*
X0483625Y0167750D01*
X0483625Y0163250D02*
X0483625Y0158000D01*
X0483625Y0155500D02*
X0483625Y0150250D01*
X0489875Y0150250D01*
X0489875Y0155500D01*
X0489875Y0158000D02*
X0489875Y0163250D01*
X0483625Y0163250D01*
X0503625Y0163250D02*
X0503625Y0158000D01*
X0503625Y0155500D02*
X0503625Y0150250D01*
X0509875Y0150250D01*
X0509875Y0155500D01*
X0509875Y0158000D02*
X0509875Y0163250D01*
X0503625Y0163250D01*
X0489875Y0143250D02*
X0483625Y0143250D01*
X0483625Y0138000D01*
X0483625Y0135500D02*
X0483625Y0130250D01*
X0489875Y0130250D01*
X0489875Y0135500D01*
X0489875Y0138000D02*
X0489875Y0143250D01*
X0479875Y0143250D02*
X0473625Y0143250D01*
X0473625Y0138000D01*
X0473625Y0135500D02*
X0473625Y0130250D01*
X0479875Y0130250D01*
X0479875Y0135500D01*
X0479875Y0138000D02*
X0479875Y0143250D01*
X0482375Y0123250D02*
X0476125Y0123250D01*
X0476125Y0118000D01*
X0476125Y0115500D02*
X0476125Y0110250D01*
X0482375Y0110250D01*
X0482375Y0115500D01*
X0484125Y0115500D02*
X0484125Y0110250D01*
X0490375Y0110250D01*
X0490375Y0115500D01*
X0490375Y0118000D02*
X0490375Y0123250D01*
X0484125Y0123250D01*
X0484125Y0118000D01*
X0482375Y0118000D02*
X0482375Y0123250D01*
X0419125Y0123250D02*
X0419125Y0118000D01*
X0419125Y0115500D02*
X0419125Y0110250D01*
X0412875Y0110250D01*
X0412875Y0115500D01*
X0411125Y0115500D02*
X0411125Y0110250D01*
X0404875Y0110250D01*
X0404875Y0115500D01*
X0404875Y0118000D02*
X0404875Y0123250D01*
X0411125Y0123250D01*
X0411125Y0118000D01*
X0412875Y0118000D02*
X0412875Y0123250D01*
X0419125Y0123250D01*
X0418625Y0130250D02*
X0418625Y0135500D01*
X0418625Y0138000D02*
X0418625Y0143250D01*
X0412375Y0143250D01*
X0412375Y0138000D01*
X0412375Y0135500D02*
X0412375Y0130250D01*
X0418625Y0130250D01*
X0408625Y0130250D02*
X0402375Y0130250D01*
X0402375Y0135500D01*
X0402375Y0138000D02*
X0402375Y0143250D01*
X0408625Y0143250D01*
X0408625Y0138000D01*
X0408625Y0135500D02*
X0408625Y0130250D01*
X0466515Y0082375D02*
X0471765Y0082375D01*
X0474265Y0082375D02*
X0479515Y0082375D01*
X0479515Y0076125D01*
X0474265Y0076125D01*
X0471765Y0076125D02*
X0466515Y0076125D01*
X0466515Y0082375D01*
X0486485Y0082375D02*
X0486485Y0076125D01*
X0491735Y0076125D01*
X0494235Y0076125D02*
X0499485Y0076125D01*
X0499485Y0082375D01*
X0494235Y0082375D01*
X0491735Y0082375D02*
X0486485Y0082375D01*
X0506515Y0082375D02*
X0506515Y0076125D01*
X0511765Y0076125D01*
X0514265Y0076125D02*
X0519515Y0076125D01*
X0519515Y0082375D01*
X0514265Y0082375D01*
X0511765Y0082375D02*
X0506515Y0082375D01*
X0526485Y0082375D02*
X0526485Y0076125D01*
X0531735Y0076125D01*
X0534235Y0076125D02*
X0539485Y0076125D01*
X0539485Y0082375D01*
X0534235Y0082375D01*
X0531735Y0082375D02*
X0526485Y0082375D01*
X0526515Y0069875D02*
X0531765Y0069875D01*
X0534265Y0069875D02*
X0539515Y0069875D01*
X0539515Y0063625D01*
X0534265Y0063625D01*
X0531765Y0063625D02*
X0526515Y0063625D01*
X0526515Y0069875D01*
X0519485Y0069875D02*
X0514235Y0069875D01*
X0511735Y0069875D02*
X0506485Y0069875D01*
X0506485Y0063625D01*
X0511735Y0063625D01*
X0514235Y0063625D02*
X0519485Y0063625D01*
X0519485Y0069875D01*
X0499515Y0069875D02*
X0499515Y0063625D01*
X0494265Y0063625D01*
X0491765Y0063625D02*
X0486515Y0063625D01*
X0486515Y0069875D01*
X0491765Y0069875D01*
X0494265Y0069875D02*
X0499515Y0069875D01*
X0479485Y0069875D02*
X0479485Y0063625D01*
X0474235Y0063625D01*
X0471735Y0063625D02*
X0466485Y0063625D01*
X0466485Y0069875D01*
X0471735Y0069875D01*
X0474235Y0069875D02*
X0479485Y0069875D01*
X0635235Y0119875D02*
X0635235Y0126125D01*
X0640485Y0126125D01*
X0642985Y0126125D02*
X0648235Y0126125D01*
X0648235Y0119875D01*
X0642985Y0119875D01*
X0640485Y0119875D02*
X0635235Y0119875D01*
X0653610Y0120500D02*
X0653610Y0125750D01*
X0659860Y0125750D01*
X0659860Y0120500D01*
X0659860Y0118000D02*
X0659860Y0112750D01*
X0653610Y0112750D01*
X0653610Y0118000D01*
X0681485Y0119875D02*
X0686735Y0119875D01*
X0689235Y0119875D02*
X0694485Y0119875D01*
X0694485Y0126125D01*
X0689235Y0126125D01*
X0686735Y0126125D02*
X0681485Y0126125D01*
X0681485Y0119875D01*
X0699860Y0120500D02*
X0699860Y0125750D01*
X0706110Y0125750D01*
X0706110Y0120500D01*
X0706110Y0118000D02*
X0706110Y0112750D01*
X0699860Y0112750D01*
X0699860Y0118000D01*
X0727735Y0119875D02*
X0732985Y0119875D01*
X0735485Y0119875D02*
X0740735Y0119875D01*
X0740735Y0126125D01*
X0735485Y0126125D01*
X0732985Y0126125D02*
X0727735Y0126125D01*
X0727735Y0119875D01*
X0746110Y0120500D02*
X0746110Y0125750D01*
X0752360Y0125750D01*
X0752360Y0120500D01*
X0752360Y0118000D02*
X0752360Y0112750D01*
X0746110Y0112750D01*
X0746110Y0118000D01*
X0747735Y0094875D02*
X0752985Y0094875D01*
X0755485Y0094875D02*
X0760735Y0094875D01*
X0760735Y0088625D01*
X0755485Y0088625D01*
X0752985Y0088625D02*
X0747735Y0088625D01*
X0747735Y0094875D01*
X0741985Y0094875D02*
X0736735Y0094875D01*
X0734235Y0094875D02*
X0728985Y0094875D01*
X0728985Y0088625D01*
X0734235Y0088625D01*
X0736735Y0088625D02*
X0741985Y0088625D01*
X0741985Y0094875D01*
X0714485Y0094875D02*
X0714485Y0088625D01*
X0709235Y0088625D01*
X0706735Y0088625D02*
X0701485Y0088625D01*
X0701485Y0094875D01*
X0706735Y0094875D01*
X0709235Y0094875D02*
X0714485Y0094875D01*
X0695735Y0094875D02*
X0695735Y0088625D01*
X0690485Y0088625D01*
X0687985Y0088625D02*
X0682735Y0088625D01*
X0682735Y0094875D01*
X0687985Y0094875D01*
X0690485Y0094875D02*
X0695735Y0094875D01*
X0668235Y0094875D02*
X0668235Y0088625D01*
X0662985Y0088625D01*
X0660485Y0088625D02*
X0655235Y0088625D01*
X0655235Y0094875D01*
X0660485Y0094875D01*
X0662985Y0094875D02*
X0668235Y0094875D01*
X0649485Y0094875D02*
X0649485Y0088625D01*
X0644235Y0088625D01*
X0641735Y0088625D02*
X0636485Y0088625D01*
X0636485Y0094875D01*
X0641735Y0094875D01*
X0644235Y0094875D02*
X0649485Y0094875D01*
X0651735Y0056125D02*
X0646485Y0056125D01*
X0646485Y0049875D01*
X0651735Y0049875D01*
X0654235Y0049875D02*
X0659485Y0049875D01*
X0659485Y0056125D01*
X0654235Y0056125D01*
X0663162Y0049578D02*
X0667581Y0045159D01*
X0671293Y0048871D01*
X0673061Y0050639D02*
X0676773Y0054351D01*
X0672354Y0058770D01*
X0668642Y0055058D01*
X0666874Y0053290D02*
X0663162Y0049578D01*
X0674929Y0048631D02*
X0679349Y0044212D01*
X0683061Y0047924D01*
X0684829Y0049692D02*
X0688541Y0053404D01*
X0684122Y0057824D01*
X0680409Y0054111D01*
X0678642Y0052344D02*
X0674929Y0048631D01*
X0687063Y0048480D02*
X0691483Y0044060D01*
X0695195Y0047773D01*
X0696963Y0049540D02*
X0700675Y0053253D01*
X0696256Y0057672D01*
X0692543Y0053960D01*
X0690776Y0052192D02*
X0687063Y0048480D01*
X0630735Y0154875D02*
X0625485Y0154875D01*
X0622985Y0154875D02*
X0617735Y0154875D01*
X0617735Y0161125D01*
X0622985Y0161125D01*
X0622985Y0163625D02*
X0617735Y0163625D01*
X0617735Y0169875D01*
X0622985Y0169875D01*
X0622985Y0172375D02*
X0617735Y0172375D01*
X0617735Y0178625D01*
X0622985Y0178625D01*
X0625485Y0178625D02*
X0630735Y0178625D01*
X0630735Y0172375D01*
X0625485Y0172375D01*
X0625485Y0169875D02*
X0630735Y0169875D01*
X0630735Y0163625D01*
X0625485Y0163625D01*
X0625485Y0161125D02*
X0630735Y0161125D01*
X0630735Y0154875D01*
X0717750Y0179875D02*
X0723000Y0179875D01*
X0725500Y0179875D02*
X0730750Y0179875D01*
X0730750Y0186125D01*
X0725500Y0186125D01*
X0723000Y0186125D02*
X0717750Y0186125D01*
X0717750Y0179875D01*
X0727735Y0204875D02*
X0732985Y0204875D01*
X0735485Y0204875D02*
X0740735Y0204875D01*
X0740735Y0211125D01*
X0735485Y0211125D01*
X0732985Y0211125D02*
X0727735Y0211125D01*
X0727735Y0204875D01*
X0727735Y0213625D02*
X0727735Y0219875D01*
X0732985Y0219875D01*
X0735485Y0219875D02*
X0740735Y0219875D01*
X0740735Y0213625D01*
X0735485Y0213625D01*
X0732985Y0213625D02*
X0727735Y0213625D01*
X0725500Y0234875D02*
X0730750Y0234875D01*
X0730750Y0241125D01*
X0725500Y0241125D01*
X0723000Y0241125D02*
X0717750Y0241125D01*
X0717750Y0234875D01*
X0723000Y0234875D01*
X0630735Y0233625D02*
X0630735Y0227375D01*
X0625485Y0227375D01*
X0622985Y0227375D02*
X0617735Y0227375D01*
X0617735Y0233625D01*
X0622985Y0233625D01*
X0625485Y0233625D02*
X0630735Y0233625D01*
X0630735Y0224875D02*
X0625485Y0224875D01*
X0622985Y0224875D02*
X0617735Y0224875D01*
X0617735Y0218625D01*
X0622985Y0218625D01*
X0622985Y0216125D02*
X0617735Y0216125D01*
X0617735Y0209875D01*
X0622985Y0209875D01*
X0625485Y0209875D02*
X0630735Y0209875D01*
X0630735Y0216125D01*
X0625485Y0216125D01*
X0625485Y0218625D02*
X0630735Y0218625D01*
X0630735Y0224875D01*
X0630735Y0264875D02*
X0625485Y0264875D01*
X0622985Y0264875D02*
X0617735Y0264875D01*
X0617735Y0271125D01*
X0622985Y0271125D01*
X0622985Y0273625D02*
X0617735Y0273625D01*
X0617735Y0279875D01*
X0622985Y0279875D01*
X0622985Y0282375D02*
X0617735Y0282375D01*
X0617735Y0288625D01*
X0622985Y0288625D01*
X0625485Y0288625D02*
X0630735Y0288625D01*
X0630735Y0282375D01*
X0625485Y0282375D01*
X0625485Y0279875D02*
X0630735Y0279875D01*
X0630735Y0273625D01*
X0625485Y0273625D01*
X0625485Y0271125D02*
X0630735Y0271125D01*
X0630735Y0264875D01*
X0717750Y0289875D02*
X0717750Y0296125D01*
X0723000Y0296125D01*
X0725500Y0296125D02*
X0730750Y0296125D01*
X0730750Y0289875D01*
X0725500Y0289875D01*
X0723000Y0289875D02*
X0717750Y0289875D01*
X0484875Y0288250D02*
X0484875Y0283000D01*
X0484875Y0280500D02*
X0484875Y0275250D01*
X0478625Y0275250D01*
X0478625Y0280500D01*
X0478625Y0283000D02*
X0478625Y0288250D01*
X0484875Y0288250D01*
X0434875Y0289500D02*
X0434875Y0284250D01*
X0434875Y0281750D02*
X0434875Y0276500D01*
X0428625Y0276500D01*
X0428625Y0281750D01*
X0428625Y0284250D02*
X0428625Y0289500D01*
X0434875Y0289500D01*
X0434250Y0268875D02*
X0439500Y0268875D01*
X0439500Y0262625D01*
X0434250Y0262625D01*
X0431750Y0262625D02*
X0426500Y0262625D01*
X0426500Y0268875D01*
X0431750Y0268875D01*
X0431750Y0258625D02*
X0426500Y0258625D01*
X0426500Y0252375D01*
X0431750Y0252375D01*
X0434250Y0252375D02*
X0439500Y0252375D01*
X0439500Y0258625D01*
X0434250Y0258625D01*
X0435250Y0238250D02*
X0435250Y0232000D01*
X0440500Y0232000D01*
X0443000Y0232000D02*
X0448250Y0232000D01*
X0448250Y0238250D01*
X0443000Y0238250D01*
X0440500Y0238250D02*
X0435250Y0238250D01*
X0435250Y0225750D02*
X0435250Y0219500D01*
X0440500Y0219500D01*
X0443000Y0219500D02*
X0448250Y0219500D01*
X0448250Y0225750D01*
X0443000Y0225750D01*
X0440500Y0225750D02*
X0435250Y0225750D01*
X0435250Y0213250D02*
X0435250Y0207000D01*
X0440500Y0207000D01*
X0443000Y0207000D02*
X0448250Y0207000D01*
X0448250Y0213250D01*
X0443000Y0213250D01*
X0440500Y0213250D02*
X0435250Y0213250D01*
X0409875Y0220250D02*
X0409875Y0225500D01*
X0409875Y0228000D02*
X0409875Y0233250D01*
X0403625Y0233250D01*
X0403625Y0228000D01*
X0403625Y0225500D02*
X0403625Y0220250D01*
X0409875Y0220250D01*
X0389621Y0220281D02*
X0389621Y0225531D01*
X0389621Y0228031D02*
X0389621Y0233281D01*
X0383371Y0233281D01*
X0383371Y0228031D01*
X0383371Y0225531D02*
X0383371Y0220281D01*
X0389621Y0220281D01*
X0338250Y0229875D02*
X0338250Y0236125D01*
X0333000Y0236125D01*
X0330500Y0236125D02*
X0325250Y0236125D01*
X0325250Y0229875D01*
X0330500Y0229875D01*
X0333000Y0229875D02*
X0338250Y0229875D01*
X0289875Y0244000D02*
X0289875Y0249250D01*
X0289875Y0251750D02*
X0289875Y0257000D01*
X0283625Y0257000D01*
X0283625Y0251750D01*
X0283625Y0249250D02*
X0283625Y0244000D01*
X0289875Y0244000D01*
X0280750Y0247375D02*
X0280750Y0253625D01*
X0275500Y0253625D01*
X0273000Y0253625D02*
X0267750Y0253625D01*
X0267750Y0247375D01*
X0273000Y0247375D01*
X0275500Y0247375D02*
X0280750Y0247375D01*
X0280750Y0277375D02*
X0275500Y0277375D01*
X0273000Y0277375D02*
X0267750Y0277375D01*
X0267750Y0283625D01*
X0273000Y0283625D01*
X0275500Y0283625D02*
X0280750Y0283625D01*
X0280750Y0277375D01*
X0294000Y0291125D02*
X0299250Y0291125D01*
X0301750Y0291125D02*
X0307000Y0291125D01*
X0307000Y0297375D01*
X0301750Y0297375D01*
X0299250Y0297375D02*
X0294000Y0297375D01*
X0294000Y0291125D01*
X0291125Y0210750D02*
X0291125Y0205500D01*
X0291125Y0203000D02*
X0291125Y0197750D01*
X0284875Y0197750D01*
X0284875Y0203000D01*
X0284875Y0205500D02*
X0284875Y0210750D01*
X0291125Y0210750D01*
X0187000Y0201125D02*
X0187000Y0194875D01*
X0181750Y0194875D01*
X0179250Y0194875D02*
X0174000Y0194875D01*
X0174000Y0201125D01*
X0179250Y0201125D01*
X0181750Y0201125D02*
X0187000Y0201125D01*
X0187000Y0188625D02*
X0181750Y0188625D01*
X0179250Y0188625D02*
X0174000Y0188625D01*
X0174000Y0182375D01*
X0179250Y0182375D01*
X0181750Y0182375D02*
X0187000Y0182375D01*
X0187000Y0188625D01*
X0187000Y0176125D02*
X0181750Y0176125D01*
X0179250Y0176125D02*
X0174000Y0176125D01*
X0174000Y0169875D01*
X0179250Y0169875D01*
X0181750Y0169875D02*
X0187000Y0169875D01*
X0187000Y0176125D01*
X0187000Y0163625D02*
X0181750Y0163625D01*
X0179250Y0163625D02*
X0174000Y0163625D01*
X0174000Y0157375D01*
X0179250Y0157375D01*
X0181750Y0157375D02*
X0187000Y0157375D01*
X0187000Y0163625D01*
X0189500Y0151750D02*
X0183000Y0151750D01*
X0178000Y0151750D02*
X0171500Y0151750D01*
X0171500Y0144250D01*
X0178000Y0144250D01*
X0183000Y0144250D02*
X0189500Y0144250D01*
X0189500Y0151750D01*
D11*
X0192749Y0150203D02*
X0192749Y0146800D01*
X0193883Y0146800D02*
X0191615Y0146800D01*
X0193883Y0149069D02*
X0192749Y0150203D01*
X0195298Y0149636D02*
X0195298Y0148501D01*
X0195865Y0147934D01*
X0197566Y0147934D01*
X0196432Y0147934D02*
X0195298Y0146800D01*
X0197566Y0146800D02*
X0197566Y0150203D01*
X0195865Y0150203D01*
X0195298Y0149636D01*
X0195066Y0159300D02*
X0195066Y0162703D01*
X0193365Y0162703D01*
X0192798Y0162136D01*
X0192798Y0161001D01*
X0193365Y0160434D01*
X0195066Y0160434D01*
X0193932Y0160434D02*
X0192798Y0159300D01*
X0191383Y0159867D02*
X0190816Y0159300D01*
X0189682Y0159300D01*
X0189115Y0159867D01*
X0189115Y0160434D01*
X0189682Y0161001D01*
X0190249Y0161001D01*
X0189682Y0161001D02*
X0189115Y0161569D01*
X0189115Y0162136D01*
X0189682Y0162703D01*
X0190816Y0162703D01*
X0191383Y0162136D01*
X0191383Y0171800D02*
X0189115Y0174069D01*
X0189115Y0174636D01*
X0189682Y0175203D01*
X0190816Y0175203D01*
X0191383Y0174636D01*
X0192798Y0174636D02*
X0192798Y0173501D01*
X0193365Y0172934D01*
X0195066Y0172934D01*
X0193932Y0172934D02*
X0192798Y0171800D01*
X0191383Y0171800D02*
X0189115Y0171800D01*
X0192798Y0174636D02*
X0193365Y0175203D01*
X0195066Y0175203D01*
X0195066Y0171800D01*
X0195066Y0184300D02*
X0195066Y0187703D01*
X0193365Y0187703D01*
X0192798Y0187136D01*
X0192798Y0186001D01*
X0193365Y0185434D01*
X0195066Y0185434D01*
X0193932Y0185434D02*
X0192798Y0184300D01*
X0191383Y0186001D02*
X0189115Y0186001D01*
X0189682Y0184300D02*
X0189682Y0187703D01*
X0191383Y0186001D01*
X0190816Y0196800D02*
X0191383Y0197367D01*
X0190816Y0196800D02*
X0189682Y0196800D01*
X0189115Y0197367D01*
X0189115Y0198501D01*
X0189682Y0199069D01*
X0190249Y0199069D01*
X0191383Y0198501D01*
X0191383Y0200203D01*
X0189115Y0200203D01*
X0192798Y0199636D02*
X0192798Y0198501D01*
X0193365Y0197934D01*
X0195066Y0197934D01*
X0193932Y0197934D02*
X0192798Y0196800D01*
X0195066Y0196800D02*
X0195066Y0200203D01*
X0193365Y0200203D01*
X0192798Y0199636D01*
X0280855Y0199139D02*
X0281422Y0199706D01*
X0280855Y0199139D02*
X0280855Y0198005D01*
X0281422Y0197438D01*
X0283691Y0197438D01*
X0284258Y0198005D01*
X0284258Y0199139D01*
X0283691Y0199706D01*
X0283124Y0201121D02*
X0284258Y0202255D01*
X0280855Y0202255D01*
X0280855Y0201121D02*
X0280855Y0203389D01*
X0281422Y0204804D02*
X0283691Y0207072D01*
X0281422Y0207072D01*
X0280855Y0206505D01*
X0280855Y0205371D01*
X0281422Y0204804D01*
X0283691Y0204804D01*
X0284258Y0205371D01*
X0284258Y0206505D01*
X0283691Y0207072D01*
X0333300Y0191118D02*
X0333300Y0189983D01*
X0333867Y0189416D01*
X0335001Y0189416D01*
X0335001Y0191118D01*
X0334434Y0191685D01*
X0333867Y0191685D01*
X0333300Y0191118D01*
X0335001Y0189416D02*
X0336136Y0190551D01*
X0336703Y0191685D01*
X0336703Y0188002D02*
X0336136Y0186867D01*
X0335001Y0185733D01*
X0335001Y0187435D01*
X0334434Y0188002D01*
X0333867Y0188002D01*
X0333300Y0187435D01*
X0333300Y0186300D01*
X0333867Y0185733D01*
X0335001Y0185733D01*
X0335001Y0184319D02*
X0334434Y0183751D01*
X0334434Y0182050D01*
X0333300Y0182050D02*
X0336703Y0182050D01*
X0336703Y0183751D01*
X0336136Y0184319D01*
X0335001Y0184319D01*
X0334434Y0183184D02*
X0333300Y0184319D01*
X0343300Y0184319D02*
X0344434Y0183184D01*
X0344434Y0183751D02*
X0344434Y0182050D01*
X0343300Y0182050D02*
X0346703Y0182050D01*
X0346703Y0183751D01*
X0346136Y0184319D01*
X0345001Y0184319D01*
X0344434Y0183751D01*
X0343867Y0185733D02*
X0343300Y0186300D01*
X0343300Y0187435D01*
X0343867Y0188002D01*
X0345001Y0188002D01*
X0345569Y0187435D01*
X0345569Y0186867D01*
X0345001Y0185733D01*
X0346703Y0185733D01*
X0346703Y0188002D01*
X0346703Y0189416D02*
X0345001Y0189416D01*
X0345569Y0190551D01*
X0345569Y0191118D01*
X0345001Y0191685D01*
X0343867Y0191685D01*
X0343300Y0191118D01*
X0343300Y0189983D01*
X0343867Y0189416D01*
X0346703Y0189416D02*
X0346703Y0191685D01*
X0404550Y0191685D02*
X0404550Y0189416D01*
X0406819Y0191685D01*
X0407386Y0191685D01*
X0407953Y0191118D01*
X0407953Y0189983D01*
X0407386Y0189416D01*
X0407953Y0188002D02*
X0407386Y0186867D01*
X0406251Y0185733D01*
X0406251Y0187435D01*
X0405684Y0188002D01*
X0405117Y0188002D01*
X0404550Y0187435D01*
X0404550Y0186300D01*
X0405117Y0185733D01*
X0406251Y0185733D01*
X0406251Y0184319D02*
X0405684Y0183751D01*
X0405684Y0182050D01*
X0404550Y0182050D02*
X0407953Y0182050D01*
X0407953Y0183751D01*
X0407386Y0184319D01*
X0406251Y0184319D01*
X0405684Y0183184D02*
X0404550Y0184319D01*
X0414550Y0184319D02*
X0415684Y0183184D01*
X0415684Y0183751D02*
X0415684Y0182050D01*
X0414550Y0182050D02*
X0417953Y0182050D01*
X0417953Y0183751D01*
X0417386Y0184319D01*
X0416251Y0184319D01*
X0415684Y0183751D01*
X0415117Y0185733D02*
X0414550Y0186300D01*
X0414550Y0187435D01*
X0415117Y0188002D01*
X0416251Y0188002D01*
X0416819Y0187435D01*
X0416819Y0186867D01*
X0416251Y0185733D01*
X0417953Y0185733D01*
X0417953Y0188002D01*
X0417386Y0189416D02*
X0417953Y0189983D01*
X0417953Y0191118D01*
X0417386Y0191685D01*
X0416819Y0191685D01*
X0416251Y0191118D01*
X0415684Y0191685D01*
X0415117Y0191685D01*
X0414550Y0191118D01*
X0414550Y0189983D01*
X0415117Y0189416D01*
X0416251Y0190551D02*
X0416251Y0191118D01*
X0436815Y0214175D02*
X0439084Y0214175D01*
X0437949Y0214175D02*
X0437949Y0217578D01*
X0439084Y0216444D01*
X0440498Y0216444D02*
X0440498Y0217011D01*
X0441065Y0217578D01*
X0442200Y0217578D01*
X0442767Y0217011D01*
X0442767Y0216444D01*
X0442200Y0215876D01*
X0441065Y0215876D01*
X0440498Y0215309D01*
X0440498Y0214742D01*
X0441065Y0214175D01*
X0442200Y0214175D01*
X0442767Y0214742D01*
X0442767Y0215309D01*
X0442200Y0215876D01*
X0441065Y0215876D02*
X0440498Y0216444D01*
X0444181Y0217011D02*
X0444181Y0215876D01*
X0444749Y0215309D01*
X0446450Y0215309D01*
X0446450Y0214175D02*
X0446450Y0217578D01*
X0444749Y0217578D01*
X0444181Y0217011D01*
X0445316Y0215309D02*
X0444181Y0214175D01*
X0444181Y0226675D02*
X0445316Y0227809D01*
X0444749Y0227809D02*
X0446450Y0227809D01*
X0446450Y0226675D02*
X0446450Y0230078D01*
X0444749Y0230078D01*
X0444181Y0229511D01*
X0444181Y0228376D01*
X0444749Y0227809D01*
X0442767Y0227809D02*
X0442200Y0228376D01*
X0441065Y0228376D01*
X0440498Y0227809D01*
X0440498Y0227242D01*
X0441065Y0226675D01*
X0442200Y0226675D01*
X0442767Y0227242D01*
X0442767Y0227809D01*
X0442200Y0228376D02*
X0442767Y0228944D01*
X0442767Y0229511D01*
X0442200Y0230078D01*
X0441065Y0230078D01*
X0440498Y0229511D01*
X0440498Y0228944D01*
X0441065Y0228376D01*
X0439084Y0227242D02*
X0436815Y0229511D01*
X0436815Y0227242D01*
X0437382Y0226675D01*
X0438517Y0226675D01*
X0439084Y0227242D01*
X0439084Y0229511D01*
X0438517Y0230078D01*
X0437382Y0230078D01*
X0436815Y0229511D01*
X0415453Y0229983D02*
X0415453Y0231118D01*
X0414886Y0231685D01*
X0414319Y0231685D01*
X0413751Y0231118D01*
X0413184Y0231685D01*
X0412617Y0231685D01*
X0412050Y0231118D01*
X0412050Y0229983D01*
X0412617Y0229416D01*
X0412617Y0228002D02*
X0412050Y0227435D01*
X0412050Y0226300D01*
X0412617Y0225733D01*
X0412617Y0224319D02*
X0412050Y0223751D01*
X0412050Y0222617D01*
X0412617Y0222050D01*
X0414886Y0222050D01*
X0415453Y0222617D01*
X0415453Y0223751D01*
X0414886Y0224319D01*
X0414886Y0225733D02*
X0415453Y0226300D01*
X0415453Y0227435D01*
X0414886Y0228002D01*
X0414319Y0228002D01*
X0413751Y0227435D01*
X0413184Y0228002D01*
X0412617Y0228002D01*
X0413751Y0227435D02*
X0413751Y0226867D01*
X0414886Y0229416D02*
X0415453Y0229983D01*
X0413751Y0230551D02*
X0413751Y0231118D01*
X0436815Y0239742D02*
X0436815Y0242011D01*
X0437382Y0242578D01*
X0438517Y0242578D01*
X0439084Y0242011D01*
X0439084Y0241444D01*
X0438517Y0240876D01*
X0436815Y0240876D01*
X0436815Y0239742D02*
X0437382Y0239175D01*
X0438517Y0239175D01*
X0439084Y0239742D01*
X0440498Y0242011D02*
X0442767Y0239742D01*
X0442767Y0239175D01*
X0444181Y0239175D02*
X0445316Y0240309D01*
X0444749Y0240309D02*
X0446450Y0240309D01*
X0446450Y0239175D02*
X0446450Y0242578D01*
X0444749Y0242578D01*
X0444181Y0242011D01*
X0444181Y0240876D01*
X0444749Y0240309D01*
X0442767Y0242578D02*
X0440498Y0242578D01*
X0440498Y0242011D01*
X0438749Y0246800D02*
X0438749Y0250203D01*
X0437048Y0250203D01*
X0436481Y0249636D01*
X0436481Y0248501D01*
X0437048Y0247934D01*
X0438749Y0247934D01*
X0437615Y0247934D02*
X0436481Y0246800D01*
X0435066Y0246800D02*
X0435066Y0247367D01*
X0432798Y0249636D01*
X0432798Y0250203D01*
X0435066Y0250203D01*
X0431383Y0249636D02*
X0431383Y0249069D01*
X0430816Y0248501D01*
X0429682Y0248501D01*
X0429115Y0247934D01*
X0429115Y0247367D01*
X0429682Y0246800D01*
X0430816Y0246800D01*
X0431383Y0247367D01*
X0431383Y0247934D01*
X0430816Y0248501D01*
X0429682Y0248501D02*
X0429115Y0249069D01*
X0429115Y0249636D01*
X0429682Y0250203D01*
X0430816Y0250203D01*
X0431383Y0249636D01*
X0381707Y0230038D02*
X0380005Y0228336D01*
X0380005Y0230605D01*
X0378304Y0230038D02*
X0381707Y0230038D01*
X0381139Y0226922D02*
X0380572Y0226922D01*
X0380005Y0226354D01*
X0379438Y0226922D01*
X0378871Y0226922D01*
X0378304Y0226354D01*
X0378304Y0225220D01*
X0378871Y0224653D01*
X0378871Y0223238D02*
X0378304Y0222671D01*
X0378304Y0221537D01*
X0378871Y0220970D01*
X0381139Y0220970D01*
X0381707Y0221537D01*
X0381707Y0222671D01*
X0381139Y0223238D01*
X0381139Y0224653D02*
X0381707Y0225220D01*
X0381707Y0226354D01*
X0381139Y0226922D01*
X0380005Y0226354D02*
X0380005Y0225787D01*
X0335387Y0237312D02*
X0335387Y0239581D01*
X0334820Y0240148D01*
X0333686Y0240148D01*
X0333118Y0239581D01*
X0331704Y0240148D02*
X0329435Y0240148D01*
X0329435Y0239581D01*
X0331704Y0237312D01*
X0331704Y0236745D01*
X0333118Y0237312D02*
X0333686Y0236745D01*
X0334820Y0236745D01*
X0335387Y0237312D01*
X0293898Y0247430D02*
X0293331Y0246863D01*
X0291062Y0246863D01*
X0290495Y0247430D01*
X0290495Y0248564D01*
X0291062Y0249132D01*
X0291062Y0250546D02*
X0290495Y0251113D01*
X0290495Y0252248D01*
X0291062Y0252815D01*
X0291629Y0252815D01*
X0292196Y0252248D01*
X0292196Y0250546D01*
X0291062Y0250546D01*
X0292196Y0250546D02*
X0293331Y0251680D01*
X0293898Y0252815D01*
X0293331Y0249132D02*
X0293898Y0248564D01*
X0293898Y0247430D01*
X0277379Y0246191D02*
X0277379Y0243922D01*
X0276812Y0243355D01*
X0275678Y0243355D01*
X0275111Y0243922D01*
X0273696Y0243922D02*
X0273129Y0243355D01*
X0271995Y0243355D01*
X0271428Y0243922D01*
X0271428Y0246191D01*
X0271995Y0246758D01*
X0273129Y0246758D01*
X0273696Y0246191D01*
X0273696Y0245624D01*
X0273129Y0245057D01*
X0271428Y0245057D01*
X0275111Y0246191D02*
X0275678Y0246758D01*
X0276812Y0246758D01*
X0277379Y0246191D01*
X0277320Y0284245D02*
X0276186Y0284245D01*
X0275618Y0284812D01*
X0274204Y0284812D02*
X0274204Y0285379D01*
X0273637Y0285946D01*
X0272502Y0285946D01*
X0271935Y0285379D01*
X0271935Y0284812D01*
X0272502Y0284245D01*
X0273637Y0284245D01*
X0274204Y0284812D01*
X0273637Y0285946D02*
X0274204Y0286513D01*
X0274204Y0287081D01*
X0273637Y0287648D01*
X0272502Y0287648D01*
X0271935Y0287081D01*
X0271935Y0286513D01*
X0272502Y0285946D01*
X0275618Y0287081D02*
X0276186Y0287648D01*
X0277320Y0287648D01*
X0277887Y0287081D01*
X0277887Y0284812D01*
X0277320Y0284245D01*
X0298185Y0298562D02*
X0298752Y0297995D01*
X0299887Y0297995D01*
X0300454Y0298562D01*
X0300454Y0299696D02*
X0299320Y0300263D01*
X0298752Y0300263D01*
X0298185Y0299696D01*
X0298185Y0298562D01*
X0300454Y0299696D02*
X0300454Y0301398D01*
X0298185Y0301398D01*
X0301868Y0300831D02*
X0302436Y0301398D01*
X0303570Y0301398D01*
X0304137Y0300831D01*
X0304137Y0298562D01*
X0303570Y0297995D01*
X0302436Y0297995D01*
X0301868Y0298562D01*
X0429550Y0297435D02*
X0429550Y0296300D01*
X0430117Y0295733D01*
X0430117Y0294319D02*
X0429550Y0293751D01*
X0429550Y0292617D01*
X0430117Y0292050D01*
X0432386Y0292050D01*
X0432953Y0292617D01*
X0432953Y0293751D01*
X0432386Y0294319D01*
X0432386Y0295733D02*
X0432953Y0296300D01*
X0432953Y0297435D01*
X0432386Y0298002D01*
X0431819Y0298002D01*
X0431251Y0297435D01*
X0430684Y0298002D01*
X0430117Y0298002D01*
X0429550Y0297435D01*
X0431251Y0297435D02*
X0431251Y0296867D01*
X0430684Y0299416D02*
X0430117Y0299416D01*
X0429550Y0299983D01*
X0429550Y0301118D01*
X0430117Y0301685D01*
X0430684Y0301685D01*
X0431251Y0301118D01*
X0431251Y0299983D01*
X0431819Y0299416D01*
X0432386Y0299416D01*
X0432953Y0299983D01*
X0432953Y0301118D01*
X0432386Y0301685D01*
X0431819Y0301685D01*
X0431251Y0301118D01*
X0431251Y0299983D02*
X0430684Y0299416D01*
X0431383Y0274203D02*
X0429115Y0274203D01*
X0429115Y0273636D01*
X0431383Y0271367D01*
X0431383Y0270800D01*
X0432798Y0273636D02*
X0435066Y0271367D01*
X0435066Y0270800D01*
X0436481Y0270800D02*
X0437615Y0271934D01*
X0437048Y0271934D02*
X0438749Y0271934D01*
X0438749Y0270800D02*
X0438749Y0274203D01*
X0437048Y0274203D01*
X0436481Y0273636D01*
X0436481Y0272501D01*
X0437048Y0271934D01*
X0435066Y0274203D02*
X0432798Y0274203D01*
X0432798Y0273636D01*
X0632850Y0276117D02*
X0633417Y0275550D01*
X0634551Y0275550D01*
X0635118Y0276117D01*
X0635118Y0276684D01*
X0634551Y0277251D01*
X0633417Y0277251D01*
X0632850Y0276684D01*
X0632850Y0276117D01*
X0633417Y0277251D02*
X0632850Y0277819D01*
X0632850Y0278386D01*
X0633417Y0278953D01*
X0634551Y0278953D01*
X0635118Y0278386D01*
X0635118Y0277819D01*
X0634551Y0277251D01*
X0636533Y0277819D02*
X0638802Y0275550D01*
X0636533Y0275550D01*
X0636533Y0277819D02*
X0636533Y0278386D01*
X0637100Y0278953D01*
X0638234Y0278953D01*
X0638802Y0278386D01*
X0640216Y0278386D02*
X0640216Y0277251D01*
X0640783Y0276684D01*
X0642485Y0276684D01*
X0642485Y0275550D02*
X0642485Y0278953D01*
X0640783Y0278953D01*
X0640216Y0278386D01*
X0641350Y0276684D02*
X0640216Y0275550D01*
X0640783Y0270203D02*
X0640216Y0269636D01*
X0640216Y0268501D01*
X0640783Y0267934D01*
X0642485Y0267934D01*
X0642485Y0266800D02*
X0642485Y0270203D01*
X0640783Y0270203D01*
X0638802Y0269636D02*
X0638234Y0270203D01*
X0637100Y0270203D01*
X0636533Y0269636D01*
X0636533Y0269069D01*
X0638802Y0266800D01*
X0636533Y0266800D01*
X0635118Y0266800D02*
X0635118Y0267367D01*
X0632850Y0269636D01*
X0632850Y0270203D01*
X0635118Y0270203D01*
X0640216Y0266800D02*
X0641350Y0267934D01*
X0667735Y0271250D02*
X0667735Y0282250D01*
X0667737Y0282310D01*
X0667742Y0282371D01*
X0667751Y0282430D01*
X0667764Y0282489D01*
X0667780Y0282548D01*
X0667800Y0282605D01*
X0667823Y0282660D01*
X0667850Y0282715D01*
X0667879Y0282767D01*
X0667912Y0282818D01*
X0667948Y0282867D01*
X0667986Y0282913D01*
X0668028Y0282957D01*
X0668072Y0282999D01*
X0668118Y0283037D01*
X0668167Y0283073D01*
X0668218Y0283106D01*
X0668270Y0283135D01*
X0668325Y0283162D01*
X0668380Y0283185D01*
X0668437Y0283205D01*
X0668496Y0283221D01*
X0668555Y0283234D01*
X0668614Y0283243D01*
X0668675Y0283248D01*
X0668735Y0283250D01*
X0674735Y0283250D01*
X0674795Y0283248D01*
X0674856Y0283243D01*
X0674915Y0283234D01*
X0674974Y0283221D01*
X0675033Y0283205D01*
X0675090Y0283185D01*
X0675145Y0283162D01*
X0675200Y0283135D01*
X0675252Y0283106D01*
X0675303Y0283073D01*
X0675352Y0283037D01*
X0675398Y0282999D01*
X0675442Y0282957D01*
X0675484Y0282913D01*
X0675522Y0282867D01*
X0675558Y0282818D01*
X0675591Y0282767D01*
X0675620Y0282715D01*
X0675647Y0282660D01*
X0675670Y0282605D01*
X0675690Y0282548D01*
X0675706Y0282489D01*
X0675719Y0282430D01*
X0675728Y0282371D01*
X0675733Y0282310D01*
X0675735Y0282250D01*
X0675735Y0271250D01*
X0675733Y0271190D01*
X0675728Y0271129D01*
X0675719Y0271070D01*
X0675706Y0271011D01*
X0675690Y0270952D01*
X0675670Y0270895D01*
X0675647Y0270840D01*
X0675620Y0270785D01*
X0675591Y0270733D01*
X0675558Y0270682D01*
X0675522Y0270633D01*
X0675484Y0270587D01*
X0675442Y0270543D01*
X0675398Y0270501D01*
X0675352Y0270463D01*
X0675303Y0270427D01*
X0675252Y0270394D01*
X0675200Y0270365D01*
X0675145Y0270338D01*
X0675090Y0270315D01*
X0675033Y0270295D01*
X0674974Y0270279D01*
X0674915Y0270266D01*
X0674856Y0270257D01*
X0674795Y0270252D01*
X0674735Y0270250D01*
X0668735Y0270250D01*
X0668675Y0270252D01*
X0668614Y0270257D01*
X0668555Y0270266D01*
X0668496Y0270279D01*
X0668437Y0270295D01*
X0668380Y0270315D01*
X0668325Y0270338D01*
X0668270Y0270365D01*
X0668218Y0270394D01*
X0668167Y0270427D01*
X0668118Y0270463D01*
X0668072Y0270501D01*
X0668028Y0270543D01*
X0667986Y0270587D01*
X0667948Y0270633D01*
X0667912Y0270682D01*
X0667879Y0270733D01*
X0667850Y0270785D01*
X0667823Y0270840D01*
X0667800Y0270895D01*
X0667780Y0270952D01*
X0667764Y0271011D01*
X0667751Y0271070D01*
X0667742Y0271129D01*
X0667737Y0271190D01*
X0667735Y0271250D01*
X0695800Y0258136D02*
X0696367Y0258703D01*
X0697502Y0258703D01*
X0698069Y0258136D01*
X0699483Y0258703D02*
X0700618Y0258703D01*
X0700051Y0258703D02*
X0700051Y0255867D01*
X0700618Y0255300D01*
X0701185Y0255300D01*
X0701752Y0255867D01*
X0703167Y0255867D02*
X0703734Y0255300D01*
X0704868Y0255300D01*
X0705435Y0255867D01*
X0704868Y0257001D02*
X0703734Y0257001D01*
X0703167Y0256434D01*
X0703167Y0255867D01*
X0704868Y0257001D02*
X0705435Y0257569D01*
X0705435Y0258136D01*
X0704868Y0258703D01*
X0703734Y0258703D01*
X0703167Y0258136D01*
X0706485Y0259750D02*
X0706485Y0253750D01*
X0706487Y0253690D01*
X0706492Y0253629D01*
X0706501Y0253570D01*
X0706514Y0253511D01*
X0706530Y0253452D01*
X0706550Y0253395D01*
X0706573Y0253340D01*
X0706600Y0253285D01*
X0706629Y0253233D01*
X0706662Y0253182D01*
X0706698Y0253133D01*
X0706736Y0253087D01*
X0706778Y0253043D01*
X0706822Y0253001D01*
X0706868Y0252963D01*
X0706917Y0252927D01*
X0706968Y0252894D01*
X0707020Y0252865D01*
X0707075Y0252838D01*
X0707130Y0252815D01*
X0707187Y0252795D01*
X0707246Y0252779D01*
X0707305Y0252766D01*
X0707364Y0252757D01*
X0707425Y0252752D01*
X0707485Y0252750D01*
X0718485Y0252750D01*
X0718545Y0252752D01*
X0718606Y0252757D01*
X0718665Y0252766D01*
X0718724Y0252779D01*
X0718783Y0252795D01*
X0718840Y0252815D01*
X0718895Y0252838D01*
X0718950Y0252865D01*
X0719002Y0252894D01*
X0719053Y0252927D01*
X0719102Y0252963D01*
X0719148Y0253001D01*
X0719192Y0253043D01*
X0719234Y0253087D01*
X0719272Y0253133D01*
X0719308Y0253182D01*
X0719341Y0253233D01*
X0719370Y0253285D01*
X0719397Y0253340D01*
X0719420Y0253395D01*
X0719440Y0253452D01*
X0719456Y0253511D01*
X0719469Y0253570D01*
X0719478Y0253629D01*
X0719483Y0253690D01*
X0719485Y0253750D01*
X0719485Y0259750D01*
X0719483Y0259810D01*
X0719478Y0259871D01*
X0719469Y0259930D01*
X0719456Y0259989D01*
X0719440Y0260048D01*
X0719420Y0260105D01*
X0719397Y0260160D01*
X0719370Y0260215D01*
X0719341Y0260267D01*
X0719308Y0260318D01*
X0719272Y0260367D01*
X0719234Y0260413D01*
X0719192Y0260457D01*
X0719148Y0260499D01*
X0719102Y0260537D01*
X0719053Y0260573D01*
X0719002Y0260606D01*
X0718950Y0260635D01*
X0718895Y0260662D01*
X0718840Y0260685D01*
X0718783Y0260705D01*
X0718724Y0260721D01*
X0718665Y0260734D01*
X0718606Y0260743D01*
X0718545Y0260748D01*
X0718485Y0260750D01*
X0707485Y0260750D01*
X0707425Y0260748D01*
X0707364Y0260743D01*
X0707305Y0260734D01*
X0707246Y0260721D01*
X0707187Y0260705D01*
X0707130Y0260685D01*
X0707075Y0260662D01*
X0707020Y0260635D01*
X0706968Y0260606D01*
X0706917Y0260573D01*
X0706868Y0260537D01*
X0706822Y0260499D01*
X0706778Y0260457D01*
X0706736Y0260413D01*
X0706698Y0260367D01*
X0706662Y0260318D01*
X0706629Y0260267D01*
X0706600Y0260215D01*
X0706573Y0260160D01*
X0706550Y0260105D01*
X0706530Y0260048D01*
X0706514Y0259989D01*
X0706501Y0259930D01*
X0706492Y0259871D01*
X0706487Y0259810D01*
X0706485Y0259750D01*
X0698069Y0255300D02*
X0695800Y0257569D01*
X0695800Y0258136D01*
X0695800Y0255300D02*
X0698069Y0255300D01*
X0696235Y0245750D02*
X0707235Y0245750D01*
X0707295Y0245748D01*
X0707356Y0245743D01*
X0707415Y0245734D01*
X0707474Y0245721D01*
X0707533Y0245705D01*
X0707590Y0245685D01*
X0707645Y0245662D01*
X0707700Y0245635D01*
X0707752Y0245606D01*
X0707803Y0245573D01*
X0707852Y0245537D01*
X0707898Y0245499D01*
X0707942Y0245457D01*
X0707984Y0245413D01*
X0708022Y0245367D01*
X0708058Y0245318D01*
X0708091Y0245267D01*
X0708120Y0245215D01*
X0708147Y0245160D01*
X0708170Y0245105D01*
X0708190Y0245048D01*
X0708206Y0244989D01*
X0708219Y0244930D01*
X0708228Y0244871D01*
X0708233Y0244810D01*
X0708235Y0244750D01*
X0708235Y0238750D01*
X0708233Y0238690D01*
X0708228Y0238629D01*
X0708219Y0238570D01*
X0708206Y0238511D01*
X0708190Y0238452D01*
X0708170Y0238395D01*
X0708147Y0238340D01*
X0708120Y0238285D01*
X0708091Y0238233D01*
X0708058Y0238182D01*
X0708022Y0238133D01*
X0707984Y0238087D01*
X0707942Y0238043D01*
X0707898Y0238001D01*
X0707852Y0237963D01*
X0707803Y0237927D01*
X0707752Y0237894D01*
X0707700Y0237865D01*
X0707645Y0237838D01*
X0707590Y0237815D01*
X0707533Y0237795D01*
X0707474Y0237779D01*
X0707415Y0237766D01*
X0707356Y0237757D01*
X0707295Y0237752D01*
X0707235Y0237750D01*
X0696235Y0237750D01*
X0696175Y0237752D01*
X0696114Y0237757D01*
X0696055Y0237766D01*
X0695996Y0237779D01*
X0695937Y0237795D01*
X0695880Y0237815D01*
X0695825Y0237838D01*
X0695770Y0237865D01*
X0695718Y0237894D01*
X0695667Y0237927D01*
X0695618Y0237963D01*
X0695572Y0238001D01*
X0695528Y0238043D01*
X0695486Y0238087D01*
X0695448Y0238133D01*
X0695412Y0238182D01*
X0695379Y0238233D01*
X0695350Y0238285D01*
X0695323Y0238340D01*
X0695300Y0238395D01*
X0695280Y0238452D01*
X0695264Y0238511D01*
X0695251Y0238570D01*
X0695242Y0238629D01*
X0695237Y0238690D01*
X0695235Y0238750D01*
X0695235Y0244750D01*
X0695237Y0244810D01*
X0695242Y0244871D01*
X0695251Y0244930D01*
X0695264Y0244989D01*
X0695280Y0245048D01*
X0695300Y0245105D01*
X0695323Y0245160D01*
X0695350Y0245215D01*
X0695379Y0245267D01*
X0695412Y0245318D01*
X0695448Y0245367D01*
X0695486Y0245413D01*
X0695528Y0245457D01*
X0695572Y0245499D01*
X0695618Y0245537D01*
X0695667Y0245573D01*
X0695718Y0245606D01*
X0695770Y0245635D01*
X0695825Y0245662D01*
X0695880Y0245685D01*
X0695937Y0245705D01*
X0695996Y0245721D01*
X0696055Y0245734D01*
X0696114Y0245743D01*
X0696175Y0245748D01*
X0696235Y0245750D01*
X0694185Y0243136D02*
X0694185Y0242569D01*
X0693618Y0242001D01*
X0692484Y0242001D01*
X0691917Y0241434D01*
X0691917Y0240867D01*
X0692484Y0240300D01*
X0693618Y0240300D01*
X0694185Y0240867D01*
X0694185Y0243136D02*
X0693618Y0243703D01*
X0692484Y0243703D01*
X0691917Y0243136D01*
X0689368Y0243703D02*
X0688233Y0243703D01*
X0688801Y0243703D02*
X0688801Y0240867D01*
X0689368Y0240300D01*
X0689935Y0240300D01*
X0690502Y0240867D01*
X0686819Y0240867D02*
X0686252Y0240300D01*
X0685117Y0240300D01*
X0684550Y0240867D01*
X0684550Y0241434D01*
X0685117Y0242001D01*
X0686819Y0242001D01*
X0686819Y0240867D01*
X0686819Y0242001D02*
X0685685Y0243136D01*
X0684550Y0243703D01*
X0673718Y0238935D02*
X0673151Y0238935D01*
X0670882Y0236666D01*
X0670315Y0236666D01*
X0670882Y0234685D02*
X0673718Y0234685D01*
X0673718Y0235252D02*
X0673718Y0234117D01*
X0673718Y0236666D02*
X0673718Y0238935D01*
X0670882Y0234685D02*
X0670315Y0234117D01*
X0670315Y0233550D01*
X0670882Y0232983D01*
X0670882Y0231569D02*
X0670315Y0231001D01*
X0670315Y0229867D01*
X0670882Y0229300D01*
X0672016Y0229867D02*
X0672016Y0231001D01*
X0671449Y0231569D01*
X0670882Y0231569D01*
X0672016Y0229867D02*
X0672583Y0229300D01*
X0673151Y0229300D01*
X0673718Y0229867D01*
X0673718Y0231001D01*
X0673151Y0231569D01*
X0674735Y0228250D02*
X0668735Y0228250D01*
X0668675Y0228248D01*
X0668614Y0228243D01*
X0668555Y0228234D01*
X0668496Y0228221D01*
X0668437Y0228205D01*
X0668380Y0228185D01*
X0668325Y0228162D01*
X0668270Y0228135D01*
X0668218Y0228106D01*
X0668167Y0228073D01*
X0668118Y0228037D01*
X0668072Y0227999D01*
X0668028Y0227957D01*
X0667986Y0227913D01*
X0667948Y0227867D01*
X0667912Y0227818D01*
X0667879Y0227767D01*
X0667850Y0227715D01*
X0667823Y0227660D01*
X0667800Y0227605D01*
X0667780Y0227548D01*
X0667764Y0227489D01*
X0667751Y0227430D01*
X0667742Y0227371D01*
X0667737Y0227310D01*
X0667735Y0227250D01*
X0667735Y0216250D01*
X0667737Y0216190D01*
X0667742Y0216129D01*
X0667751Y0216070D01*
X0667764Y0216011D01*
X0667780Y0215952D01*
X0667800Y0215895D01*
X0667823Y0215840D01*
X0667850Y0215785D01*
X0667879Y0215733D01*
X0667912Y0215682D01*
X0667948Y0215633D01*
X0667986Y0215587D01*
X0668028Y0215543D01*
X0668072Y0215501D01*
X0668118Y0215463D01*
X0668167Y0215427D01*
X0668218Y0215394D01*
X0668270Y0215365D01*
X0668325Y0215338D01*
X0668380Y0215315D01*
X0668437Y0215295D01*
X0668496Y0215279D01*
X0668555Y0215266D01*
X0668614Y0215257D01*
X0668675Y0215252D01*
X0668735Y0215250D01*
X0674735Y0215250D01*
X0674795Y0215252D01*
X0674856Y0215257D01*
X0674915Y0215266D01*
X0674974Y0215279D01*
X0675033Y0215295D01*
X0675090Y0215315D01*
X0675145Y0215338D01*
X0675200Y0215365D01*
X0675252Y0215394D01*
X0675303Y0215427D01*
X0675352Y0215463D01*
X0675398Y0215501D01*
X0675442Y0215543D01*
X0675484Y0215587D01*
X0675522Y0215633D01*
X0675558Y0215682D01*
X0675591Y0215733D01*
X0675620Y0215785D01*
X0675647Y0215840D01*
X0675670Y0215895D01*
X0675690Y0215952D01*
X0675706Y0216011D01*
X0675719Y0216070D01*
X0675728Y0216129D01*
X0675733Y0216190D01*
X0675735Y0216250D01*
X0675735Y0227250D01*
X0675733Y0227310D01*
X0675728Y0227371D01*
X0675719Y0227430D01*
X0675706Y0227489D01*
X0675690Y0227548D01*
X0675670Y0227605D01*
X0675647Y0227660D01*
X0675620Y0227715D01*
X0675591Y0227767D01*
X0675558Y0227818D01*
X0675522Y0227867D01*
X0675484Y0227913D01*
X0675442Y0227957D01*
X0675398Y0227999D01*
X0675352Y0228037D01*
X0675303Y0228073D01*
X0675252Y0228106D01*
X0675200Y0228135D01*
X0675145Y0228162D01*
X0675090Y0228185D01*
X0675033Y0228205D01*
X0674974Y0228221D01*
X0674915Y0228234D01*
X0674856Y0228243D01*
X0674795Y0228248D01*
X0674735Y0228250D01*
X0642485Y0229300D02*
X0642485Y0232703D01*
X0640783Y0232703D01*
X0640216Y0232136D01*
X0640216Y0231001D01*
X0640783Y0230434D01*
X0642485Y0230434D01*
X0641350Y0230434D02*
X0640216Y0229300D01*
X0638802Y0229867D02*
X0638234Y0229300D01*
X0637100Y0229300D01*
X0636533Y0229867D01*
X0636533Y0230434D01*
X0637100Y0231001D01*
X0637667Y0231001D01*
X0637100Y0231001D02*
X0636533Y0231569D01*
X0636533Y0232136D01*
X0637100Y0232703D01*
X0638234Y0232703D01*
X0638802Y0232136D01*
X0635118Y0231001D02*
X0632850Y0231001D01*
X0633417Y0229300D02*
X0633417Y0232703D01*
X0635118Y0231001D01*
X0634551Y0223953D02*
X0633417Y0223953D01*
X0632850Y0223386D01*
X0632850Y0222819D01*
X0633417Y0222251D01*
X0632850Y0221684D01*
X0632850Y0221117D01*
X0633417Y0220550D01*
X0634551Y0220550D01*
X0635118Y0221117D01*
X0636533Y0221117D02*
X0637100Y0220550D01*
X0638234Y0220550D01*
X0638802Y0221117D01*
X0640216Y0220550D02*
X0641350Y0221684D01*
X0640783Y0221684D02*
X0642485Y0221684D01*
X0642485Y0220550D02*
X0642485Y0223953D01*
X0640783Y0223953D01*
X0640216Y0223386D01*
X0640216Y0222251D01*
X0640783Y0221684D01*
X0638802Y0223386D02*
X0638234Y0223953D01*
X0637100Y0223953D01*
X0636533Y0223386D01*
X0636533Y0222819D01*
X0637100Y0222251D01*
X0636533Y0221684D01*
X0636533Y0221117D01*
X0637100Y0222251D02*
X0637667Y0222251D01*
X0635118Y0223386D02*
X0634551Y0223953D01*
X0633984Y0222251D02*
X0633417Y0222251D01*
X0633417Y0215203D02*
X0634551Y0215203D01*
X0635118Y0214636D01*
X0636533Y0214636D02*
X0636533Y0214069D01*
X0637100Y0213501D01*
X0636533Y0212934D01*
X0636533Y0212367D01*
X0637100Y0211800D01*
X0638234Y0211800D01*
X0638802Y0212367D01*
X0640216Y0211800D02*
X0641350Y0212934D01*
X0640783Y0212934D02*
X0642485Y0212934D01*
X0642485Y0211800D02*
X0642485Y0215203D01*
X0640783Y0215203D01*
X0640216Y0214636D01*
X0640216Y0213501D01*
X0640783Y0212934D01*
X0638802Y0214636D02*
X0638234Y0215203D01*
X0637100Y0215203D01*
X0636533Y0214636D01*
X0637100Y0213501D02*
X0637667Y0213501D01*
X0635118Y0211800D02*
X0632850Y0214069D01*
X0632850Y0214636D01*
X0633417Y0215203D01*
X0632850Y0211800D02*
X0635118Y0211800D01*
X0670315Y0187051D02*
X0670315Y0185917D01*
X0670882Y0185349D01*
X0673151Y0187618D01*
X0670882Y0187618D01*
X0670315Y0187051D01*
X0670882Y0185349D02*
X0673151Y0185349D01*
X0673718Y0185917D01*
X0673718Y0187051D01*
X0673151Y0187618D01*
X0670315Y0183935D02*
X0670315Y0181666D01*
X0670315Y0182801D02*
X0673718Y0182801D01*
X0672583Y0181666D01*
X0673718Y0180252D02*
X0673718Y0179117D01*
X0673718Y0179685D02*
X0670882Y0179685D01*
X0670315Y0179117D01*
X0670315Y0178550D01*
X0670882Y0177983D01*
X0670882Y0176569D02*
X0670315Y0176001D01*
X0670315Y0174867D01*
X0670882Y0174300D01*
X0672016Y0174867D02*
X0672016Y0176001D01*
X0671449Y0176569D01*
X0670882Y0176569D01*
X0672016Y0174867D02*
X0672583Y0174300D01*
X0673151Y0174300D01*
X0673718Y0174867D01*
X0673718Y0176001D01*
X0673151Y0176569D01*
X0674735Y0173250D02*
X0668735Y0173250D01*
X0668675Y0173248D01*
X0668614Y0173243D01*
X0668555Y0173234D01*
X0668496Y0173221D01*
X0668437Y0173205D01*
X0668380Y0173185D01*
X0668325Y0173162D01*
X0668270Y0173135D01*
X0668218Y0173106D01*
X0668167Y0173073D01*
X0668118Y0173037D01*
X0668072Y0172999D01*
X0668028Y0172957D01*
X0667986Y0172913D01*
X0667948Y0172867D01*
X0667912Y0172818D01*
X0667879Y0172767D01*
X0667850Y0172715D01*
X0667823Y0172660D01*
X0667800Y0172605D01*
X0667780Y0172548D01*
X0667764Y0172489D01*
X0667751Y0172430D01*
X0667742Y0172371D01*
X0667737Y0172310D01*
X0667735Y0172250D01*
X0667735Y0161250D01*
X0667737Y0161190D01*
X0667742Y0161129D01*
X0667751Y0161070D01*
X0667764Y0161011D01*
X0667780Y0160952D01*
X0667800Y0160895D01*
X0667823Y0160840D01*
X0667850Y0160785D01*
X0667879Y0160733D01*
X0667912Y0160682D01*
X0667948Y0160633D01*
X0667986Y0160587D01*
X0668028Y0160543D01*
X0668072Y0160501D01*
X0668118Y0160463D01*
X0668167Y0160427D01*
X0668218Y0160394D01*
X0668270Y0160365D01*
X0668325Y0160338D01*
X0668380Y0160315D01*
X0668437Y0160295D01*
X0668496Y0160279D01*
X0668555Y0160266D01*
X0668614Y0160257D01*
X0668675Y0160252D01*
X0668735Y0160250D01*
X0674735Y0160250D01*
X0674795Y0160252D01*
X0674856Y0160257D01*
X0674915Y0160266D01*
X0674974Y0160279D01*
X0675033Y0160295D01*
X0675090Y0160315D01*
X0675145Y0160338D01*
X0675200Y0160365D01*
X0675252Y0160394D01*
X0675303Y0160427D01*
X0675352Y0160463D01*
X0675398Y0160501D01*
X0675442Y0160543D01*
X0675484Y0160587D01*
X0675522Y0160633D01*
X0675558Y0160682D01*
X0675591Y0160733D01*
X0675620Y0160785D01*
X0675647Y0160840D01*
X0675670Y0160895D01*
X0675690Y0160952D01*
X0675706Y0161011D01*
X0675719Y0161070D01*
X0675728Y0161129D01*
X0675733Y0161190D01*
X0675735Y0161250D01*
X0675735Y0172250D01*
X0675733Y0172310D01*
X0675728Y0172371D01*
X0675719Y0172430D01*
X0675706Y0172489D01*
X0675690Y0172548D01*
X0675670Y0172605D01*
X0675647Y0172660D01*
X0675620Y0172715D01*
X0675591Y0172767D01*
X0675558Y0172818D01*
X0675522Y0172867D01*
X0675484Y0172913D01*
X0675442Y0172957D01*
X0675398Y0172999D01*
X0675352Y0173037D01*
X0675303Y0173073D01*
X0675252Y0173106D01*
X0675200Y0173135D01*
X0675145Y0173162D01*
X0675090Y0173185D01*
X0675033Y0173205D01*
X0674974Y0173221D01*
X0674915Y0173234D01*
X0674856Y0173243D01*
X0674795Y0173248D01*
X0674735Y0173250D01*
X0685117Y0185300D02*
X0684550Y0185867D01*
X0684550Y0188136D01*
X0685117Y0188703D01*
X0686252Y0188703D01*
X0686819Y0188136D01*
X0686819Y0187569D01*
X0686252Y0187001D01*
X0684550Y0187001D01*
X0685117Y0185300D02*
X0686252Y0185300D01*
X0686819Y0185867D01*
X0688801Y0185867D02*
X0688801Y0188703D01*
X0689368Y0188703D02*
X0688233Y0188703D01*
X0688801Y0185867D02*
X0689368Y0185300D01*
X0689935Y0185300D01*
X0690502Y0185867D01*
X0691917Y0185867D02*
X0692484Y0185300D01*
X0693618Y0185300D01*
X0694185Y0185867D01*
X0693618Y0187001D02*
X0692484Y0187001D01*
X0691917Y0186434D01*
X0691917Y0185867D01*
X0693618Y0187001D02*
X0694185Y0187569D01*
X0694185Y0188136D01*
X0693618Y0188703D01*
X0692484Y0188703D01*
X0691917Y0188136D01*
X0695235Y0189750D02*
X0695235Y0183750D01*
X0695237Y0183690D01*
X0695242Y0183629D01*
X0695251Y0183570D01*
X0695264Y0183511D01*
X0695280Y0183452D01*
X0695300Y0183395D01*
X0695323Y0183340D01*
X0695350Y0183285D01*
X0695379Y0183233D01*
X0695412Y0183182D01*
X0695448Y0183133D01*
X0695486Y0183087D01*
X0695528Y0183043D01*
X0695572Y0183001D01*
X0695618Y0182963D01*
X0695667Y0182927D01*
X0695718Y0182894D01*
X0695770Y0182865D01*
X0695825Y0182838D01*
X0695880Y0182815D01*
X0695937Y0182795D01*
X0695996Y0182779D01*
X0696055Y0182766D01*
X0696114Y0182757D01*
X0696175Y0182752D01*
X0696235Y0182750D01*
X0707235Y0182750D01*
X0707295Y0182752D01*
X0707356Y0182757D01*
X0707415Y0182766D01*
X0707474Y0182779D01*
X0707533Y0182795D01*
X0707590Y0182815D01*
X0707645Y0182838D01*
X0707700Y0182865D01*
X0707752Y0182894D01*
X0707803Y0182927D01*
X0707852Y0182963D01*
X0707898Y0183001D01*
X0707942Y0183043D01*
X0707984Y0183087D01*
X0708022Y0183133D01*
X0708058Y0183182D01*
X0708091Y0183233D01*
X0708120Y0183285D01*
X0708147Y0183340D01*
X0708170Y0183395D01*
X0708190Y0183452D01*
X0708206Y0183511D01*
X0708219Y0183570D01*
X0708228Y0183629D01*
X0708233Y0183690D01*
X0708235Y0183750D01*
X0708235Y0189750D01*
X0708233Y0189810D01*
X0708228Y0189871D01*
X0708219Y0189930D01*
X0708206Y0189989D01*
X0708190Y0190048D01*
X0708170Y0190105D01*
X0708147Y0190160D01*
X0708120Y0190215D01*
X0708091Y0190267D01*
X0708058Y0190318D01*
X0708022Y0190367D01*
X0707984Y0190413D01*
X0707942Y0190457D01*
X0707898Y0190499D01*
X0707852Y0190537D01*
X0707803Y0190573D01*
X0707752Y0190606D01*
X0707700Y0190635D01*
X0707645Y0190662D01*
X0707590Y0190685D01*
X0707533Y0190705D01*
X0707474Y0190721D01*
X0707415Y0190734D01*
X0707356Y0190743D01*
X0707295Y0190748D01*
X0707235Y0190750D01*
X0696235Y0190750D01*
X0696175Y0190748D01*
X0696114Y0190743D01*
X0696055Y0190734D01*
X0695996Y0190721D01*
X0695937Y0190705D01*
X0695880Y0190685D01*
X0695825Y0190662D01*
X0695770Y0190635D01*
X0695718Y0190606D01*
X0695667Y0190573D01*
X0695618Y0190537D01*
X0695572Y0190499D01*
X0695528Y0190457D01*
X0695486Y0190413D01*
X0695448Y0190367D01*
X0695412Y0190318D01*
X0695379Y0190267D01*
X0695350Y0190215D01*
X0695323Y0190160D01*
X0695300Y0190105D01*
X0695280Y0190048D01*
X0695264Y0189989D01*
X0695251Y0189930D01*
X0695242Y0189871D01*
X0695237Y0189810D01*
X0695235Y0189750D01*
X0707485Y0197750D02*
X0718485Y0197750D01*
X0718545Y0197752D01*
X0718606Y0197757D01*
X0718665Y0197766D01*
X0718724Y0197779D01*
X0718783Y0197795D01*
X0718840Y0197815D01*
X0718895Y0197838D01*
X0718950Y0197865D01*
X0719002Y0197894D01*
X0719053Y0197927D01*
X0719102Y0197963D01*
X0719148Y0198001D01*
X0719192Y0198043D01*
X0719234Y0198087D01*
X0719272Y0198133D01*
X0719308Y0198182D01*
X0719341Y0198233D01*
X0719370Y0198285D01*
X0719397Y0198340D01*
X0719420Y0198395D01*
X0719440Y0198452D01*
X0719456Y0198511D01*
X0719469Y0198570D01*
X0719478Y0198629D01*
X0719483Y0198690D01*
X0719485Y0198750D01*
X0719485Y0204750D01*
X0719483Y0204810D01*
X0719478Y0204871D01*
X0719469Y0204930D01*
X0719456Y0204989D01*
X0719440Y0205048D01*
X0719420Y0205105D01*
X0719397Y0205160D01*
X0719370Y0205215D01*
X0719341Y0205267D01*
X0719308Y0205318D01*
X0719272Y0205367D01*
X0719234Y0205413D01*
X0719192Y0205457D01*
X0719148Y0205499D01*
X0719102Y0205537D01*
X0719053Y0205573D01*
X0719002Y0205606D01*
X0718950Y0205635D01*
X0718895Y0205662D01*
X0718840Y0205685D01*
X0718783Y0205705D01*
X0718724Y0205721D01*
X0718665Y0205734D01*
X0718606Y0205743D01*
X0718545Y0205748D01*
X0718485Y0205750D01*
X0707485Y0205750D01*
X0707425Y0205748D01*
X0707364Y0205743D01*
X0707305Y0205734D01*
X0707246Y0205721D01*
X0707187Y0205705D01*
X0707130Y0205685D01*
X0707075Y0205662D01*
X0707020Y0205635D01*
X0706968Y0205606D01*
X0706917Y0205573D01*
X0706868Y0205537D01*
X0706822Y0205499D01*
X0706778Y0205457D01*
X0706736Y0205413D01*
X0706698Y0205367D01*
X0706662Y0205318D01*
X0706629Y0205267D01*
X0706600Y0205215D01*
X0706573Y0205160D01*
X0706550Y0205105D01*
X0706530Y0205048D01*
X0706514Y0204989D01*
X0706501Y0204930D01*
X0706492Y0204871D01*
X0706487Y0204810D01*
X0706485Y0204750D01*
X0706485Y0198750D01*
X0706487Y0198690D01*
X0706492Y0198629D01*
X0706501Y0198570D01*
X0706514Y0198511D01*
X0706530Y0198452D01*
X0706550Y0198395D01*
X0706573Y0198340D01*
X0706600Y0198285D01*
X0706629Y0198233D01*
X0706662Y0198182D01*
X0706698Y0198133D01*
X0706736Y0198087D01*
X0706778Y0198043D01*
X0706822Y0198001D01*
X0706868Y0197963D01*
X0706917Y0197927D01*
X0706968Y0197894D01*
X0707020Y0197865D01*
X0707075Y0197838D01*
X0707130Y0197815D01*
X0707187Y0197795D01*
X0707246Y0197779D01*
X0707305Y0197766D01*
X0707364Y0197757D01*
X0707425Y0197752D01*
X0707485Y0197750D01*
X0704868Y0200300D02*
X0703734Y0200300D01*
X0703167Y0200867D01*
X0703167Y0201434D01*
X0703734Y0202001D01*
X0704868Y0202001D01*
X0705435Y0202569D01*
X0705435Y0203136D01*
X0704868Y0203703D01*
X0703734Y0203703D01*
X0703167Y0203136D01*
X0700618Y0203703D02*
X0699483Y0203703D01*
X0700051Y0203703D02*
X0700051Y0200867D01*
X0700618Y0200300D01*
X0701185Y0200300D01*
X0701752Y0200867D01*
X0704868Y0200300D02*
X0705435Y0200867D01*
X0698069Y0200867D02*
X0697502Y0200300D01*
X0696367Y0200300D01*
X0695800Y0200867D01*
X0695800Y0202001D01*
X0696367Y0202569D01*
X0696935Y0202569D01*
X0698069Y0202001D01*
X0698069Y0203703D01*
X0695800Y0203703D01*
X0719502Y0191398D02*
X0719502Y0190831D01*
X0721771Y0188562D01*
X0721771Y0187995D01*
X0723185Y0187995D02*
X0725454Y0187995D01*
X0724320Y0187995D02*
X0724320Y0191398D01*
X0725454Y0190263D01*
X0726868Y0190831D02*
X0727436Y0191398D01*
X0728570Y0191398D01*
X0729137Y0190831D01*
X0729137Y0188562D01*
X0728570Y0187995D01*
X0727436Y0187995D01*
X0726868Y0188562D01*
X0721771Y0191398D02*
X0719502Y0191398D01*
X0730379Y0199867D02*
X0730946Y0199300D01*
X0732081Y0199300D01*
X0732648Y0199867D01*
X0730379Y0202136D01*
X0730379Y0199867D01*
X0730379Y0202136D02*
X0730946Y0202703D01*
X0732081Y0202703D01*
X0732648Y0202136D01*
X0732648Y0199867D01*
X0734062Y0199867D02*
X0734630Y0199300D01*
X0735764Y0199300D01*
X0736331Y0199867D01*
X0737746Y0199300D02*
X0738880Y0200434D01*
X0738313Y0200434D02*
X0740014Y0200434D01*
X0740014Y0199300D02*
X0740014Y0202703D01*
X0738313Y0202703D01*
X0737746Y0202136D01*
X0737746Y0201001D01*
X0738313Y0200434D01*
X0736331Y0202136D02*
X0735764Y0202703D01*
X0734630Y0202703D01*
X0734062Y0202136D01*
X0734062Y0201569D01*
X0734630Y0201001D01*
X0734062Y0200434D01*
X0734062Y0199867D01*
X0734630Y0201001D02*
X0735197Y0201001D01*
X0734714Y0222050D02*
X0733580Y0222050D01*
X0733013Y0222617D01*
X0733013Y0223184D01*
X0733580Y0223751D01*
X0734147Y0223751D01*
X0733580Y0223751D02*
X0733013Y0224319D01*
X0733013Y0224886D01*
X0733580Y0225453D01*
X0734714Y0225453D01*
X0735282Y0224886D01*
X0736696Y0224886D02*
X0736696Y0223751D01*
X0737263Y0223184D01*
X0738965Y0223184D01*
X0738965Y0222050D02*
X0738965Y0225453D01*
X0737263Y0225453D01*
X0736696Y0224886D01*
X0737830Y0223184D02*
X0736696Y0222050D01*
X0735282Y0222617D02*
X0734714Y0222050D01*
X0731598Y0222050D02*
X0729330Y0222050D01*
X0730464Y0222050D02*
X0730464Y0225453D01*
X0731598Y0224319D01*
X0728570Y0242995D02*
X0727436Y0242995D01*
X0726868Y0243562D01*
X0725454Y0242995D02*
X0723185Y0242995D01*
X0724320Y0242995D02*
X0724320Y0246398D01*
X0725454Y0245263D01*
X0726868Y0245831D02*
X0727436Y0246398D01*
X0728570Y0246398D01*
X0729137Y0245831D01*
X0729137Y0243562D01*
X0728570Y0242995D01*
X0721771Y0243562D02*
X0721204Y0242995D01*
X0720069Y0242995D01*
X0719502Y0243562D01*
X0719502Y0244129D01*
X0720069Y0244696D01*
X0721771Y0244696D01*
X0721771Y0243562D01*
X0721771Y0244696D02*
X0720636Y0245831D01*
X0719502Y0246398D01*
X0673718Y0284867D02*
X0673151Y0284300D01*
X0672583Y0284300D01*
X0672016Y0284867D01*
X0672016Y0286001D01*
X0671449Y0286569D01*
X0670882Y0286569D01*
X0670315Y0286001D01*
X0670315Y0284867D01*
X0670882Y0284300D01*
X0673718Y0284867D02*
X0673718Y0286001D01*
X0673151Y0286569D01*
X0673718Y0289117D02*
X0673718Y0290252D01*
X0673718Y0289685D02*
X0670882Y0289685D01*
X0670315Y0289117D01*
X0670315Y0288550D01*
X0670882Y0287983D01*
X0672016Y0291666D02*
X0672016Y0293935D01*
X0670315Y0293368D02*
X0673718Y0293368D01*
X0672016Y0291666D01*
X0684550Y0291434D02*
X0684550Y0290867D01*
X0685117Y0290300D01*
X0686252Y0290300D01*
X0686819Y0290867D01*
X0685685Y0292001D02*
X0685117Y0292001D01*
X0684550Y0291434D01*
X0685117Y0292001D02*
X0684550Y0292569D01*
X0684550Y0293136D01*
X0685117Y0293703D01*
X0686252Y0293703D01*
X0686819Y0293136D01*
X0688233Y0293703D02*
X0689368Y0293703D01*
X0688801Y0293703D02*
X0688801Y0290867D01*
X0689368Y0290300D01*
X0689935Y0290300D01*
X0690502Y0290867D01*
X0691917Y0290867D02*
X0692484Y0290300D01*
X0693618Y0290300D01*
X0694185Y0290867D01*
X0693618Y0292001D02*
X0692484Y0292001D01*
X0691917Y0291434D01*
X0691917Y0290867D01*
X0693618Y0292001D02*
X0694185Y0292569D01*
X0694185Y0293136D01*
X0693618Y0293703D01*
X0692484Y0293703D01*
X0691917Y0293136D01*
X0695235Y0294750D02*
X0695235Y0288750D01*
X0695237Y0288690D01*
X0695242Y0288629D01*
X0695251Y0288570D01*
X0695264Y0288511D01*
X0695280Y0288452D01*
X0695300Y0288395D01*
X0695323Y0288340D01*
X0695350Y0288285D01*
X0695379Y0288233D01*
X0695412Y0288182D01*
X0695448Y0288133D01*
X0695486Y0288087D01*
X0695528Y0288043D01*
X0695572Y0288001D01*
X0695618Y0287963D01*
X0695667Y0287927D01*
X0695718Y0287894D01*
X0695770Y0287865D01*
X0695825Y0287838D01*
X0695880Y0287815D01*
X0695937Y0287795D01*
X0695996Y0287779D01*
X0696055Y0287766D01*
X0696114Y0287757D01*
X0696175Y0287752D01*
X0696235Y0287750D01*
X0707235Y0287750D01*
X0707295Y0287752D01*
X0707356Y0287757D01*
X0707415Y0287766D01*
X0707474Y0287779D01*
X0707533Y0287795D01*
X0707590Y0287815D01*
X0707645Y0287838D01*
X0707700Y0287865D01*
X0707752Y0287894D01*
X0707803Y0287927D01*
X0707852Y0287963D01*
X0707898Y0288001D01*
X0707942Y0288043D01*
X0707984Y0288087D01*
X0708022Y0288133D01*
X0708058Y0288182D01*
X0708091Y0288233D01*
X0708120Y0288285D01*
X0708147Y0288340D01*
X0708170Y0288395D01*
X0708190Y0288452D01*
X0708206Y0288511D01*
X0708219Y0288570D01*
X0708228Y0288629D01*
X0708233Y0288690D01*
X0708235Y0288750D01*
X0708235Y0294750D01*
X0708233Y0294810D01*
X0708228Y0294871D01*
X0708219Y0294930D01*
X0708206Y0294989D01*
X0708190Y0295048D01*
X0708170Y0295105D01*
X0708147Y0295160D01*
X0708120Y0295215D01*
X0708091Y0295267D01*
X0708058Y0295318D01*
X0708022Y0295367D01*
X0707984Y0295413D01*
X0707942Y0295457D01*
X0707898Y0295499D01*
X0707852Y0295537D01*
X0707803Y0295573D01*
X0707752Y0295606D01*
X0707700Y0295635D01*
X0707645Y0295662D01*
X0707590Y0295685D01*
X0707533Y0295705D01*
X0707474Y0295721D01*
X0707415Y0295734D01*
X0707356Y0295743D01*
X0707295Y0295748D01*
X0707235Y0295750D01*
X0696235Y0295750D01*
X0696175Y0295748D01*
X0696114Y0295743D01*
X0696055Y0295734D01*
X0695996Y0295721D01*
X0695937Y0295705D01*
X0695880Y0295685D01*
X0695825Y0295662D01*
X0695770Y0295635D01*
X0695718Y0295606D01*
X0695667Y0295573D01*
X0695618Y0295537D01*
X0695572Y0295499D01*
X0695528Y0295457D01*
X0695486Y0295413D01*
X0695448Y0295367D01*
X0695412Y0295318D01*
X0695379Y0295267D01*
X0695350Y0295215D01*
X0695323Y0295160D01*
X0695300Y0295105D01*
X0695280Y0295048D01*
X0695264Y0294989D01*
X0695251Y0294930D01*
X0695242Y0294871D01*
X0695237Y0294810D01*
X0695235Y0294750D01*
X0719502Y0298562D02*
X0719502Y0299696D01*
X0720069Y0300263D01*
X0720636Y0300263D01*
X0721771Y0299696D01*
X0721771Y0301398D01*
X0719502Y0301398D01*
X0719502Y0298562D02*
X0720069Y0297995D01*
X0721204Y0297995D01*
X0721771Y0298562D01*
X0723185Y0297995D02*
X0725454Y0297995D01*
X0724320Y0297995D02*
X0724320Y0301398D01*
X0725454Y0300263D01*
X0726868Y0300831D02*
X0727436Y0301398D01*
X0728570Y0301398D01*
X0729137Y0300831D01*
X0729137Y0298562D01*
X0728570Y0297995D01*
X0727436Y0297995D01*
X0726868Y0298562D01*
X0642485Y0287703D02*
X0642485Y0284300D01*
X0642485Y0285434D02*
X0640783Y0285434D01*
X0640216Y0286001D01*
X0640216Y0287136D01*
X0640783Y0287703D01*
X0642485Y0287703D01*
X0641350Y0285434D02*
X0640216Y0284300D01*
X0638802Y0284300D02*
X0636533Y0286569D01*
X0636533Y0287136D01*
X0637100Y0287703D01*
X0638234Y0287703D01*
X0638802Y0287136D01*
X0638802Y0284300D02*
X0636533Y0284300D01*
X0635118Y0284867D02*
X0634551Y0284300D01*
X0633417Y0284300D01*
X0632850Y0284867D01*
X0632850Y0287136D01*
X0633417Y0287703D01*
X0634551Y0287703D01*
X0635118Y0287136D01*
X0635118Y0286569D01*
X0634551Y0286001D01*
X0632850Y0286001D01*
X0489203Y0190551D02*
X0485800Y0190551D01*
X0485800Y0191685D02*
X0485800Y0189416D01*
X0486367Y0188002D02*
X0485800Y0187435D01*
X0485800Y0186300D01*
X0486367Y0185733D01*
X0487501Y0185733D02*
X0488069Y0186867D01*
X0488069Y0187435D01*
X0487501Y0188002D01*
X0486367Y0188002D01*
X0488069Y0189416D02*
X0489203Y0190551D01*
X0489203Y0188002D02*
X0489203Y0185733D01*
X0487501Y0185733D01*
X0487501Y0184319D02*
X0486934Y0183751D01*
X0486934Y0182050D01*
X0485800Y0182050D02*
X0489203Y0182050D01*
X0489203Y0183751D01*
X0488636Y0184319D01*
X0487501Y0184319D01*
X0486934Y0183184D02*
X0485800Y0184319D01*
X0479203Y0183751D02*
X0479203Y0182050D01*
X0475800Y0182050D01*
X0476934Y0182050D02*
X0476934Y0183751D01*
X0477501Y0184319D01*
X0478636Y0184319D01*
X0479203Y0183751D01*
X0479203Y0185733D02*
X0477501Y0185733D01*
X0478069Y0186867D01*
X0478069Y0187435D01*
X0477501Y0188002D01*
X0476367Y0188002D01*
X0475800Y0187435D01*
X0475800Y0186300D01*
X0476367Y0185733D01*
X0475800Y0184319D02*
X0476934Y0183184D01*
X0479203Y0185733D02*
X0479203Y0188002D01*
X0478636Y0189416D02*
X0478069Y0189416D01*
X0477501Y0189983D01*
X0477501Y0191118D01*
X0476934Y0191685D01*
X0476367Y0191685D01*
X0475800Y0191118D01*
X0475800Y0189983D01*
X0476367Y0189416D01*
X0476934Y0189416D01*
X0477501Y0189983D01*
X0477501Y0191118D02*
X0478069Y0191685D01*
X0478636Y0191685D01*
X0479203Y0191118D01*
X0479203Y0189983D01*
X0478636Y0189416D01*
X0459636Y0160635D02*
X0459069Y0160635D01*
X0458501Y0160068D01*
X0458501Y0158934D01*
X0459069Y0158367D01*
X0459636Y0158367D01*
X0460203Y0158934D01*
X0460203Y0160068D01*
X0459636Y0160635D01*
X0458501Y0160068D02*
X0457934Y0160635D01*
X0457367Y0160635D01*
X0456800Y0160068D01*
X0456800Y0158934D01*
X0457367Y0158367D01*
X0457934Y0158367D01*
X0458501Y0158934D01*
X0457934Y0156952D02*
X0458501Y0156385D01*
X0458501Y0154684D01*
X0457367Y0154684D01*
X0456800Y0155251D01*
X0456800Y0156385D01*
X0457367Y0156952D01*
X0457934Y0156952D01*
X0459636Y0155818D02*
X0458501Y0154684D01*
X0458501Y0153269D02*
X0457934Y0152702D01*
X0457934Y0151001D01*
X0457934Y0152135D02*
X0456800Y0153269D01*
X0458501Y0153269D02*
X0459636Y0153269D01*
X0460203Y0152702D01*
X0460203Y0151001D01*
X0456800Y0151001D01*
X0459636Y0155818D02*
X0460203Y0156952D01*
X0444203Y0156251D02*
X0443636Y0156819D01*
X0442501Y0156819D01*
X0441934Y0156251D01*
X0441934Y0154550D01*
X0440800Y0154550D02*
X0444203Y0154550D01*
X0444203Y0156251D01*
X0441934Y0155684D02*
X0440800Y0156819D01*
X0441367Y0158233D02*
X0440800Y0158800D01*
X0440800Y0159935D01*
X0441367Y0160502D01*
X0441934Y0160502D01*
X0442501Y0159935D01*
X0442501Y0158233D01*
X0441367Y0158233D01*
X0442501Y0158233D02*
X0443636Y0159367D01*
X0444203Y0160502D01*
X0443636Y0161916D02*
X0444203Y0162483D01*
X0444203Y0163618D01*
X0443636Y0164185D01*
X0443069Y0164185D01*
X0442501Y0163618D01*
X0441934Y0164185D01*
X0441367Y0164185D01*
X0440800Y0163618D01*
X0440800Y0162483D01*
X0441367Y0161916D01*
X0442501Y0163051D02*
X0442501Y0163618D01*
X0420200Y0148636D02*
X0420200Y0146367D01*
X0419633Y0145800D01*
X0418499Y0145800D01*
X0417931Y0146367D01*
X0416517Y0145800D02*
X0414248Y0148069D01*
X0414248Y0148636D01*
X0414815Y0149203D01*
X0415950Y0149203D01*
X0416517Y0148636D01*
X0417931Y0148636D02*
X0418499Y0149203D01*
X0419633Y0149203D01*
X0420200Y0148636D01*
X0416517Y0145800D02*
X0414248Y0145800D01*
X0412834Y0147501D02*
X0410565Y0147501D01*
X0411132Y0145800D02*
X0411132Y0149203D01*
X0412834Y0147501D01*
X0432050Y0142935D02*
X0432050Y0140666D01*
X0432050Y0141801D02*
X0435453Y0141801D01*
X0434319Y0140666D01*
X0434319Y0139252D02*
X0433751Y0138685D01*
X0433184Y0139252D01*
X0432617Y0139252D01*
X0432050Y0138685D01*
X0432050Y0137550D01*
X0432617Y0136983D01*
X0432617Y0135569D02*
X0432050Y0135001D01*
X0432050Y0133867D01*
X0432617Y0133300D01*
X0434886Y0133300D01*
X0435453Y0133867D01*
X0435453Y0135001D01*
X0434886Y0135569D01*
X0434886Y0136983D02*
X0435453Y0137550D01*
X0435453Y0138685D01*
X0434886Y0139252D01*
X0434319Y0139252D01*
X0433751Y0138685D02*
X0433751Y0138117D01*
X0457050Y0137435D02*
X0457050Y0136300D01*
X0457617Y0135733D01*
X0457617Y0134319D02*
X0457050Y0133751D01*
X0457050Y0132617D01*
X0457617Y0132050D01*
X0459886Y0132050D01*
X0460453Y0132617D01*
X0460453Y0133751D01*
X0459886Y0134319D01*
X0459886Y0135733D02*
X0460453Y0136300D01*
X0460453Y0137435D01*
X0459886Y0138002D01*
X0459319Y0138002D01*
X0458751Y0137435D01*
X0458184Y0138002D01*
X0457617Y0138002D01*
X0457050Y0137435D01*
X0458751Y0137435D02*
X0458751Y0136867D01*
X0457617Y0139416D02*
X0459886Y0141685D01*
X0457617Y0141685D01*
X0457050Y0141118D01*
X0457050Y0139983D01*
X0457617Y0139416D01*
X0459886Y0139416D01*
X0460453Y0139983D01*
X0460453Y0141118D01*
X0459886Y0141685D01*
X0481815Y0145800D02*
X0484084Y0145800D01*
X0481815Y0148069D01*
X0481815Y0148636D01*
X0482382Y0149203D01*
X0483517Y0149203D01*
X0484084Y0148636D01*
X0485498Y0148636D02*
X0486065Y0149203D01*
X0487200Y0149203D01*
X0487767Y0148636D01*
X0489181Y0148636D02*
X0489749Y0149203D01*
X0490883Y0149203D01*
X0491450Y0148636D01*
X0491450Y0146367D01*
X0490883Y0145800D01*
X0489749Y0145800D01*
X0489181Y0146367D01*
X0487767Y0145800D02*
X0485498Y0148069D01*
X0485498Y0148636D01*
X0485498Y0145800D02*
X0487767Y0145800D01*
X0503050Y0140635D02*
X0503050Y0138367D01*
X0503050Y0139501D02*
X0506453Y0139501D01*
X0505319Y0138367D01*
X0505319Y0136952D02*
X0505886Y0136952D01*
X0506453Y0136385D01*
X0506453Y0135251D01*
X0505886Y0134684D01*
X0505886Y0133269D02*
X0506453Y0132702D01*
X0506453Y0131568D01*
X0505886Y0131001D01*
X0503617Y0131001D01*
X0503050Y0131568D01*
X0503050Y0132702D01*
X0503617Y0133269D01*
X0503050Y0134684D02*
X0505319Y0136952D01*
X0503050Y0136952D02*
X0503050Y0134684D01*
X0517750Y0124750D02*
X0517750Y0118750D01*
X0517752Y0118690D01*
X0517757Y0118629D01*
X0517766Y0118570D01*
X0517779Y0118511D01*
X0517795Y0118452D01*
X0517815Y0118395D01*
X0517838Y0118340D01*
X0517865Y0118285D01*
X0517894Y0118233D01*
X0517927Y0118182D01*
X0517963Y0118133D01*
X0518001Y0118087D01*
X0518043Y0118043D01*
X0518087Y0118001D01*
X0518133Y0117963D01*
X0518182Y0117927D01*
X0518233Y0117894D01*
X0518285Y0117865D01*
X0518340Y0117838D01*
X0518395Y0117815D01*
X0518452Y0117795D01*
X0518511Y0117779D01*
X0518570Y0117766D01*
X0518629Y0117757D01*
X0518690Y0117752D01*
X0518750Y0117750D01*
X0529750Y0117750D01*
X0529810Y0117752D01*
X0529871Y0117757D01*
X0529930Y0117766D01*
X0529989Y0117779D01*
X0530048Y0117795D01*
X0530105Y0117815D01*
X0530160Y0117838D01*
X0530215Y0117865D01*
X0530267Y0117894D01*
X0530318Y0117927D01*
X0530367Y0117963D01*
X0530413Y0118001D01*
X0530457Y0118043D01*
X0530499Y0118087D01*
X0530537Y0118133D01*
X0530573Y0118182D01*
X0530606Y0118233D01*
X0530635Y0118285D01*
X0530662Y0118340D01*
X0530685Y0118395D01*
X0530705Y0118452D01*
X0530721Y0118511D01*
X0530734Y0118570D01*
X0530743Y0118629D01*
X0530748Y0118690D01*
X0530750Y0118750D01*
X0530750Y0124750D01*
X0530748Y0124810D01*
X0530743Y0124871D01*
X0530734Y0124930D01*
X0530721Y0124989D01*
X0530705Y0125048D01*
X0530685Y0125105D01*
X0530662Y0125160D01*
X0530635Y0125215D01*
X0530606Y0125267D01*
X0530573Y0125318D01*
X0530537Y0125367D01*
X0530499Y0125413D01*
X0530457Y0125457D01*
X0530413Y0125499D01*
X0530367Y0125537D01*
X0530318Y0125573D01*
X0530267Y0125606D01*
X0530215Y0125635D01*
X0530160Y0125662D01*
X0530105Y0125685D01*
X0530048Y0125705D01*
X0529989Y0125721D01*
X0529930Y0125734D01*
X0529871Y0125743D01*
X0529810Y0125748D01*
X0529750Y0125750D01*
X0518750Y0125750D01*
X0518690Y0125748D01*
X0518629Y0125743D01*
X0518570Y0125734D01*
X0518511Y0125721D01*
X0518452Y0125705D01*
X0518395Y0125685D01*
X0518340Y0125662D01*
X0518285Y0125635D01*
X0518233Y0125606D01*
X0518182Y0125573D01*
X0518133Y0125537D01*
X0518087Y0125499D01*
X0518043Y0125457D01*
X0518001Y0125413D01*
X0517963Y0125367D01*
X0517927Y0125318D01*
X0517894Y0125267D01*
X0517865Y0125215D01*
X0517838Y0125160D01*
X0517815Y0125105D01*
X0517795Y0125048D01*
X0517779Y0124989D01*
X0517766Y0124930D01*
X0517757Y0124871D01*
X0517752Y0124810D01*
X0517750Y0124750D01*
X0519999Y0116953D02*
X0519999Y0113550D01*
X0521133Y0113550D02*
X0518865Y0113550D01*
X0521133Y0115819D02*
X0519999Y0116953D01*
X0522548Y0116953D02*
X0523682Y0116953D01*
X0523115Y0116953D02*
X0523115Y0114117D01*
X0523682Y0113550D01*
X0524249Y0113550D01*
X0524816Y0114117D01*
X0526231Y0114117D02*
X0526798Y0113550D01*
X0527932Y0113550D01*
X0528499Y0114117D01*
X0527932Y0115251D02*
X0528499Y0115819D01*
X0528499Y0116386D01*
X0527932Y0116953D01*
X0526798Y0116953D01*
X0526231Y0116386D01*
X0526798Y0115251D02*
X0526231Y0114684D01*
X0526231Y0114117D01*
X0526798Y0115251D02*
X0527932Y0115251D01*
X0488453Y0107568D02*
X0487886Y0108135D01*
X0485617Y0105867D01*
X0485050Y0106434D01*
X0485050Y0107568D01*
X0485617Y0108135D01*
X0487886Y0108135D01*
X0488453Y0107568D02*
X0488453Y0106434D01*
X0487886Y0105867D01*
X0485617Y0105867D01*
X0485617Y0104452D02*
X0485050Y0103885D01*
X0485050Y0102751D01*
X0485617Y0102184D01*
X0486751Y0102184D02*
X0487319Y0103318D01*
X0487319Y0103885D01*
X0486751Y0104452D01*
X0485617Y0104452D01*
X0486751Y0102184D02*
X0488453Y0102184D01*
X0488453Y0104452D01*
X0487886Y0100769D02*
X0486751Y0100769D01*
X0486184Y0100202D01*
X0486184Y0098501D01*
X0486184Y0099635D02*
X0485050Y0100769D01*
X0485050Y0098501D02*
X0488453Y0098501D01*
X0488453Y0100202D01*
X0487886Y0100769D01*
X0480203Y0100202D02*
X0479636Y0100769D01*
X0478501Y0100769D01*
X0477934Y0100202D01*
X0477934Y0098501D01*
X0477934Y0099635D02*
X0476800Y0100769D01*
X0477367Y0102184D02*
X0476800Y0102751D01*
X0476800Y0103885D01*
X0477367Y0104452D01*
X0478501Y0104452D01*
X0479069Y0103885D01*
X0479069Y0103318D01*
X0478501Y0102184D01*
X0480203Y0102184D01*
X0480203Y0104452D01*
X0478501Y0105867D02*
X0478501Y0107568D01*
X0477934Y0108135D01*
X0477367Y0108135D01*
X0476800Y0107568D01*
X0476800Y0106434D01*
X0477367Y0105867D01*
X0478501Y0105867D01*
X0479636Y0107001D01*
X0480203Y0108135D01*
X0480203Y0100202D02*
X0480203Y0098501D01*
X0476800Y0098501D01*
X0481800Y0081900D02*
X0481800Y0079632D01*
X0481800Y0080766D02*
X0485203Y0080766D01*
X0484069Y0079632D01*
X0481800Y0078217D02*
X0481800Y0075948D01*
X0481800Y0077083D02*
X0485203Y0077083D01*
X0484069Y0075948D01*
X0484636Y0074534D02*
X0483501Y0074534D01*
X0482934Y0073967D01*
X0482934Y0072265D01*
X0481800Y0072265D02*
X0485203Y0072265D01*
X0485203Y0073967D01*
X0484636Y0074534D01*
X0482934Y0073400D02*
X0481800Y0074534D01*
X0478965Y0073636D02*
X0478965Y0071367D01*
X0478398Y0070800D01*
X0477263Y0070800D01*
X0476696Y0071367D01*
X0475282Y0070800D02*
X0473013Y0070800D01*
X0474147Y0070800D02*
X0474147Y0074203D01*
X0475282Y0073069D01*
X0476696Y0073636D02*
X0477263Y0074203D01*
X0478398Y0074203D01*
X0478965Y0073636D01*
X0471598Y0073069D02*
X0470464Y0074203D01*
X0470464Y0070800D01*
X0471598Y0070800D02*
X0469330Y0070800D01*
X0465203Y0072236D02*
X0465203Y0073937D01*
X0464636Y0074504D01*
X0463501Y0074504D01*
X0462934Y0073937D01*
X0462934Y0072236D01*
X0461800Y0072236D02*
X0465203Y0072236D01*
X0462934Y0073370D02*
X0461800Y0074504D01*
X0461800Y0075919D02*
X0461800Y0078188D01*
X0461800Y0077053D02*
X0465203Y0077053D01*
X0464069Y0075919D01*
X0464636Y0079602D02*
X0465203Y0080169D01*
X0465203Y0081304D01*
X0464636Y0081871D01*
X0462367Y0079602D01*
X0461800Y0080169D01*
X0461800Y0081304D01*
X0462367Y0081871D01*
X0464636Y0081871D01*
X0464636Y0079602D02*
X0462367Y0079602D01*
X0489300Y0073636D02*
X0489867Y0074203D01*
X0491002Y0074203D01*
X0491569Y0073636D01*
X0489300Y0073636D02*
X0489300Y0073069D01*
X0491569Y0070800D01*
X0489300Y0070800D01*
X0492983Y0070800D02*
X0495252Y0070800D01*
X0494118Y0070800D02*
X0494118Y0074203D01*
X0495252Y0073069D01*
X0496667Y0073636D02*
X0497234Y0074203D01*
X0498368Y0074203D01*
X0498935Y0073636D01*
X0498935Y0071367D01*
X0498368Y0070800D01*
X0497234Y0070800D01*
X0496667Y0071367D01*
X0501800Y0072236D02*
X0505203Y0072236D01*
X0505203Y0073937D01*
X0504636Y0074504D01*
X0503501Y0074504D01*
X0502934Y0073937D01*
X0502934Y0072236D01*
X0502934Y0073370D02*
X0501800Y0074504D01*
X0501800Y0075919D02*
X0501800Y0078188D01*
X0501800Y0077053D02*
X0505203Y0077053D01*
X0504069Y0075919D01*
X0504636Y0079602D02*
X0505203Y0080169D01*
X0505203Y0081304D01*
X0504636Y0081871D01*
X0504069Y0081871D01*
X0501800Y0079602D01*
X0501800Y0081871D01*
X0509897Y0074203D02*
X0509330Y0073636D01*
X0509330Y0073069D01*
X0509897Y0072501D01*
X0509330Y0071934D01*
X0509330Y0071367D01*
X0509897Y0070800D01*
X0511031Y0070800D01*
X0511598Y0071367D01*
X0513013Y0070800D02*
X0515282Y0070800D01*
X0514147Y0070800D02*
X0514147Y0074203D01*
X0515282Y0073069D01*
X0516696Y0073636D02*
X0517263Y0074203D01*
X0518398Y0074203D01*
X0518965Y0073636D01*
X0518965Y0071367D01*
X0518398Y0070800D01*
X0517263Y0070800D01*
X0516696Y0071367D01*
X0521800Y0072265D02*
X0525203Y0072265D01*
X0525203Y0073967D01*
X0524636Y0074534D01*
X0523501Y0074534D01*
X0522934Y0073967D01*
X0522934Y0072265D01*
X0522934Y0073400D02*
X0521800Y0074534D01*
X0521800Y0075948D02*
X0521800Y0078217D01*
X0521800Y0077083D02*
X0525203Y0077083D01*
X0524069Y0075948D01*
X0524636Y0079632D02*
X0525203Y0080199D01*
X0525203Y0081333D01*
X0524636Y0081900D01*
X0524069Y0081900D01*
X0523501Y0081333D01*
X0522934Y0081900D01*
X0522367Y0081900D01*
X0521800Y0081333D01*
X0521800Y0080199D01*
X0522367Y0079632D01*
X0523501Y0080766D02*
X0523501Y0081333D01*
X0529867Y0074203D02*
X0531569Y0072501D01*
X0529300Y0072501D01*
X0529867Y0070800D02*
X0529867Y0074203D01*
X0534118Y0074203D02*
X0534118Y0070800D01*
X0535252Y0070800D02*
X0532983Y0070800D01*
X0535252Y0073069D02*
X0534118Y0074203D01*
X0536667Y0073636D02*
X0537234Y0074203D01*
X0538368Y0074203D01*
X0538935Y0073636D01*
X0538935Y0071367D01*
X0538368Y0070800D01*
X0537234Y0070800D01*
X0536667Y0071367D01*
X0511598Y0073636D02*
X0511031Y0074203D01*
X0509897Y0074203D01*
X0509897Y0072501D02*
X0510464Y0072501D01*
X0417203Y0098501D02*
X0417203Y0100202D01*
X0416636Y0100769D01*
X0415501Y0100769D01*
X0414934Y0100202D01*
X0414934Y0098501D01*
X0414934Y0099635D02*
X0413800Y0100769D01*
X0414367Y0102184D02*
X0413800Y0102751D01*
X0413800Y0103885D01*
X0414367Y0104452D01*
X0415501Y0104452D01*
X0416069Y0103885D01*
X0416069Y0103318D01*
X0415501Y0102184D01*
X0417203Y0102184D01*
X0417203Y0104452D01*
X0416636Y0105867D02*
X0417203Y0106434D01*
X0417203Y0107568D01*
X0416636Y0108135D01*
X0416069Y0108135D01*
X0413800Y0105867D01*
X0413800Y0108135D01*
X0408953Y0107568D02*
X0408386Y0108135D01*
X0406117Y0105867D01*
X0405550Y0106434D01*
X0405550Y0107568D01*
X0406117Y0108135D01*
X0408386Y0108135D01*
X0408953Y0107568D02*
X0408953Y0106434D01*
X0408386Y0105867D01*
X0406117Y0105867D01*
X0406117Y0104452D02*
X0406684Y0104452D01*
X0407251Y0103885D01*
X0407251Y0102184D01*
X0406117Y0102184D01*
X0405550Y0102751D01*
X0405550Y0103885D01*
X0406117Y0104452D01*
X0407251Y0102184D02*
X0408386Y0103318D01*
X0408953Y0104452D01*
X0408386Y0100769D02*
X0407251Y0100769D01*
X0406684Y0100202D01*
X0406684Y0098501D01*
X0406684Y0099635D02*
X0405550Y0100769D01*
X0405550Y0098501D02*
X0408953Y0098501D01*
X0408953Y0100202D01*
X0408386Y0100769D01*
X0413800Y0098501D02*
X0417203Y0098501D01*
X0345953Y0098501D02*
X0345953Y0100202D01*
X0345386Y0100769D01*
X0344251Y0100769D01*
X0343684Y0100202D01*
X0343684Y0098501D01*
X0343684Y0099635D02*
X0342550Y0100769D01*
X0343117Y0102184D02*
X0342550Y0102751D01*
X0342550Y0103885D01*
X0343117Y0104452D01*
X0344251Y0104452D01*
X0344819Y0103885D01*
X0344819Y0103318D01*
X0344251Y0102184D01*
X0345953Y0102184D01*
X0345953Y0104452D01*
X0344251Y0105867D02*
X0344251Y0108135D01*
X0342550Y0107568D02*
X0345953Y0107568D01*
X0344251Y0105867D01*
X0337703Y0104452D02*
X0337136Y0103318D01*
X0336001Y0102184D01*
X0336001Y0103885D01*
X0335434Y0104452D01*
X0334867Y0104452D01*
X0334300Y0103885D01*
X0334300Y0102751D01*
X0334867Y0102184D01*
X0336001Y0102184D01*
X0336001Y0100769D02*
X0335434Y0100202D01*
X0335434Y0098501D01*
X0335434Y0099635D02*
X0334300Y0100769D01*
X0336001Y0100769D02*
X0337136Y0100769D01*
X0337703Y0100202D01*
X0337703Y0098501D01*
X0334300Y0098501D01*
X0342550Y0098501D02*
X0345953Y0098501D01*
X0337703Y0107568D02*
X0336001Y0105867D01*
X0336001Y0108135D01*
X0334300Y0107568D02*
X0337703Y0107568D01*
X0284203Y0088617D02*
X0280800Y0088617D01*
X0280800Y0087483D02*
X0280800Y0089752D01*
X0283069Y0087483D02*
X0284203Y0088617D01*
X0283636Y0086069D02*
X0284203Y0085501D01*
X0284203Y0083800D01*
X0280800Y0083800D01*
X0280800Y0085501D01*
X0281367Y0086069D01*
X0283636Y0086069D01*
X0278386Y0123434D02*
X0278953Y0124001D01*
X0278953Y0125135D01*
X0278386Y0125702D01*
X0276117Y0125702D01*
X0275550Y0125135D01*
X0275550Y0124001D01*
X0276117Y0123434D01*
X0278386Y0123434D01*
X0276684Y0124568D02*
X0275550Y0125702D01*
X0275550Y0127117D02*
X0275550Y0129385D01*
X0275550Y0128251D02*
X0278953Y0128251D01*
X0277819Y0127117D01*
X0294882Y0138300D02*
X0294882Y0141703D01*
X0296584Y0140001D01*
X0294315Y0140001D01*
X0297998Y0138300D02*
X0300267Y0138300D01*
X0299133Y0138300D02*
X0299133Y0141703D01*
X0300267Y0140569D01*
X0301681Y0141136D02*
X0301681Y0140001D01*
X0302249Y0139434D01*
X0303950Y0139434D01*
X0303950Y0138300D02*
X0303950Y0141703D01*
X0302249Y0141703D01*
X0301681Y0141136D01*
X0302816Y0139434D02*
X0301681Y0138300D01*
X0314550Y0139252D02*
X0314550Y0136983D01*
X0316819Y0139252D01*
X0317386Y0139252D01*
X0317953Y0138685D01*
X0317953Y0137550D01*
X0317386Y0136983D01*
X0317386Y0135569D02*
X0317953Y0135001D01*
X0317953Y0133867D01*
X0317386Y0133300D01*
X0315117Y0133300D01*
X0314550Y0133867D01*
X0314550Y0135001D01*
X0315117Y0135569D01*
X0315117Y0140666D02*
X0314550Y0141233D01*
X0314550Y0142368D01*
X0315117Y0142935D01*
X0316251Y0142935D01*
X0316819Y0142368D01*
X0316819Y0141801D01*
X0316251Y0140666D01*
X0317953Y0140666D01*
X0317953Y0142935D01*
X0317953Y0152050D02*
X0317953Y0153751D01*
X0317386Y0154319D01*
X0316251Y0154319D01*
X0315684Y0153751D01*
X0315684Y0152050D01*
X0314550Y0152050D02*
X0317953Y0152050D01*
X0315684Y0153184D02*
X0314550Y0154319D01*
X0314550Y0155733D02*
X0315117Y0155733D01*
X0317386Y0158002D01*
X0317953Y0158002D01*
X0317953Y0155733D01*
X0317386Y0159416D02*
X0317953Y0159983D01*
X0317953Y0161118D01*
X0317386Y0161685D01*
X0316819Y0161685D01*
X0314550Y0159416D01*
X0314550Y0161685D01*
X0339315Y0149203D02*
X0340449Y0148636D01*
X0341584Y0147501D01*
X0339882Y0147501D01*
X0339315Y0146934D01*
X0339315Y0146367D01*
X0339882Y0145800D01*
X0341017Y0145800D01*
X0341584Y0146367D01*
X0341584Y0147501D01*
X0342998Y0148069D02*
X0342998Y0148636D01*
X0343565Y0149203D01*
X0344700Y0149203D01*
X0345267Y0148636D01*
X0346681Y0148636D02*
X0347249Y0149203D01*
X0348383Y0149203D01*
X0348950Y0148636D01*
X0348950Y0146367D01*
X0348383Y0145800D01*
X0347249Y0145800D01*
X0346681Y0146367D01*
X0345267Y0145800D02*
X0342998Y0148069D01*
X0342998Y0145800D02*
X0345267Y0145800D01*
X0360800Y0141685D02*
X0360800Y0139416D01*
X0363069Y0141685D01*
X0363636Y0141685D01*
X0364203Y0141118D01*
X0364203Y0139983D01*
X0363636Y0139416D01*
X0363636Y0138002D02*
X0363069Y0138002D01*
X0362501Y0137435D01*
X0361934Y0138002D01*
X0361367Y0138002D01*
X0360800Y0137435D01*
X0360800Y0136300D01*
X0361367Y0135733D01*
X0361367Y0134319D02*
X0360800Y0133751D01*
X0360800Y0132617D01*
X0361367Y0132050D01*
X0363636Y0132050D01*
X0364203Y0132617D01*
X0364203Y0133751D01*
X0363636Y0134319D01*
X0363636Y0135733D02*
X0364203Y0136300D01*
X0364203Y0137435D01*
X0363636Y0138002D01*
X0362501Y0137435D02*
X0362501Y0136867D01*
X0385550Y0136952D02*
X0385550Y0134684D01*
X0387819Y0136952D01*
X0388386Y0136952D01*
X0388953Y0136385D01*
X0388953Y0135251D01*
X0388386Y0134684D01*
X0388386Y0133269D02*
X0388953Y0132702D01*
X0388953Y0131568D01*
X0388386Y0131001D01*
X0386117Y0131001D01*
X0385550Y0131568D01*
X0385550Y0132702D01*
X0386117Y0133269D01*
X0386117Y0138367D02*
X0385550Y0138934D01*
X0385550Y0140068D01*
X0386117Y0140635D01*
X0386684Y0140635D01*
X0387251Y0140068D01*
X0387251Y0139501D01*
X0387251Y0140068D02*
X0387819Y0140635D01*
X0388386Y0140635D01*
X0388953Y0140068D01*
X0388953Y0138934D01*
X0388386Y0138367D01*
X0388953Y0151001D02*
X0388953Y0152702D01*
X0388386Y0153269D01*
X0387251Y0153269D01*
X0386684Y0152702D01*
X0386684Y0151001D01*
X0386684Y0152135D02*
X0385550Y0153269D01*
X0385550Y0154684D02*
X0386117Y0154684D01*
X0388386Y0156952D01*
X0388953Y0156952D01*
X0388953Y0154684D01*
X0388953Y0151001D02*
X0385550Y0151001D01*
X0372953Y0154550D02*
X0372953Y0156251D01*
X0372386Y0156819D01*
X0371251Y0156819D01*
X0370684Y0156251D01*
X0370684Y0154550D01*
X0369550Y0154550D02*
X0372953Y0154550D01*
X0370684Y0155684D02*
X0369550Y0156819D01*
X0370117Y0158233D02*
X0369550Y0158800D01*
X0369550Y0159935D01*
X0370117Y0160502D01*
X0370684Y0160502D01*
X0371251Y0159935D01*
X0371251Y0158233D01*
X0370117Y0158233D01*
X0371251Y0158233D02*
X0372386Y0159367D01*
X0372953Y0160502D01*
X0372953Y0161916D02*
X0372953Y0164185D01*
X0372386Y0164185D01*
X0370117Y0161916D01*
X0369550Y0161916D01*
X0385550Y0160068D02*
X0385550Y0158934D01*
X0386117Y0158367D01*
X0388386Y0160635D01*
X0386117Y0160635D01*
X0385550Y0160068D01*
X0386117Y0158367D02*
X0388386Y0158367D01*
X0388953Y0158934D01*
X0388953Y0160068D01*
X0388386Y0160635D01*
X0512050Y0159935D02*
X0512050Y0158800D01*
X0512617Y0158233D01*
X0513751Y0158233D02*
X0514319Y0159367D01*
X0514319Y0159935D01*
X0513751Y0160502D01*
X0512617Y0160502D01*
X0512050Y0159935D01*
X0512617Y0161916D02*
X0512050Y0162483D01*
X0512050Y0163618D01*
X0512617Y0164185D01*
X0514886Y0164185D01*
X0515453Y0163618D01*
X0515453Y0162483D01*
X0514886Y0161916D01*
X0514319Y0161916D01*
X0513751Y0162483D01*
X0513751Y0164185D01*
X0515453Y0160502D02*
X0515453Y0158233D01*
X0513751Y0158233D01*
X0513751Y0156819D02*
X0513184Y0156251D01*
X0513184Y0154550D01*
X0512050Y0154550D02*
X0515453Y0154550D01*
X0515453Y0156251D01*
X0514886Y0156819D01*
X0513751Y0156819D01*
X0513184Y0155684D02*
X0512050Y0156819D01*
X0632850Y0157367D02*
X0633417Y0156800D01*
X0634551Y0156800D01*
X0635118Y0157367D01*
X0635118Y0158501D02*
X0633984Y0159069D01*
X0633417Y0159069D01*
X0632850Y0158501D01*
X0632850Y0157367D01*
X0635118Y0158501D02*
X0635118Y0160203D01*
X0632850Y0160203D01*
X0636533Y0159636D02*
X0636533Y0159069D01*
X0637100Y0158501D01*
X0636533Y0157934D01*
X0636533Y0157367D01*
X0637100Y0156800D01*
X0638234Y0156800D01*
X0638802Y0157367D01*
X0640216Y0156800D02*
X0641350Y0157934D01*
X0640783Y0157934D02*
X0642485Y0157934D01*
X0642485Y0156800D02*
X0642485Y0160203D01*
X0640783Y0160203D01*
X0640216Y0159636D01*
X0640216Y0158501D01*
X0640783Y0157934D01*
X0638802Y0159636D02*
X0638234Y0160203D01*
X0637100Y0160203D01*
X0636533Y0159636D01*
X0637100Y0158501D02*
X0637667Y0158501D01*
X0637100Y0165550D02*
X0638234Y0165550D01*
X0638802Y0166117D01*
X0640216Y0165550D02*
X0641350Y0166684D01*
X0640783Y0166684D02*
X0642485Y0166684D01*
X0642485Y0165550D02*
X0642485Y0168953D01*
X0640783Y0168953D01*
X0640216Y0168386D01*
X0640216Y0167251D01*
X0640783Y0166684D01*
X0638802Y0168386D02*
X0638234Y0168953D01*
X0637100Y0168953D01*
X0636533Y0168386D01*
X0636533Y0167819D01*
X0637100Y0167251D01*
X0636533Y0166684D01*
X0636533Y0166117D01*
X0637100Y0165550D01*
X0637100Y0167251D02*
X0637667Y0167251D01*
X0635118Y0167251D02*
X0633984Y0168386D01*
X0632850Y0168953D01*
X0633417Y0167251D02*
X0635118Y0167251D01*
X0635118Y0166117D01*
X0634551Y0165550D01*
X0633417Y0165550D01*
X0632850Y0166117D01*
X0632850Y0166684D01*
X0633417Y0167251D01*
X0635118Y0174300D02*
X0635118Y0174867D01*
X0632850Y0177136D01*
X0632850Y0177703D01*
X0635118Y0177703D01*
X0636533Y0177136D02*
X0636533Y0176569D01*
X0637100Y0176001D01*
X0636533Y0175434D01*
X0636533Y0174867D01*
X0637100Y0174300D01*
X0638234Y0174300D01*
X0638802Y0174867D01*
X0640216Y0174300D02*
X0641350Y0175434D01*
X0640783Y0175434D02*
X0642485Y0175434D01*
X0642485Y0174300D02*
X0642485Y0177703D01*
X0640783Y0177703D01*
X0640216Y0177136D01*
X0640216Y0176001D01*
X0640783Y0175434D01*
X0638802Y0177136D02*
X0638234Y0177703D01*
X0637100Y0177703D01*
X0636533Y0177136D01*
X0637100Y0176001D02*
X0637667Y0176001D01*
X0706485Y0149750D02*
X0706485Y0143750D01*
X0706487Y0143690D01*
X0706492Y0143629D01*
X0706501Y0143570D01*
X0706514Y0143511D01*
X0706530Y0143452D01*
X0706550Y0143395D01*
X0706573Y0143340D01*
X0706600Y0143285D01*
X0706629Y0143233D01*
X0706662Y0143182D01*
X0706698Y0143133D01*
X0706736Y0143087D01*
X0706778Y0143043D01*
X0706822Y0143001D01*
X0706868Y0142963D01*
X0706917Y0142927D01*
X0706968Y0142894D01*
X0707020Y0142865D01*
X0707075Y0142838D01*
X0707130Y0142815D01*
X0707187Y0142795D01*
X0707246Y0142779D01*
X0707305Y0142766D01*
X0707364Y0142757D01*
X0707425Y0142752D01*
X0707485Y0142750D01*
X0718485Y0142750D01*
X0718545Y0142752D01*
X0718606Y0142757D01*
X0718665Y0142766D01*
X0718724Y0142779D01*
X0718783Y0142795D01*
X0718840Y0142815D01*
X0718895Y0142838D01*
X0718950Y0142865D01*
X0719002Y0142894D01*
X0719053Y0142927D01*
X0719102Y0142963D01*
X0719148Y0143001D01*
X0719192Y0143043D01*
X0719234Y0143087D01*
X0719272Y0143133D01*
X0719308Y0143182D01*
X0719341Y0143233D01*
X0719370Y0143285D01*
X0719397Y0143340D01*
X0719420Y0143395D01*
X0719440Y0143452D01*
X0719456Y0143511D01*
X0719469Y0143570D01*
X0719478Y0143629D01*
X0719483Y0143690D01*
X0719485Y0143750D01*
X0719485Y0149750D01*
X0719483Y0149810D01*
X0719478Y0149871D01*
X0719469Y0149930D01*
X0719456Y0149989D01*
X0719440Y0150048D01*
X0719420Y0150105D01*
X0719397Y0150160D01*
X0719370Y0150215D01*
X0719341Y0150267D01*
X0719308Y0150318D01*
X0719272Y0150367D01*
X0719234Y0150413D01*
X0719192Y0150457D01*
X0719148Y0150499D01*
X0719102Y0150537D01*
X0719053Y0150573D01*
X0719002Y0150606D01*
X0718950Y0150635D01*
X0718895Y0150662D01*
X0718840Y0150685D01*
X0718783Y0150705D01*
X0718724Y0150721D01*
X0718665Y0150734D01*
X0718606Y0150743D01*
X0718545Y0150748D01*
X0718485Y0150750D01*
X0707485Y0150750D01*
X0707425Y0150748D01*
X0707364Y0150743D01*
X0707305Y0150734D01*
X0707246Y0150721D01*
X0707187Y0150705D01*
X0707130Y0150685D01*
X0707075Y0150662D01*
X0707020Y0150635D01*
X0706968Y0150606D01*
X0706917Y0150573D01*
X0706868Y0150537D01*
X0706822Y0150499D01*
X0706778Y0150457D01*
X0706736Y0150413D01*
X0706698Y0150367D01*
X0706662Y0150318D01*
X0706629Y0150267D01*
X0706600Y0150215D01*
X0706573Y0150160D01*
X0706550Y0150105D01*
X0706530Y0150048D01*
X0706514Y0149989D01*
X0706501Y0149930D01*
X0706492Y0149871D01*
X0706487Y0149810D01*
X0706485Y0149750D01*
X0705435Y0148136D02*
X0705435Y0147569D01*
X0704868Y0147001D01*
X0703734Y0147001D01*
X0703167Y0146434D01*
X0703167Y0145867D01*
X0703734Y0145300D01*
X0704868Y0145300D01*
X0705435Y0145867D01*
X0705435Y0148136D02*
X0704868Y0148703D01*
X0703734Y0148703D01*
X0703167Y0148136D01*
X0700618Y0148703D02*
X0699483Y0148703D01*
X0700051Y0148703D02*
X0700051Y0145867D01*
X0700618Y0145300D01*
X0701185Y0145300D01*
X0701752Y0145867D01*
X0698069Y0145867D02*
X0698069Y0146434D01*
X0697502Y0147001D01*
X0696367Y0147001D01*
X0695800Y0146434D01*
X0695800Y0145867D01*
X0696367Y0145300D01*
X0697502Y0145300D01*
X0698069Y0145867D01*
X0697502Y0147001D02*
X0698069Y0147569D01*
X0698069Y0148136D01*
X0697502Y0148703D01*
X0696367Y0148703D01*
X0695800Y0148136D01*
X0695800Y0147569D01*
X0696367Y0147001D01*
X0708882Y0124185D02*
X0708315Y0123618D01*
X0708315Y0122483D01*
X0708882Y0121916D01*
X0710016Y0121916D02*
X0710583Y0123051D01*
X0710583Y0123618D01*
X0710016Y0124185D01*
X0708882Y0124185D01*
X0710016Y0121916D02*
X0711718Y0121916D01*
X0711718Y0124185D01*
X0711151Y0120502D02*
X0711718Y0119935D01*
X0711718Y0118800D01*
X0711151Y0118233D01*
X0711151Y0116819D02*
X0710016Y0116819D01*
X0709449Y0116251D01*
X0709449Y0114550D01*
X0708315Y0114550D02*
X0711718Y0114550D01*
X0711718Y0116251D01*
X0711151Y0116819D01*
X0709449Y0115684D02*
X0708315Y0116819D01*
X0708315Y0118233D02*
X0710583Y0120502D01*
X0711151Y0120502D01*
X0708315Y0120502D02*
X0708315Y0118233D01*
X0695014Y0117703D02*
X0695014Y0114300D01*
X0695014Y0115434D02*
X0693313Y0115434D01*
X0692746Y0116001D01*
X0692746Y0117136D01*
X0693313Y0117703D01*
X0695014Y0117703D01*
X0693880Y0115434D02*
X0692746Y0114300D01*
X0691331Y0114300D02*
X0689062Y0116569D01*
X0689062Y0117136D01*
X0689630Y0117703D01*
X0690764Y0117703D01*
X0691331Y0117136D01*
X0691331Y0114300D02*
X0689062Y0114300D01*
X0687648Y0114867D02*
X0687081Y0114300D01*
X0685946Y0114300D01*
X0685379Y0114867D01*
X0685379Y0115434D01*
X0685946Y0116001D01*
X0687648Y0116001D01*
X0687648Y0114867D01*
X0687648Y0116001D02*
X0686514Y0117136D01*
X0685379Y0117703D01*
X0665468Y0118800D02*
X0664901Y0118233D01*
X0665468Y0118800D02*
X0665468Y0119935D01*
X0664901Y0120502D01*
X0664333Y0120502D01*
X0662065Y0118233D01*
X0662065Y0120502D01*
X0662632Y0121916D02*
X0664901Y0124185D01*
X0662632Y0124185D01*
X0662065Y0123618D01*
X0662065Y0122483D01*
X0662632Y0121916D01*
X0664901Y0121916D01*
X0665468Y0122483D01*
X0665468Y0123618D01*
X0664901Y0124185D01*
X0664901Y0116819D02*
X0663766Y0116819D01*
X0663199Y0116251D01*
X0663199Y0114550D01*
X0662065Y0114550D02*
X0665468Y0114550D01*
X0665468Y0116251D01*
X0664901Y0116819D01*
X0663199Y0115684D02*
X0662065Y0116819D01*
X0647514Y0117703D02*
X0647514Y0114300D01*
X0647514Y0115434D02*
X0645813Y0115434D01*
X0645246Y0116001D01*
X0645246Y0117136D01*
X0645813Y0117703D01*
X0647514Y0117703D01*
X0646380Y0115434D02*
X0645246Y0114300D01*
X0643831Y0114300D02*
X0641562Y0116569D01*
X0641562Y0117136D01*
X0642130Y0117703D01*
X0643264Y0117703D01*
X0643831Y0117136D01*
X0643831Y0114300D02*
X0641562Y0114300D01*
X0640148Y0114300D02*
X0637879Y0116569D01*
X0637879Y0117136D01*
X0638446Y0117703D01*
X0639581Y0117703D01*
X0640148Y0117136D01*
X0640148Y0114300D02*
X0637879Y0114300D01*
X0641600Y0086453D02*
X0641600Y0085886D01*
X0643868Y0083617D01*
X0643868Y0083050D01*
X0645283Y0083050D02*
X0647552Y0083050D01*
X0646417Y0083050D02*
X0646417Y0086453D01*
X0647552Y0085319D01*
X0648966Y0085886D02*
X0648966Y0084751D01*
X0649533Y0084184D01*
X0651235Y0084184D01*
X0651235Y0083050D02*
X0651235Y0086453D01*
X0649533Y0086453D01*
X0648966Y0085886D01*
X0650100Y0084184D02*
X0648966Y0083050D01*
X0643868Y0086453D02*
X0641600Y0086453D01*
X0660350Y0085886D02*
X0660350Y0085319D01*
X0660917Y0084751D01*
X0662051Y0084751D01*
X0662618Y0085319D01*
X0662618Y0085886D01*
X0662051Y0086453D01*
X0660917Y0086453D01*
X0660350Y0085886D01*
X0660917Y0084751D02*
X0660350Y0084184D01*
X0660350Y0083617D01*
X0660917Y0083050D01*
X0662051Y0083050D01*
X0662618Y0083617D01*
X0662618Y0084184D01*
X0662051Y0084751D01*
X0664033Y0083050D02*
X0666302Y0083050D01*
X0665167Y0083050D02*
X0665167Y0086453D01*
X0666302Y0085319D01*
X0667716Y0085886D02*
X0667716Y0084751D01*
X0668283Y0084184D01*
X0669985Y0084184D01*
X0669985Y0083050D02*
X0669985Y0086453D01*
X0668283Y0086453D01*
X0667716Y0085886D01*
X0668850Y0084184D02*
X0667716Y0083050D01*
X0687850Y0083617D02*
X0688417Y0083050D01*
X0689551Y0083050D01*
X0690118Y0083617D01*
X0691533Y0083050D02*
X0693802Y0083050D01*
X0691533Y0085319D01*
X0691533Y0085886D01*
X0692100Y0086453D01*
X0693234Y0086453D01*
X0693802Y0085886D01*
X0695216Y0085886D02*
X0695783Y0086453D01*
X0697485Y0086453D01*
X0697485Y0083050D01*
X0697485Y0084184D02*
X0695783Y0084184D01*
X0695216Y0084751D01*
X0695216Y0085886D01*
X0696350Y0084184D02*
X0695216Y0083050D01*
X0690118Y0085886D02*
X0689551Y0086453D01*
X0688417Y0086453D01*
X0687850Y0085886D01*
X0687850Y0085319D01*
X0688417Y0084751D01*
X0687850Y0084184D01*
X0687850Y0083617D01*
X0688417Y0084751D02*
X0688984Y0084751D01*
X0706600Y0084751D02*
X0708868Y0084751D01*
X0707167Y0086453D01*
X0707167Y0083050D01*
X0710283Y0083050D02*
X0712552Y0083050D01*
X0710283Y0085319D01*
X0710283Y0085886D01*
X0710850Y0086453D01*
X0711984Y0086453D01*
X0712552Y0085886D01*
X0713966Y0085886D02*
X0713966Y0084751D01*
X0714533Y0084184D01*
X0716235Y0084184D01*
X0716235Y0083050D02*
X0716235Y0086453D01*
X0714533Y0086453D01*
X0713966Y0085886D01*
X0715100Y0084184D02*
X0713966Y0083050D01*
X0734100Y0083617D02*
X0734667Y0083050D01*
X0735801Y0083050D01*
X0736368Y0083617D01*
X0736368Y0084751D02*
X0735234Y0085319D01*
X0734667Y0085319D01*
X0734100Y0084751D01*
X0734100Y0083617D01*
X0736368Y0084751D02*
X0736368Y0086453D01*
X0734100Y0086453D01*
X0738917Y0086453D02*
X0738917Y0083050D01*
X0737783Y0083050D02*
X0740052Y0083050D01*
X0741466Y0083050D02*
X0742600Y0084184D01*
X0742033Y0084184D02*
X0743735Y0084184D01*
X0743735Y0083050D02*
X0743735Y0086453D01*
X0742033Y0086453D01*
X0741466Y0085886D01*
X0741466Y0084751D01*
X0742033Y0084184D01*
X0740052Y0085319D02*
X0738917Y0086453D01*
X0752850Y0086453D02*
X0753984Y0085886D01*
X0755118Y0084751D01*
X0753417Y0084751D01*
X0752850Y0084184D01*
X0752850Y0083617D01*
X0753417Y0083050D01*
X0754551Y0083050D01*
X0755118Y0083617D01*
X0755118Y0084751D01*
X0756533Y0083050D02*
X0758802Y0083050D01*
X0757667Y0083050D02*
X0757667Y0086453D01*
X0758802Y0085319D01*
X0760216Y0085886D02*
X0760216Y0084751D01*
X0760783Y0084184D01*
X0762485Y0084184D01*
X0762485Y0083050D02*
X0762485Y0086453D01*
X0760783Y0086453D01*
X0760216Y0085886D01*
X0761350Y0084184D02*
X0760216Y0083050D01*
X0757968Y0114550D02*
X0757968Y0116251D01*
X0757401Y0116819D01*
X0756266Y0116819D01*
X0755699Y0116251D01*
X0755699Y0114550D01*
X0754565Y0114550D02*
X0757968Y0114550D01*
X0755699Y0115684D02*
X0754565Y0116819D01*
X0754565Y0118233D02*
X0754565Y0120502D01*
X0754565Y0119367D02*
X0757968Y0119367D01*
X0756833Y0118233D01*
X0756833Y0121916D02*
X0756266Y0122483D01*
X0756266Y0124185D01*
X0755132Y0124185D02*
X0757401Y0124185D01*
X0757968Y0123618D01*
X0757968Y0122483D01*
X0757401Y0121916D01*
X0756833Y0121916D01*
X0755132Y0121916D02*
X0754565Y0122483D01*
X0754565Y0123618D01*
X0755132Y0124185D01*
X0741264Y0117703D02*
X0739563Y0117703D01*
X0738996Y0117136D01*
X0738996Y0116001D01*
X0739563Y0115434D01*
X0741264Y0115434D01*
X0741264Y0114300D02*
X0741264Y0117703D01*
X0740130Y0115434D02*
X0738996Y0114300D01*
X0737581Y0114300D02*
X0735312Y0116569D01*
X0735312Y0117136D01*
X0735880Y0117703D01*
X0737014Y0117703D01*
X0737581Y0117136D01*
X0737581Y0114300D02*
X0735312Y0114300D01*
X0733898Y0114300D02*
X0731629Y0114300D01*
X0732764Y0114300D02*
X0732764Y0117703D01*
X0733898Y0116569D01*
X0645185Y0054203D02*
X0643484Y0054203D01*
X0642917Y0053636D01*
X0642917Y0052501D01*
X0643484Y0051934D01*
X0645185Y0051934D01*
X0645185Y0050800D02*
X0645185Y0054203D01*
X0644051Y0051934D02*
X0642917Y0050800D01*
X0641502Y0051367D02*
X0640935Y0050800D01*
X0639801Y0050800D01*
X0639233Y0051367D01*
X0639233Y0053636D01*
X0639801Y0054203D01*
X0640935Y0054203D01*
X0641502Y0053636D01*
X0641502Y0053069D01*
X0640935Y0052501D01*
X0639233Y0052501D01*
X0661666Y0045971D02*
X0661666Y0045169D01*
X0662468Y0044367D01*
X0663270Y0044367D01*
X0664473Y0045570D01*
X0663671Y0044768D02*
X0663671Y0043164D01*
X0662270Y0042564D02*
X0661869Y0042965D01*
X0661067Y0042965D01*
X0660265Y0042163D01*
X0660265Y0041361D01*
X0660666Y0040960D01*
X0661468Y0040960D01*
X0662270Y0041762D01*
X0662270Y0042564D01*
X0661067Y0042965D02*
X0661067Y0043768D01*
X0660666Y0044169D01*
X0659864Y0044169D01*
X0659062Y0043366D01*
X0659062Y0042564D01*
X0659463Y0042163D01*
X0660265Y0042163D01*
X0661666Y0045971D02*
X0662869Y0047174D01*
X0665275Y0044768D01*
X0670428Y0042019D02*
X0670830Y0041618D01*
X0674038Y0041618D01*
X0674439Y0041217D01*
X0675439Y0042217D02*
X0675439Y0043821D01*
X0675038Y0043420D02*
X0676241Y0044623D01*
X0677043Y0043821D02*
X0674637Y0046227D01*
X0673434Y0045024D01*
X0673434Y0044222D01*
X0674236Y0043420D01*
X0675038Y0043420D01*
X0672033Y0043623D02*
X0670428Y0042019D01*
X0682562Y0041867D02*
X0683765Y0042268D01*
X0685370Y0042268D01*
X0684167Y0041065D01*
X0684167Y0040263D01*
X0684568Y0039862D01*
X0685370Y0039862D01*
X0686172Y0040664D01*
X0686172Y0041466D01*
X0685370Y0042268D01*
X0686370Y0043268D02*
X0687172Y0043268D01*
X0688375Y0044471D01*
X0687573Y0043669D02*
X0687573Y0042065D01*
X0686370Y0043268D02*
X0685568Y0044070D01*
X0685568Y0044873D01*
X0686771Y0046076D01*
X0689177Y0043669D01*
D12*
X0475787Y0273138D02*
X0472717Y0273138D01*
X0471950Y0273906D01*
X0471950Y0275440D01*
X0472717Y0276207D01*
X0474252Y0277742D02*
X0474252Y0280811D01*
X0475787Y0282346D02*
X0476554Y0283113D01*
X0476554Y0284648D01*
X0475787Y0285415D01*
X0475019Y0285415D01*
X0471950Y0282346D01*
X0471950Y0285415D01*
X0471950Y0280044D02*
X0476554Y0280044D01*
X0474252Y0277742D01*
X0475787Y0276207D02*
X0476554Y0275440D01*
X0476554Y0273906D01*
X0475787Y0273138D01*
M02*
